<svg width="25" height="26" viewBox="0 0 25 26" fill="none" xmlns="http://www.w3.org/2000/svg"><path d="M22.998 11.267v14.226H.003v-.19l.003-7.108-.003-2.52c0-.537.004-1.073-.003-1.61-.001-.12.041-.166.154-.2 1.91-.568 3.818-1.14 5.727-1.712l3.018-.902c.036-.011.074-.018.136-.033v2.11l7.08-2.117v2.116l6.884-2.06zM7.745 24.93h7.528v-3.337h-2.571c-1.598 0-3.195.001-4.793-.002-.127 0-.177.025-.176.168.007 1.006.004 2.012.004 3.017 0 .043.004.086.008.154zm-6.131-8.054h.745l3.689.001c.35 0 .7.007 1.05.017.123.003.19-.02.184-.167-.01-.302-.01-.604 0-.906.005-.142-.037-.18-.178-.18-1.778.005-3.555.003-5.332.003-.051 0-.102.006-.158.01v1.222zM21.4 15.643H16.42a7.74 7.74 0 0 1-.556-.018c-.119-.009-.139.049-.137.148.006.322.007.644.011.966 0 .042.007.083.011.124h5.652v-1.22zm-.007 3.188v-1.219h-5.647v1.219h5.647zm-12.716-.005h5.66v-1.14c0-.092-.062-.098-.13-.096-.116.003-.232.012-.349.012l-5.023.001c-.051 0-.103.005-.158.008v1.215zm.001-1.959h5.649v-1.216H8.679v1.216zM1.615 19.57v1.223h2.219c1.099 0 2.197-.002 3.295.002.113 0 .154-.029.151-.147a24.98 24.98 0 0 1 0-.952c0-.098-.026-.138-.132-.137-1.81.002-3.622.002-5.433.002-.029 0-.057.005-.1.01zm19.784 0h-5.652v1.216h5.652V19.57zm-7.066.008h-5.65v1.204h5.65v-1.204zm-7.056-1.972h-5.66v1.228H7.08c.034 0 .075.011.101-.003.038-.021.092-.06.092-.093.007-.37.004-.741.004-1.132zM17.344 10.783l.764-6.275h2.599c.031.257.065.512.094.768l.304 2.677c.053.46.106.92.163 1.38.012.099.001.162-.11.199-1.244.408-2.485.821-3.728 1.232-.018.006-.037.008-.086.019zM10.285 10.79c.258-2.112.51-4.19.766-6.28h2.606l.06.55c.093.844.184 1.69.28 2.533.064.558.136 1.115.205 1.672.028.22.03.22-.173.288l-3.505 1.16c-.068.023-.137.045-.239.077zM6.154 9.777l-3.935 1.307.764-6.29c.052-.003.099-.01.146-.01.766 0 1.533.004 2.3-.002.125 0 .164.034.177.16.087.816.184 1.63.277 2.445l.27 2.39zM7.146.523c.148-.21.214-.48.526-.446.306.033.307.316.437.555.08-.093.14-.182.217-.25.25-.224.533-.334.86-.188.297.134.462.371.47.701.015.586-.619.962-1.146.682-.051-.027-.101-.056-.174-.097-.152.349-.44.434-.8.39.088.368.118.708-.198.96-.308.248-.626.19-.948-.001-.042.044-.083.085-.122.128-.133.143-.3.214-.488.17-.148-.035-.214-.006-.266.141-.075.213-.261.307-.477.278a.457.457 0 0 1-.399-.39c-.025-.157.038-.286.14-.4l.147-.163c-.07-.042-.127-.077-.185-.11-.32-.18-.436-.52-.282-.82.156-.305.498-.411.83-.26l.083.04.47-.383c-.148-.378-.15-.77.31-.982.456-.21.749.061.995.445zM19.29 2.59c-.07-.04-.128-.074-.187-.106-.32-.178-.436-.52-.28-.82.159-.309.494-.414.827-.26l.081.038.475-.382c-.166-.382-.136-.746.297-.981a.55.55 0 0 1 .576.005c.163.106.295.26.453.403.03-.05.072-.117.11-.186.082-.151.205-.237.38-.226.177.012.279.123.335.284.026.078.055.154.099.278.092-.102.155-.187.233-.257.422-.382.98-.312 1.235.15.165.3.121.646-.113.895a.752.752 0 0 1-.884.177c-.07-.032-.137-.071-.225-.117-.157.327-.428.44-.795.381.011.086.016.152.03.216.069.317-.009.585-.275.778-.256.184-.53.17-.802.027l-.116-.06c-.038.044-.074.088-.113.13-.134.14-.3.213-.49.17-.145-.033-.212-.009-.264.142-.072.21-.267.306-.479.276-.211-.03-.383-.181-.387-.392-.003-.121.058-.249.11-.364.033-.071.104-.125.168-.198zM15.558 1.505c-.13.114-.233.25-.37.315-.132.064-.3.056-.457.08.018.134.057.274.05.41-.03.543-.574.842-1.07.59-.11-.056-.172-.063-.254.04-.176.223-.417.224-.677.156-.086.19-.15.408-.389.435a.669.669 0 0 1-.362-.057.373.373 0 0 1-.193-.45c.045-.156.153-.294.24-.452-.056-.032-.132-.074-.205-.12-.283-.181-.38-.512-.232-.789a.61.61 0 0 1 .802-.272l.112.052.473-.384c-.16-.374-.142-.75.295-.975.338-.175.586-.06 1.016.425.05-.08.098-.156.142-.234a.36.36 0 0 1 .363-.199.353.353 0 0 1 .318.243c.035.09.067.181.107.29.096-.091.177-.172.263-.249.309-.276.697-.303 1.004-.072.301.227.385.627.207.987-.17.343-.622.497-.982.333-.075-.034-.147-.075-.201-.103z" fill="#000"/></svg>