<svg width="193" height="70" viewBox="0 0 193 70" fill="none" xmlns="http://www.w3.org/2000/svg"><path d="M23.707 45.935V34.434l23.052 3.077.29 6.373s-2.472 3.077-7.271 3.004c-4.8-.073-8-3.956-8-3.956s-2.326 3.223-8.071 3.003z" fill="#00A2E6"/><path d="M45.49 14.599v20.985l3.215.438c0 .137.026.284-.004.417-.174.75-.371 1.493-.54 2.244-.103.452-.157.916-.255 1.37-.092.431-.216.856-.322 1.285-.083.338-.164.678-.238 1.018-.081.377-.188.752-.217 1.133-.021.29-.127.485-.324.684-.626.63-1.374 1.081-2.13 1.523-.082.048-.248.068-.303.018-.07-.062-.105-.215-.087-.317.071-.403.17-.8.256-1.2.11-.519.208-1.04.327-1.556.1-.433.226-.86.331-1.292.08-.327.148-.657.218-.987.08-.378.15-.758.235-1.134.051-.23.108-.46.19-.681.113-.308.008-.471-.326-.503-.74-.071-1.492-.087-2.213-.248-1.034-.232-2.084-.277-3.127-.402-1.145-.137-2.295-.241-3.439-.39-.729-.094-1.45-.243-2.176-.367-.048-.008-.096-.018-.144-.022-.792-.065-1.585-.123-2.377-.198-.683-.064-1.39-.058-2.038-.247-.55-.161-1.098-.084-1.63-.198-1.143-.244-2.308-.28-3.457-.447-.438-.063-.858-.207-1.312-.148-.595.078-1.193.13-1.79.198-.592.068-1.186.128-1.776.214-.698.102-1.392.227-2.088.342-.06.01-.12.025-.18.03-.826.076-1.656.132-2.48.23-.784.094-1.562.232-2.343.35-.035.006-.07.02-.106.023-.826.08-1.654.146-2.478.245-.761.091-1.519.218-2.278.33a1.607 1.607 0 0 1-.072.009c-.91.086-1.821.165-2.73.259-.656.067-1.311.14-1.963.235-.455.066-.594.34-.465.758.134.433.242.875.348 1.316.133.559.257 1.12.377 1.681.093.434.167.873.261 1.306.097.446.208.889.315 1.333.008.035.031.067.04.102.075.338.155.675.22 1.016.022.115.004.238.004.425-.338-.164-.657-.271-.92-.458a17.549 17.549 0 0 1-1.514-1.193c-.168-.15-.273-.408-.334-.637-.111-.416-.157-.849-.25-1.27-.101-.468-.224-.93-.338-1.395a2.774 2.774 0 0 1-.032-.142c-.152-.788-.298-1.577-.456-2.363a55.071 55.071 0 0 0-.381-1.763c-.04-.169-.13-.325-.194-.478.047-.04.063-.064.082-.066.773-.085 1.547-.16 2.318-.256.236-.03.475-.096.691-.193.08-.036.135-.208.137-.32.018-.756.025-1.513.025-2.27.002-5.945 0-11.89.002-17.836 0-.62-.046-.539.514-.539l41.226-.001h.496zm-34.38 6.877c1.685 0 3.37-.006 5.054.005.297.002.399-.088.395-.396-.015-1.208-.017-2.417.001-3.625.005-.335-.09-.441-.428-.44-3.345.01-6.69.01-10.034 0-.315 0-.422.091-.417.416a121.03 121.03 0 0 1-.001 3.59c-.006.35.097.46.45.457 1.66-.016 3.32-.007 4.98-.007zm13.32 0c1.67 0 3.341-.007 5.012.006.322.002.45-.081.444-.43a131.12 131.12 0 0 1-.001-3.586c.004-.323-.082-.448-.427-.446-3.33.011-6.66.01-9.99 0-.345-.001-.435.127-.431.45a143.37 143.37 0 0 1-.002 3.55c-.005.346.1.466.454.463 1.646-.016 3.293-.007 4.94-.007zm.041 6.958c1.67 0 3.342-.005 5.012.005.298.002.404-.092.401-.397-.013-1.22-.012-2.44 0-3.66.003-.301-.096-.399-.396-.398-3.342.008-6.684.01-10.025-.002-.35-.001-.43.133-.427.451a141.87 141.87 0 0 1-.001 3.55c-.005.352.113.461.46.458 1.659-.014 3.317-.006 4.976-.007zM37.72 23.99c-1.646 0-3.293.007-4.94-.006-.313-.003-.423.088-.418.414.016 1.207.015 2.415 0 3.622-.004.318.094.422.415.421 3.28-.01 6.561-.01 9.842 0 .326.001.45-.094.446-.435-.015-1.195-.015-2.39 0-3.586.004-.337-.11-.44-.441-.436-1.635.014-3.27.006-4.904.006zm-26.6 6.946c-1.67 0-3.341.005-5.012-.005-.303-.002-.432.073-.427.408.018 1.121.017 2.244.001 3.365-.004.322.098.447.417.413.718-.076 1.437-.14 2.156-.209.036-.003.071-.014.107-.02.738-.12 1.473-.263 2.214-.35.92-.11 1.845-.172 2.767-.254.024-.002.048-.008.072-.01.88-.118 1.76-.249 2.643-.344.454-.05.486-.04.493-.513.01-.67-.017-1.342.011-2.011.016-.37-.098-.482-.467-.478-1.659.018-3.317.008-4.975.008zm26.594 0l-4.94-.001c-.22 0-.412-.002-.408.313.01.793.005 1.586 0 2.379 0 .193.065.28.27.298.696.06 1.389.14 2.083.211.168.018.337.031.505.056.723.104 1.444.23 2.17.315.867.1 1.738.166 2.607.248.036.004.071.016.107.02l2.532.339c.315.042.427-.097.424-.415a107.95 107.95 0 0 1 .002-3.294c.007-.376-.124-.48-.484-.476-1.622.015-3.245.007-4.868.007zm-13.278-.016c-1.671 0-3.343.007-5.014-.006-.329-.002-.456.101-.444.44.02.573.017 1.147 0 1.72-.01.326.088.484.435.437.477-.064.954-.118 1.433-.166.839-.084 1.678-.158 2.517-.243.155-.015.306-.075.46-.091.309-.033.621-.086.928-.065.441.029.878.12 1.318.178.168.022.338.024.506.043.992.114 1.982.231 2.974.346.249.03.35-.084.345-.336-.008-.586 0-1.172-.002-1.758 0-.497-.002-.498-.514-.499h-4.942zM.352 50.963l1.745-1.494c2.047 2.22 4.629 3.186 7.551 2.969 2.9-.217 5.311-1.527 6.995-4.004.549.606 1.002 1.24 1.583 1.716.7.572 1.486 1.053 2.28 1.488.447.245.99.31 1.485.468.94.302 1.905.432 2.882.353.639-.051 1.274-.194 1.902-.339a9.786 9.786 0 0 0 1.556-.474c.42-.175.796-.455 1.193-.687.967-.566 1.668-1.426 2.41-2.238.17-.187.264-.163.428.003.67.682 1.33 1.377 2.043 2.01.345.307.782.531 1.208.719.669.293 1.352.566 2.052.767a5.789 5.789 0 0 0 1.639.24c.864-.01 1.742-.048 2.587-.217 1.073-.214 2.11-.606 3.019-1.241.558-.39 1.053-.873 1.58-1.31.09-.074.197-.126.314-.2.474.444.93.89 1.41 1.306.181.157.136.277.009.387-.59.51-1.158 1.057-1.796 1.499a14.01 14.01 0 0 1-2.063 1.164c-.488.227-1.035.333-1.562.467-.493.126-.991.25-1.495.316-.958.127-1.922.202-2.878-.047-.07-.018-.14-.042-.212-.043-.676-.008-1.318-.171-1.945-.416-.594-.231-1.232-.375-1.783-.68-.739-.411-1.425-.924-2.107-1.43-.199-.147-.285-.161-.475-.004a11.015 11.015 0 0 1-2.807 1.71c-.647.27-1.301.477-1.984.642-1.266.306-2.539.439-3.828.305a12.37 12.37 0 0 1-2.118-.39c-.63-.18-1.238-.461-1.828-.755-.628-.312-1.228-.683-1.83-1.046-.24-.146-.446-.35-.683-.505-.071-.046-.222-.052-.291-.007-.738.485-1.44 1.032-2.207 1.463-.54.303-1.16.461-1.749.67-.388.137-.779.278-1.18.362-.528.112-1.065.2-1.603.24a8.972 8.972 0 0 1-1.634-.003c-.65-.072-1.292-.227-1.935-.358-.323-.066-.65-.133-.96-.244-.577-.208-1.16-.414-1.709-.686a11.454 11.454 0 0 1-1.636-.98c-.41-.3-.75-.698-1.121-1.05-.136-.13-.276-.254-.452-.416zM9.78 57.11c2.117 2.212 4.636 3.108 7.598 2.93 2.959-.18 5.22-1.558 7-3.93.395.446.739.87 1.121 1.256.568.574 1.164 1.122 1.91 1.464.704.323 1.39.715 2.124.94.98.3 2.012.322 3.037.276.133-.006.266-.02.4-.018.897.012 1.747-.215 2.564-.56.558-.237 1.131-.467 1.633-.799.59-.39 1.126-.872 1.653-1.35.155-.14.24-.165.38-.043.433.375.856.764 1.3 1.126.175.144.172.235.03.396-.75.849-1.61 1.557-2.625 2.055-.588.288-1.19.548-1.793.8-.996.415-2.052.517-3.11.672-.951.139-1.849-.084-2.77-.096-.46-.005-.92-.222-1.371-.368a30.804 30.804 0 0 1-1.693-.6c-.696-.271-1.327-.664-1.92-1.119-.207-.158-.39-.361-.62-.469-.14-.066-.408-.059-.515.036-.783.686-1.672 1.201-2.6 1.64-.475.225-.998.346-1.503.503-.395.123-.794.23-1.192.344-.058.017-.116.04-.175.045-.768.056-1.538.17-2.304.145-.687-.021-1.37-.188-2.052-.305-.398-.068-.802-.129-1.182-.256a13.081 13.081 0 0 1-1.644-.657c-1.114-.55-2.103-1.285-2.992-2.16-.29-.285-.31-.404-.015-.678.43-.401.864-.796 1.326-1.22zM61.105 24.961v-10.34c.135-.008.253-.02.37-.02 1.514-.002 3.028-.017 4.542.004.889.013 1.744.238 2.401.862.565.537.707 1.283.625 2.045-.06.55-.266 1.044-.696 1.436-.359.326-.307.3.113.59.649.447 1.253.976 1.3 1.855.029.528.068 1.077-.038 1.586-.116.55-.462 1.02-.946 1.342a3.937 3.937 0 0 1-2.271.673c-1.708-.015-3.416-.002-5.124-.003-.082 0-.164-.017-.276-.03zm3.891-1.797c.351 0 .705.027 1.052-.009.312-.031.632-.095.921-.212.515-.209.847-1.29.525-1.744-.293-.413-.688-.723-1.232-.728-.896-.007-1.791.005-2.687-.01-.278-.004-.354.11-.349.37.012.657.012 1.316 0 1.974-.005.265.081.373.355.363.47-.017.943-.005 1.415-.004zm-.197-4.5v-.007c.424 0 .848.016 1.27-.004.537-.025 1.077-.636 1.035-1.142-.043-.52-.576-1.078-1.092-1.091-.834-.021-1.67-.007-2.504-.016-.202-.002-.281.08-.279.28.005.561.007 1.122 0 1.683-.004.22.083.305.3.3.423-.01.847-.003 1.27-.003zM94.05 17.65c.884-.001 1.769.01 2.653-.007.306-.006.39.1.387.399-.012 1.562-.006 3.125-.005 4.687 0 .536.058.593.578.597.704.005.644-.073.645.649.002.842-.008 1.684.005 2.526.005.33-.114.47-.448.45a8.582 8.582 0 0 0-.98 0c-.326.02-.432-.13-.42-.436.013-.34-.002-.683.004-1.025.006-.329-.132-.498-.473-.497-1.502.004-3.005.004-4.508 0-.32 0-.465.147-.461.467.005.378-.001.756-.002 1.135 0 .238-.105.36-.354.354-.388-.007-.775.002-1.163-.003-.31-.004-.465-.171-.465-.482-.001-.916.005-1.831-.004-2.747-.003-.286.125-.385.395-.393.625-.02.744-.11.951-.7.325-.927.468-1.882.483-2.864.009-.628.087-1.255.124-1.882.014-.236.169-.229.331-.229h2.726zm1.016 3.664c0-.562-.003-1.123.001-1.685.002-.239-.08-.354-.34-.347-.533.016-1.067.013-1.6.002-.219-.005-.301.088-.318.295-.055.678-.089 1.36-.19 2.03-.061.403-.213.797-.363 1.18-.123.316-.023.534.308.536.715.004 1.43-.008 2.145.005.275.006.364-.11.36-.368-.009-.549-.003-1.099-.003-1.648zM157.174 61.677c-.028.189-.064.324-.065.459-.005.915-.001 1.83-.003 2.746-.001.473-.129.598-.608.6h-1.018c-.33 0-.489-.17-.489-.497-.001-3.16.001-6.321-.003-9.482 0-.28.113-.398.392-.39.399.01.8.016 1.199-.003.35-.016.576.066.538.479-.004.05.037.105.05.14.356-.212.673-.483 1.039-.599.448-.141.934-.187 1.407-.212 1.327-.072 2.184.653 2.829 1.738a3.87 3.87 0 0 1 .541 2.193c-.062 1.198-.437 2.325-1.434 3.097-.732.568-1.602.845-2.517.68-.578-.105-1.185-.266-1.614-.752-.053-.06-.124-.102-.244-.197zm1.968-.825c.962.039 1.774-1.069 1.83-2.037a2.012 2.012 0 0 0-.233-1c-.169-.32-.421-.643-.718-.84-.536-.357-1.164-.325-1.779-.204-.445.088-1.124.778-1.131 1.173-.01.548-.004 1.096.005 1.645.003.13.004.303.081.384.475.499 1.018.881 1.945.88zM79.45 55.115l.045.666c.274-.184.505-.366.76-.502.254-.136.523-.261.8-.326.255-.059.53-.023.796-.043 1.146-.087 2.003.428 2.683 1.304.329.423.496.912.653 1.428.15.496.2.982.148 1.468-.124 1.15-.534 2.203-1.484 2.902-.706.52-1.564.789-2.446.619-.68-.131-1.389-.305-1.813-.99l-.075.046c-.016.149-.044.298-.045.447-.004.976-.011 1.953.004 2.93.005.315-.095.442-.417.423-.375-.022-.751-.004-1.127-.005-.436-.002-.485-.048-.486-.48-.002-1.27 0-2.54 0-3.809 0-1.88.008-3.76-.008-5.64-.004-.36.109-.463.454-.445.506.027 1.014.007 1.558.007zm.021 3.635c0 .292-.008.585.004.877.005.116.024.254.09.34.519.672 1.616 1.145 2.5.714.716-.35 1.225-1.116 1.245-1.84.007-.272-.11-.548-.17-.822-.109-.496-.424-.839-.838-1.088-.556-.335-1.172-.301-1.753-.125-.745.226-1.079.76-1.079 1.542l.001.402zM82.757 42.896c-.03.244-.061.384-.062.523-.004.916-.002 1.832-.003 2.748 0 .557-.002.559-.537.56-.364 0-.728-.01-1.09.002-.268.01-.372-.106-.37-.368.008-.61.003-1.221.003-1.832 0-2.576.005-5.152-.007-7.728-.001-.324.072-.468.421-.441.386.029.776.022 1.163.001.3-.016.47.054.422.398-.01.077.024.16.053.328.195-.127.358-.209.49-.325.431-.38.931-.562 1.499-.567.242-.002.484-.007.726 0 .984.026 1.703.506 2.317 1.263.852 1.048.926 2.275.746 3.488-.18 1.215-.89 2.198-2.035 2.71-1.03.462-2.091.347-3.088-.18-.215-.113-.376-.33-.648-.58zm-.063-2.92c0 .321-.006.577.003.833a.573.573 0 0 0 .07.273c.573.918 1.562 1.306 2.715.826.828-.344 1.389-1.72 1.025-2.55-.342-.781-.85-1.356-1.782-1.386-.754-.025-1.36.175-1.858.876-.278.394-.105.8-.173 1.128zM62.903 39.48v2.302c0 .55-.006 1.099.002 1.648.002.204-.075.286-.277.282-.4-.007-.8-.017-1.2.004-.292.016-.367-.099-.365-.38.01-1.734.005-3.467.005-5.2 0-.49.007-.977-.003-1.466-.004-.215.066-.31.29-.306.485.01.971-.02 1.453.016.161.012.35.143.458.276.567.703 1.109 1.426 1.666 2.136.07.09.18.15.302.247l1.28-1.644c.232-.298.46-.599.702-.888a.374.374 0 0 1 .245-.13c.615-.01 1.23-.005 1.876-.005.01.154.024.272.024.389.001 2.185-.004 4.37.007 6.556.001.295-.07.419-.382.4a11.475 11.475 0 0 0-1.163-.002c-.302.012-.408-.118-.406-.412.008-1.074.003-2.149.002-3.223 0-.061.012-.125-.002-.182-.038-.155-.086-.307-.13-.46-.112.094-.244.172-.333.284-.416.52-.82 1.049-1.229 1.573-.188.242-.835.262-1.034.02-.472-.574-.93-1.16-1.405-1.733-.07-.085-.192-.126-.29-.187l-.093.085zM109.018 58.5c.281.233.583.44.829.7.165.177.329.418.359.647.086.663.107 1.349-.428 1.862-.233.224-.52.432-.819.533a4.024 4.024 0 0 1-1.203.194c-1.368.023-2.736 0-4.104.015-.333.003-.443-.105-.441-.443.012-2.134.005-4.269.007-6.404 0-.453.034-.49.469-.49 1.441.001 2.882-.007 4.322.012.812.01 1.386.53 1.658 1.294.219.618.05 1.133-.247 1.642-.096.163-.26.286-.402.438zm-2.592 2.533l.014.076c.427-.084.861-.143 1.28-.258.313-.086.499-.443.475-.785-.022-.303-.288-.633-.607-.655a33.76 33.76 0 0 0-1.99-.058c-.084 0-.241.1-.242.155-.008.473.013.946.024 1.419l.974.105c.024.003.048 0 .072 0zm-.103-3.046c.241 0 .482.008.723-.002.366-.014.713-.352.734-.7.021-.337-.268-.704-.637-.743-.43-.046-.865-.051-1.298-.057-.507-.007-.51.005-.512.5-.003 1.01-.003 1.01.99 1.002zM190.8 20.88c-.7.91-1.398 1.822-2.1 2.73-.322.416-.645.83-.982 1.234a.448.448 0 0 1-.297.141c-.484.015-.969.002-1.453.01-.218.004-.297-.08-.296-.302.005-2.246.004-4.492.001-6.738 0-.18.024-.31.249-.306.568.006 1.136.002 1.779.002v4.2c.041.01.081.022.121.033.366-.483.728-.97 1.101-1.449.576-.74 1.242-1.426 1.714-2.229.337-.574.749-.58 1.256-.556.346.017.802-.08 1.002.104.176.161.079.64.08.979.005 1.904.002 3.808.002 5.712 0 .548-.001.549-.527.55-.363 0-.728-.019-1.09.005-.311.02-.422-.073-.415-.406.02-1.086.009-2.172.006-3.259-.001-.148-.025-.296-.039-.444l-.112-.01zM101.887 21.886c.292-.371.588-.74.875-1.116.749-.98 1.489-1.967 2.246-2.94a.55.55 0 0 1 .37-.173c.46-.02.921-.001 1.381-.01.251-.005.347.108.346.351-.002 2.21-.002 4.42 0 6.63.001.263-.112.374-.374.367-.424-.01-.849-.013-1.273.001-.312.01-.43-.116-.426-.432.011-1.063.006-2.125.001-3.187-.001-.158-.038-.315-.058-.473l-.101-.017c-.304.394-.611.787-.914 1.182-.429.561-.855 1.125-1.282 1.687-.25.328-.486.668-.757.978-.105.12-.283.236-.435.247-.446.032-.896.007-1.345.013-.25.003-.347-.119-.346-.359.001-2.21.002-4.42-.002-6.63 0-.27.118-.367.377-.36.399.011.8.016 1.199-.001.279-.013.381.077.377.372-.015 1.123-.007 2.246-.005 3.37 0 .143.013.288.021.432l.125.068zM32.94 66.237c-.737.886-1.555 1.602-2.525 2.135-.472.26-.927.557-1.42.763-.487.204-1.01.323-1.522.464-.447.123-.897.231-1.35.33-.175.039-.36.045-.54.047-.655.007-1.313.053-1.962-.005-.71-.062-1.414-.215-2.118-.344-.375-.069-.762-.125-1.112-.267a13.64 13.64 0 0 1-1.784-.85c-.578-.34-1.117-.75-1.65-1.16-.314-.24-.586-.538-.87-.817-.163-.16-.187-.314.013-.485.392-.337.766-.693 1.15-1.039.2-.18.368-.15.555.05.861.918 1.9 1.583 3.055 2.044.61.244 1.266.36 1.91.508.872.2 1.728.17 2.588.127.546-.027 1.087-.221 1.623-.366.41-.11.816-.24 1.21-.396a7.713 7.713 0 0 0 2.372-1.5c.177-.162.34-.348.543-.47.109-.066.336-.081.423-.01.478.388.929.81 1.41 1.242zM181.504 20.853c-.276.313-.569.613-.826.943-.372.477-.711.98-1.075 1.463a59.265 59.265 0 0 1-1.212 1.553.476.476 0 0 1-.307.171c-.472.019-.945.002-1.417.013-.234.005-.32-.087-.319-.323.005-2.233 0-4.465.011-6.698.001-.108.12-.305.191-.308.59-.025 1.181-.014 1.816-.014.019 1.421-.01 2.808.016 4.192l.1-.011c.622-.8 1.248-1.595 1.865-2.399a42.54 42.54 0 0 0 1.086-1.474c.161-.229.346-.33.626-.317.423.019.848.014 1.271.002.24-.007.314.093.313.324-.005 2.233-.005 4.466 0 6.699.001.23-.071.333-.312.327-.448-.012-.897-.02-1.344.003-.305.015-.36-.124-.357-.391.01-1.099.005-2.197.003-3.295 0-.139-.018-.277-.027-.415l-.102-.045zM121.146 43.708v-4.066l-.101-.058c-.168.183-.35.354-.5.55-.678.879-1.349 1.764-2.019 2.65-.163.215-.29.465-.479.654-.13.13-.332.245-.511.26-.445.036-.896.005-1.344.015-.217.004-.297-.078-.297-.3.006-2.245.006-4.492 0-6.738-.001-.246.095-.318.323-.312.448.01.896.013 1.344-.001.252-.008.338.083.336.338-.01 1.123-.005 2.246-.002 3.37 0 .136.023.272.035.408l.107.032c.36-.459.72-.916 1.077-1.376.674-.868 1.343-1.74 2.023-2.602a.426.426 0 0 1 .277-.157c.497-.016.994-.004 1.49-.01.202-.004.275.075.274.28-.005 2.259 0 4.517-.012 6.775-.001.097-.137.272-.216.275-.58.024-1.16.013-1.805.013zM130.837 62.443c-.635 0-1.203-.005-1.77.002-.277.003-.229-.193-.23-.355-.002-1.123.001-2.245-.004-3.367 0-.152-.029-.304-.045-.456a8.106 8.106 0 0 1-.098-.038c-.284.35-.576.695-.849 1.053-.765 1.004-1.52 2.016-2.289 3.016-.062.081-.204.135-.311.139-.472.015-.945 0-1.417.01-.213.004-.268-.095-.268-.288.003-2.245.004-4.49-.001-6.735-.001-.24.092-.32.323-.314.424.012.848.012 1.272 0 .298-.007.406.126.404.42a235.81 235.81 0 0 0 0 3.257c.001.141.042.282.081.523.441-.582.805-1.07 1.177-1.551.58-.75 1.212-1.463 1.731-2.253.258-.392.546-.399.907-.394.339.005.679.017 1.017-.004.284-.017.38.08.376.372-.014 1.134-.006 2.27-.006 3.404V62.443zM114.824 21.013c.256.188.431.33.618.452.423.276.637.671.639 1.168.001.454.095.926-.185 1.344-.253.38-.574.643-1.014.814-.742.288-1.5.183-2.252.198-1.029.02-2.059.002-3.088.007-.21 0-.34-.032-.339-.295.007-2.257.006-4.514.002-6.771 0-.203.072-.283.275-.282 1.465.007 2.932-.027 4.395.026.59.02 1.116.329 1.497.821.469.608.386 1.807-.168 2.329-.079.074-.201.102-.38.189zm-3.587 2.536c.707 0 1.37-.006 2.032.002.392.005.62-.226.758-.544.143-.329.015-.685-.29-.917-.099-.075-.222-.161-.336-.163-.719-.015-1.438-.008-2.164-.008v1.63zm-.013-4.478c0 .445-.012.857.01 1.267.004.077.147.207.226.208.543 0 1.087-.004 1.628-.052.369-.032.578-.33.571-.71-.005-.317-.289-.694-.594-.706-.601-.024-1.203-.007-1.841-.007zM88.353 23.393c0 .433.042.873-.013 1.302-.049.378-.473.39-.72.429-.73.112-1.43.01-1.918-.671-.047-.067-.279-.058-.39-.007-.36.165-.686.42-1.057.539-.379.122-.795.13-1.196.179-.767.093-1.448-.155-2.017-.643-.246-.211-.379-.562-.545-.86a1.454 1.454 0 0 1-.187-.498c-.126-.958.226-1.957 1.178-2.43.877-.434 1.793-.591 2.757-.29.334.106.684.161 1.024.238.173-.491-.166-1.213-.67-1.37-.374-.117-.773-.231-1.157-.22-.674.023-1.343.15-1.946.501-.189.11-.31.037-.316-.174-.01-.39-.03-.784.013-1.17.016-.142.168-.333.303-.388a6.04 6.04 0 0 1 3.04-.391c1.04.125 1.992.498 2.517 1.507.162.31.266.682.282 1.031.04.84.03 1.684.009 2.525-.014.563.199.942.863.836.033-.005.07.011.146.026zm-4.34.169c.35.067.698-.147 1.025-.396.377-.285.466-.917.142-1.144a1.923 1.923 0 0 0-.77-.303 3.354 3.354 0 0 0-.977-.008c-.258.035-.54.114-.748.263-.501.36-.457.992.04 1.366.37.28.782.236 1.288.222zM101.764 58.731c-.171 1.477-.697 2.629-1.974 3.35-.811.46-1.683.668-2.584.561-1.421-.169-2.595-.81-3.281-2.141-.154-.3-.19-.662-.276-.997-.05-.194-.092-.39-.137-.585-.011-.046-.035-.097-.025-.14.1-.456.202-.912.311-1.366.211-.872.823-1.457 1.514-1.917.431-.287.976-.45 1.492-.54.517-.09 1.062-.036 1.594-.017.655.023 1.21.32 1.741.683.625.426 1.036 1.03 1.312 1.704.188.457.223.977.313 1.405zm-4.15 2.113c1.089.105 2.123-1.031 2.084-2.123-.037-1.071-.79-2.042-2.089-2.038-1.184.005-2.007.887-2.02 2.058-.014 1.215.934 2.145 2.025 2.103zM149.515 54.912c.658-.102 1.411.08 2.047.477.669.417 1.289.965 1.547 1.77.162.507.385 1.038.366 1.55-.054 1.438-.593 2.647-1.929 3.372-.867.47-1.792.701-2.758.54-1.018-.169-1.974-.544-2.628-1.42-.393-.524-.735-1.08-.754-1.778-.005-.197-.158-.396-.143-.586.116-1.53.694-2.769 2.12-3.526.649-.345 1.314-.406 2.132-.4zm-.125 5.93c1.133.088 2.124-1.079 2.077-2.132-.047-1.058-.773-2.032-2.071-2.026-1.189.006-2.038.83-2.041 2.103-.002 1.132.956 2.118 2.035 2.056zM141.387 21.348c-.16-.897.164-1.679.67-2.348.508-.672 1.175-1.16 2.038-1.389a5.166 5.166 0 0 1 1.787-.145c1.123.096 2.052.584 2.775 1.486.728.905.925 1.95.76 3.04-.164 1.082-.746 1.946-1.676 2.575-1.025.694-2.169.712-3.291.555-1.283-.179-2.243-.967-2.802-2.14-.232-.488-.256-1.076-.375-1.62l.114-.014zm1.995-.071c-.125 1.192.895 2.118 1.973 2.122 1.281.006 2.019-.969 2.107-1.993.09-1.057-.964-2.165-1.993-2.18-1.051-.014-2.219.878-2.087 2.05zM71.759 54.835c.563.102 1.155.126 1.681.326.642.244 1.18.68 1.62 1.248.394.508.603 1.092.727 1.683a3.06 3.06 0 0 1-.078 1.575c-.166.52-.334 1.02-.674 1.44-.568.7-1.234 1.254-2.177 1.362-.39.045-.778.189-1.164.177-1.455-.046-2.688-.584-3.484-1.864-.258-.415-.487-.883-.457-1.418a6.95 6.95 0 0 0-.004-.842c-.076-1.154.459-2.026 1.282-2.737.773-.666 1.685-.975 2.72-.855l.008-.095zm-.006 6.008c1.007.142 2.124-1.121 2.075-2.107-.055-1.09-.862-2.065-2.09-2.058-1.149.006-2.041.913-2.043 2.08-.002 1.2 1.015 2.16 2.058 2.085zM125.383 21.306c.145 1.376-.494 2.382-1.476 3.158a3.224 3.224 0 0 1-1.901.696c-.387.012-.776.018-1.162 0-.73-.031-1.361-.311-1.972-.721-.615-.414-1.062-.972-1.286-1.626-.267-.778-.474-1.598-.138-2.465.149-.387.219-.811.472-1.15.577-.771 1.279-1.337 2.246-1.599a4.937 4.937 0 0 1 1.931-.12c1.099.138 2.021.664 2.67 1.605.466.678.731 1.414.616 2.222zm-3.993 2.074c1.161.075 2.021-.924 2.041-2.05.021-1.227-1.062-2.06-1.964-2.099-1.246-.053-2.179 1.127-2.158 2.082.022 1.033.828 2.158 2.081 2.067zM75.061 36.197a3.21 3.21 0 0 1 2.052.434c.467.278.861.707 1.23 1.121.809.905.846 2.036.669 3.134-.148.915-.658 1.668-1.446 2.245-1.012.742-2.141.919-3.3.742-1.265-.192-2.277-.857-2.902-2.058-.437-.841-.488-1.736-.34-2.607.174-1.014.768-1.831 1.639-2.406a3.645 3.645 0 0 1 2.398-.605zm-.043 5.899c1.12.143 2.073-.963 2.065-2.064-.008-1.137-.874-2.067-2.045-2.08-1.104-.012-2.069.89-2.07 2.1-.002 1.1 1.007 2.191 2.05 2.044zM110.26 36.196a3.315 3.315 0 0 1 2.036.418c.539.303 1.022.707 1.378 1.259.512.794.668 1.65.59 2.566-.095 1.124-.581 2.008-1.506 2.693-.985.73-2.085.902-3.221.748-1.024-.14-1.911-.598-2.596-1.472-.748-.954-.886-2.023-.725-3.128.153-1.052.764-1.884 1.655-2.481.711-.476 1.496-.669 2.389-.603zm-.035 5.9c1.101.163 2.067-.978 2.065-2.05-.001-1.143-.907-2.093-2.06-2.095-1.133-.002-2.059.94-2.069 2.072-.01 1.113 1.002 2.221 2.064 2.073zM138.751 56.77v5.667c-.654 0-1.277.006-1.9-.011-.048-.002-.128-.159-.132-.247-.017-.329-.008-.659-.008-.988 0-1.88.009-3.76-.008-5.639-.003-.36.112-.448.455-.446 2.023.015 4.046.007 6.069.008.475 0 .505.029.505.492v6.37c0 .454-.015.467-.475.469h-1.163c-.456-.003-.477-.023-.477-.474l-.001-4.723c0-.476-.002-.477-.484-.477h-2.381zM78.84 17.649c.008.184.02.316.02.448.001 2.147-.009 4.295.01 6.442.004.384-.118.487-.476.462-.397-.029-.8-.02-1.198-.003-.27.012-.355-.084-.353-.357.01-1.586.005-3.172.004-4.758 0-.536-.057-.594-.578-.596-.436 0-.872-.002-1.308 0-.458.003-.533.076-.54.525-.006.366-.032.733-.012 1.097.047.875-.12 1.725-.418 2.523-.323.864-.915 1.493-1.93 1.577-.308.025-.595.076-.906-.01-.218-.06-.307-.154-.303-.372a25.8 25.8 0 0 0 0-.952c-.004-.23.097-.321.326-.335.629-.038.902-.389 1.051-.99.334-1.346.174-2.709.228-4.064.024-.592.176-.649.628-.644 1.768.018 3.536.007 5.304.007h.45zM99.915 36.37v2.538c.441-.441.817-.813 1.189-1.189.399-.403.792-.812 1.196-1.21a.452.452 0 0 1 .274-.133c.666-.012 1.332-.008 1.998-.004.055 0 .109.03.222.066l-3.048 3.248c1.213 1.333 2.394 2.63 3.62 3.98-.167.018-.29.042-.414.043-.581.004-1.163-.01-1.744.007-.314.01-.528-.096-.739-.34-.506-.586-1.052-1.137-1.577-1.707-.298-.325-.585-.659-.948-1.068-.02.224-.043.359-.044.494-.003.757-.013 1.514.005 2.27.007.282-.093.36-.356.35a25.754 25.754 0 0 0-1.417-.002c-.258.006-.375-.089-.374-.361.005-2.209.003-4.418.002-6.627 0-.19.045-.351.27-.354.604-.005 1.207-.001 1.885-.001zM19.584 10.114c-1.314.041-2.186-.607-2.733-1.665-.28-.543-.4-1.204-.24-1.825.143-.56.382-1.102.836-1.501.216-.19.207-.317.008-.556-.623-.75-.843-1.585-.534-2.575a2.971 2.971 0 0 1 1.095-1.54c.164-.125.35-.249.545-.302.818-.223 1.667-.234 2.382.22.503.32.924.78 1.14 1.438.176.54.18 1.058.129 1.571-.047.46-.302.893-.65 1.232-.19.183-.182.32.016.504.754.696.997 1.596.849 2.575a2.758 2.758 0 0 1-1.033 1.781c-.552.44-1.162.677-1.81.643zm-.042-1.416c.857.087 1.57-.784 1.541-1.595-.034-.965-.68-1.534-1.593-1.553-.73-.015-1.645.782-1.53 1.746.092.783.734 1.42 1.582 1.402zm.009-4.467c.788.09 1.374-.63 1.352-1.404-.03-1.011-.655-1.461-1.39-1.451-.721.01-1.382.475-1.374 1.486.006.819.605 1.462 1.412 1.369zM167.492 24.994V17.66c.624 0 1.236-.009 1.846.014.058.002.154.193.157.299.016.56.008 1.122.008 1.684v.394l.096.082c.129-.083.276-.147.383-.252.31-.306.606-.626.904-.945.342-.368.678-.742 1.022-1.108.062-.066.147-.154.223-.155.781-.011 1.563-.007 2.45-.007-.693.717-1.31 1.354-1.925 1.993-.336.35-.665.706-1.004 1.051-.171.175-.162.306.008.489.719.774 1.425 1.562 2.131 2.349.393.437.778.882 1.227 1.392-.19.025-.309.052-.428.053-.485.005-.975-.043-1.452.015-.532.064-.884-.156-1.211-.53-.64-.733-1.295-1.453-1.948-2.174-.109-.12-.242-.219-.43-.385-.02.217-.044.355-.045.492-.003.744-.011 1.489.004 2.233.005.275-.093.363-.358.356-.551-.015-1.103-.005-1.658-.005zM158.001 17.75c-.122.155-.231.323-.366.464-.79.822-1.582 1.643-2.383 2.454-.202.203-.222.375-.029.584.592.637 1.184 1.273 1.769 1.917.514.566 1.018 1.141 1.578 1.77-.175.023-.296.052-.418.053-.533.005-1.068-.03-1.598.012-.436.034-.721-.152-.989-.453-.545-.612-1.103-1.211-1.653-1.819-.235-.26-.462-.526-.751-.856-.031.224-.068.372-.07.52-.006.745-.011 1.49.002 2.234.004.26-.06.38-.343.369a21.619 21.619 0 0 0-1.345-.003c-.223.005-.331-.06-.331-.309.006-2.246.005-4.492.001-6.738 0-.219.08-.306.299-.302.461.01.921.013 1.381-.001.25-.008.344.077.338.335a48.784 48.784 0 0 0-.001 1.794c.001.139.035.276.061.467.76-.804 1.474-1.557 2.183-2.314.179-.191.369-.296.648-.286.65.023 1.301.007 1.952.007l.065.1zM111.873 62.445c-.007-.172-.017-.291-.017-.41-.001-2.173.006-4.345-.008-6.518-.002-.325.088-.428.407-.41.422.026.848.02 1.271.002.265-.01.37.073.358.352-.019.45.012.904-.011 1.354-.016.302.11.385.38.376.327-.012.656-.028.981.003.524.05 1.081.042 1.56.228.725.283 1.35.71 1.569 1.593.095.385.207.766.134 1.129-.163.807-.479 1.531-1.292 1.937-.567.282-1.148.371-1.766.366-1.174-.009-2.348-.002-3.566-.002zm2.007-2.647c0 .232.009.464-.003.694-.013.25.091.357.337.352.423-.007.847-.017 1.269 0 .36.015.872-.443.987-.825.1-.337-.098-.725-.478-1.04-.344-.284-.732-.188-1.106-.192-1.007-.013-1.007-.005-1.006 1.011zM24.491 7.88h1.334c.186.523.581.82 1.135.817.473-.003.927-.025 1.217-.468.363-.557.369-1.186.293-1.816-.006-.045-.23-.109-.337-.087-.776.16-1.553.39-2.335.08-.67-.267-1.136-.776-1.294-1.477a6.751 6.751 0 0 1-.168-1.728c.029-.75.087-1.538.574-2.15.379-.477.865-.844 1.514-.962.46-.084.886-.101 1.346 0a2.438 2.438 0 0 1 1.521.999c.362.51.474 1.09.462 1.723-.028 1.61-.023 3.222-.005 4.832.008.771-.345 1.337-.875 1.833-.69.647-1.548.778-2.4.585-.96-.216-1.644-.855-1.974-1.824a.485.485 0 0 1-.02-.144c-.001-.06.006-.12.012-.214zm1.128-4.553l.07.016c0 .195-.035.4.01.584.069.294.136.616.305.854.328.462 1.195.663 1.706.392.24-.127.499-.374.578-.622.14-.438.189-.917.204-1.382.024-.757-.168-1.367-.974-1.728-.553-.25-1.445.181-1.61.605-.157.403-.197.852-.289 1.28zM165.621 22.986v1.705c-.82.464-1.697.502-2.592.479-.782-.02-1.446-.276-2.087-.74-.552-.4-.961-.87-1.225-1.48-.382-.882-.43-1.778-.196-2.723.158-.639.453-1.178.907-1.608a4.341 4.341 0 0 1 1.776-1.02c.628-.187 1.248-.176 1.864-.123.464.04.917.243 1.366.4.083.028.168.181.173.281.02.402.01.805.008 1.208-.001.242-.094.296-.321.191a3.582 3.582 0 0 0-2.264-.246c-.663.143-1.161.58-1.486 1.259-.457.956.148 2.298 1.153 2.626.771.253 1.521.235 2.281.008.198-.059.393-.132.643-.217zM132.687 19.67c-1.115-.577-2.951-.67-3.71.421-.173.25-.306.57-.332.87-.039.457-.109.937.183 1.371.361.539.831.923 1.471 1.003.464.058.946.052 1.411-.006.368-.045.721-.212 1.124-.339 0 .534.042 1.1-.03 1.65-.018.135-.405.232-.63.327-.621.262-1.28.217-1.927.192-1.444-.056-2.541-.687-3.265-1.987-.526-.944-.516-1.967-.318-2.924.235-1.14 1.014-1.952 2.118-2.442.853-.378 1.728-.407 2.612-.328.403.035.791.24 1.183.375.046.016.105.084.106.13.007.54.004 1.083.004 1.688zM95.85 38.369c-.896-.444-1.786-.53-2.632-.312-.895.23-1.555.975-1.477 2.186.07 1.075 1.068 1.821 1.974 1.849.685.02 1.37.038 2-.324.038-.022.238.11.242.177.022.401.024.806.003 1.207-.023.44-.434.426-.707.54-.652.269-1.35.268-2.033.203-1.423-.136-2.547-.823-3.157-2.134-.32-.69-.4-1.458-.317-2.277.117-1.149.652-1.98 1.514-2.606.718-.521 1.568-.743 2.48-.704.678.03 1.343.062 1.953.398.063.035.15.107.15.163.012.523.007 1.045.007 1.634zM32.704 10.095l3.21-8.533h-2.543v1.384c-.409 0-.77.017-1.126-.012-.081-.007-.212-.17-.214-.263-.018-.744-.009-1.488-.011-2.232-.002-.29.175-.33.409-.33 1.21.005 2.422.002 3.632.002.351 0 .703.008 1.054-.002.207-.006.314.053.314.284 0 .72.007 1.416-.367 2.096-.313.569-.444 1.237-.675 1.853-.171.459-.382.902-.56 1.358-.154.4-.285.808-.43 1.211-.163.457-.326.914-.497 1.368-.171.455-.363.902-.524 1.36-.101.286-.22.491-.578.461-.332-.027-.668-.005-1.094-.005zM62.522 62.444c-.009-.175-.022-.318-.022-.461-.001-1.587-.01-3.174.006-4.76.003-.34-.078-.484-.443-.46-.483.03-.97-.007-1.453.012-.277.011-.362-.092-.347-.36.02-.34.012-.683.003-1.025-.006-.205.077-.279.278-.278 2.035.004 4.07.005 6.106-.002.23 0 .293.098.287.308-.008.354-.01.708.001 1.062.008.226-.085.297-.301.293-.545-.01-1.09-.005-1.635-.002-.437.002-.48.045-.48.481-.003 1.575-.002 3.15-.002 4.723 0 .468-.001.469-.481.47h-1.517zM168.067 62.443c-.635 0-1.214.011-1.791-.013-.076-.003-.202-.184-.205-.285-.019-.658-.01-1.317-.011-1.976 0-1-.008-2 .004-3.001.004-.3-.103-.411-.401-.401-.509.017-1.018-.01-1.526.01-.339.013-.458-.129-.44-.454.016-.292.003-.586.007-.879.003-.221.111-.33.34-.33 2.01.002 4.02.003 6.031 0 .247-.001.354.114.354.353-.001.305-.008.61.003.915.01.282-.112.397-.39.392-.52-.01-1.042.011-1.562-.008-.316-.011-.421.101-.418.421.012 1.586.005 3.172.005 4.758v.498zM140.533 17.7v1.586h-1.55c-.827 0-.827 0-.827.822 0 1.49-.008 2.98.006 4.469.002.315-.085.437-.411.422-.518-.023-1.038-.006-1.617-.006v-.457c0-1.6-.009-3.199.007-4.798.003-.346-.09-.48-.447-.46-.496.029-.994-.003-1.49.012-.258.008-.343-.092-.332-.343.015-.34-.013-.685.016-1.024.009-.097.153-.26.236-.261 2.096-.012 4.193-.007 6.289-.003.033 0 .066.022.12.04zM88.98 62.42h-2.001c-.007-.152-.018-.283-.018-.414 0-2.147.006-4.295-.008-6.442-.002-.34.07-.464.435-.46 1.622.02 3.245.016 4.868.003.296-.002.418.08.392.39a5.068 5.068 0 0 0 0 .842c.028.327-.074.447-.419.439-.944-.023-1.89.008-2.833-.016-.347-.009-.425.116-.422.439.013 1.586.006 3.172.006 4.758v.461zM12.64 1.664c-.41.287-.818.575-1.287.905 0-.484-.082-.948.03-1.36.07-.259.427-.442.661-.652.087-.078.2-.127.287-.204.48-.422 1.049-.195 1.582-.217.048-.002.115.11.15.181.025.05.016.12.016.18 0 3.075-.001 6.15.003 9.225 0 .263-.102.365-.365.376-.975.037-.975.044-.975-.93v-6.99-.43l-.102-.084zM121.368 58.801c0 1.098-.008 2.197.005 3.295.004.271-.076.368-.349.354-.423-.02-.848-.012-1.272-.003-.269.006-.394-.087-.393-.381.009-2.185.007-4.37.002-6.554 0-.282.117-.402.391-.399.424.005.849.015 1.272-.004.275-.012.352.091.349.36-.012 1.11-.005 2.221-.005 3.332zM116.91 32.931c.423 0 .803-.037 1.17.018.151.023.323.217.401.376.223.453.705.841 1.067.753.499-.121 1.029-.352 1.028-1.021 0-.023.015-.046.033-.097h1.537c.039.824-.259 1.515-.895 1.977-1.065.773-2.274.738-3.268.144-.751-.45-1.16-1.171-1.073-2.15zM187.436 14.261c.145 0 .295-.024.434.006.202.044.379.086.443.375.158.715 1.082.966 1.653.472.134-.116.298-.248.345-.404.115-.381.357-.489.712-.457.096.01.194.002.29.002.648 0 .785.137.587.75-.271.835-.808 1.396-1.697 1.654a2.966 2.966 0 0 1-1.872-.047c-.704-.248-1.26-.68-1.454-1.462-.029-.114-.103-.215-.146-.327-.14-.37-.014-.559.378-.568.109-.002.218 0 .327 0v.006zM125.967 51.678c.155.681.598 1.031 1.184 1.054.691.026 1.004-.429 1.115-1.054h1.526c-.021 1.298-.775 2.257-1.833 2.398-1.896.252-3.227-.153-3.439-2.398h1.447z" fill="#183C67"/><path d="M11.11 21.476c-1.66 0-3.32-.009-4.98.008-.353.003-.456-.107-.45-.458.019-1.196.017-2.393 0-3.589-.004-.325.103-.417.418-.416 3.345.01 6.69.01 10.034 0 .338-.002.433.105.428.44a132.798 132.798 0 0 0 0 3.625c.003.308-.099.398-.396.396-1.685-.011-3.37-.006-5.054-.006zM24.433 21.477c-1.647 0-3.293-.009-4.94.007-.354.003-.459-.118-.454-.464.017-1.183.014-2.366.002-3.55-.004-.322.085-.45.43-.45 3.33.012 6.66.012 9.99 0 .346 0 .431.123.428.447-.015 1.196-.017 2.392 0 3.587.006.348-.121.431-.443.429-1.67-.013-3.342-.006-5.013-.006zM24.475 28.435c-1.659 0-3.318-.008-4.976.007-.347.003-.465-.106-.46-.459.017-1.183.014-2.366.002-3.55-.004-.318.075-.452.426-.45 3.341.011 6.683.01 10.025.001.3 0 .4.097.396.4a174.35 174.35 0 0 0 0 3.658c.003.306-.103.4-.4.398-1.671-.01-3.342-.005-5.013-.005z" fill="#00A2E6"/><path d="M11.108 28.435c-1.659 0-3.318-.008-4.976.007-.347.003-.465-.106-.46-.459.017-1.183.014-2.366.001-3.55-.003-.318.076-.452.427-.45 3.341.011 6.683.01 10.025.001.3 0 .4.097.396.4-.012 1.219-.013 2.439 0 3.658.003.306-.103.4-.4.398-1.672-.01-3.342-.005-5.013-.005z" fill="#E55737"/><path d="M37.718 23.99c1.635 0 3.27.008 4.904-.006.33-.004.445.1.44.436-.014 1.195-.015 2.39 0 3.586.005.34-.119.436-.445.435-3.28-.01-6.562-.01-9.843 0-.32.001-.418-.103-.414-.421.015-1.207.016-2.415 0-3.622-.005-.326.105-.417.419-.414 1.646.013 3.293.006 4.94.006z" fill="#00A2E6"/><path d="M37.718 17.004c1.635 0 3.27.007 4.904-.007.33-.003.445.1.44.437-.014 1.195-.015 2.39 0 3.586.005.34-.119.436-.445.435-3.28-.01-6.562-.01-9.843 0-.32 0-.418-.104-.414-.421.015-1.208.016-2.415 0-3.623-.005-.326.105-.416.419-.413 1.646.012 3.293.006 4.94.006z" fill="#E55737"/><path d="M11.122 30.935c1.658 0 3.317.01 4.975-.008.37-.004.483.107.468.478-.029.67-.003 1.34-.012 2.012-.006.472-.038.463-.493.512-.883.095-1.762.227-2.643.343-.024.003-.047.009-.071.011-.923.083-1.848.145-2.768.253-.741.088-1.476.232-2.214.351-.035.006-.07.017-.107.02-.718.07-1.437.133-2.155.209-.32.034-.422-.091-.418-.413.016-1.121.018-2.244 0-3.365-.005-.335.124-.41.427-.408 1.67.01 3.34.005 5.011.005zM37.712 30.936c1.622 0 3.245.009 4.868-.007.36-.004.49.1.484.476-.02 1.097-.016 2.196-.003 3.294.004.318-.108.457-.423.414l-2.532-.338c-.036-.005-.071-.017-.107-.02-.87-.082-1.74-.147-2.608-.248-.726-.084-1.446-.21-2.17-.316-.167-.024-.336-.037-.505-.055-.694-.072-1.387-.152-2.082-.211-.205-.018-.27-.106-.27-.298.005-.793.01-1.586 0-2.38-.005-.314.188-.313.407-.312 1.647.002 3.294 0 4.94 0z" fill="#00A2E6"/><path d="M24.436 30.919h4.942c.511 0 .513.002.514.5.001.585-.007 1.17.002 1.756.004.253-.097.366-.346.337-.99-.115-1.982-.232-2.973-.346-.168-.02-.338-.021-.506-.043-.44-.06-.877-.15-1.319-.179-.306-.02-.618.032-.927.065-.155.017-.305.076-.46.092-.839.085-1.678.159-2.517.243a43.31 43.31 0 0 0-1.433.166c-.347.046-.445-.111-.435-.437.017-.573.02-1.147 0-1.72-.013-.34.115-.442.443-.44 1.672.013 3.343.006 5.015.006z" fill="#F1B14B"/></svg>