<svg width="242" height="31" viewBox="0 0 242 31" fill="none" xmlns="http://www.w3.org/2000/svg"><path d="M62.886 7.678c.586 0 1.123.097 1.612.291.488.194.927.437 1.318.825.39.389.683.728.879 1.214.195.485.293 1.019.293 1.601 0 .583-.098 1.117-.293 1.553a3.583 3.583 0 0 1-.83 1.214c-.39.34-.83.63-1.319.825-.488.194-1.074.291-1.66.291h-1.318v4.757h-2.295V7.629l3.613.049zm-1.318 5.339h1.66c.39 0 .733-.146 1.026-.388.292-.243.439-.631.439-1.068a1.56 1.56 0 0 0-.39-1.02c-.245-.29-.635-.436-1.075-.436h-1.66v2.912zM74.412 7.338c.878 0 1.708.146 2.49.485.78.34 1.464.777 2.05 1.36a6.657 6.657 0 0 1 1.416 2.038c.342.825.537 1.698.537 2.62 0 .923-.195 1.796-.537 2.573a6.657 6.657 0 0 1-1.416 2.039c-.586.582-1.27 1.019-2.05 1.359-.782.34-1.612.485-2.49.485-.88 0-1.71-.194-2.49-.485-.782-.34-1.465-.777-2.051-1.36a6.655 6.655 0 0 1-1.416-2.038 6.385 6.385 0 0 1-.537-2.572c0-.923.195-1.796.537-2.573a6.655 6.655 0 0 1 1.416-2.038c.586-.583 1.27-1.02 2.05-1.36a8.433 8.433 0 0 1 2.49-.533zm0 2.572c-.586 0-1.123.097-1.612.291a4.637 4.637 0 0 0-1.318.826c-.39.34-.683.776-.879 1.262-.195.485-.293 1.019-.293 1.65 0 .63.098 1.165.293 1.65.196.485.489.922.88 1.262.39.34.83.63 1.317.825a4.51 4.51 0 0 0 1.612.291c.585 0 1.123-.097 1.61-.291a4.632 4.632 0 0 0 1.32-.825c.39-.34.683-.777.878-1.262.195-.485.293-1.068.293-1.65 0-.631-.098-1.165-.293-1.65a3.285 3.285 0 0 0-.879-1.262c-.39-.34-.83-.631-1.318-.825a4.512 4.512 0 0 0-1.611-.292zM93.16 18.26c-.196.29-.44.63-.733.873-.293.242-.635.534-1.074.728-.39.194-.88.388-1.367.485a8.276 8.276 0 0 1-1.612.146c-.83 0-1.66-.146-2.44-.486a5.696 5.696 0 0 1-2.051-1.31 6.656 6.656 0 0 1-1.416-2.039 6.859 6.859 0 0 1-.537-2.669c0-.97.195-1.844.537-2.67a5.664 5.664 0 0 1 1.416-2.038 5.696 5.696 0 0 1 2.05-1.31c.781-.292 1.563-.486 2.441-.486.586 0 1.075.049 1.563.194.488.146.928.292 1.367.486.39.194.732.437 1.074.68.293.242.537.533.732.824l-.732 2.039c-.195-.243-.39-.437-.635-.68a6.86 6.86 0 0 0-.878-.582c-.342-.146-.684-.291-1.075-.388a4.946 4.946 0 0 0-1.22-.146c-.635 0-1.172.097-1.71.291-.536.194-.975.437-1.317.825-.342.389-.684.777-.88 1.262-.194.486-.292 1.068-.292 1.699s.098 1.165.293 1.699c.195.485.488.922.879 1.262.39.34.83.63 1.367.825a5.056 5.056 0 0 0 1.709.291c.439 0 .878-.049 1.269-.146.39-.097.781-.242 1.123-.436.342-.195.635-.389.879-.583.244-.194.44-.437.635-.68l.732 2.088-.098-.049zM103.755 7.63v2.426h-3.711v10.096H97.75V10.105h-3.71V7.678h9.715v-.049zM112.052 7.63v2.475h-4.638v2.378h4.15v2.475h-4.15v2.718h4.638v2.476h-6.982V7.629h6.982zM231.431 20.2h-2.295V10.154h-3.418l-.049 1.019c-.048 1.456-.146 2.766-.341 3.883-.196 1.116-.44 2.087-.733 2.863-.293.777-.732 1.36-1.171 1.747-.44.389-1.026.583-1.709.583-.196 0-.391 0-.537-.049a3.392 3.392 0 0 1-.391-.145l-.439-2.039c.341 0 .683-.097.976-.194.293-.097.586-.291.781-.582.196-.291.44-.631.586-1.068.147-.437.293-1.02.44-1.699.146-.68.195-1.505.244-2.475.049-.97.097-2.087.097-3.398V7.581h7.91l.049 12.62zM237.582 20.2h-3.613V7.63h2.294v4.756h1.319c.586 0 1.123.097 1.66.291.488.194.927.437 1.318.825.391.389.635.728.83 1.214.195.485.293 1.019.293 1.553 0 .582-.098 1.116-.293 1.602a3.11 3.11 0 0 1-.879 1.213c-.39.34-.83.63-1.318.825-.488.194-1.025.243-1.611.291zm-1.319-2.475h1.661a1.44 1.44 0 0 0 1.074-.437c.293-.291.39-.63.39-1.02 0-.436-.146-.776-.439-1.067-.293-.291-.635-.388-1.025-.388h-1.661v2.912z" fill="#262626"/><path fill-rule="evenodd" clip-rule="evenodd" d="M19.633 30.15l16.6-28.636 16.65 28.637h-33.25z" fill="#262626"/><path fill-rule="evenodd" clip-rule="evenodd" d="M33.69.35L17.043 28.984.442.35H33.69z" fill="#5497D3"/><path d="M117.812 7.678a4.32 4.32 0 0 1 1.611.291c.489.194.928.437 1.319.825.39.389.683.728.879 1.214.195.485.292 1.019.292 1.601 0 .583-.097 1.117-.292 1.553a3.592 3.592 0 0 1-.831 1.214c-.39.34-.83.63-1.318.825-.488.194-1.074.291-1.66.291h-1.318v4.757h-2.295V7.629l3.613.049zm-1.318 5.339h1.66a1.58 1.58 0 0 0 1.025-.388c.293-.243.44-.631.44-1.068 0-.388-.147-.728-.391-1.02-.244-.29-.635-.436-1.074-.436h-1.66v2.912zM135.782 7.63l1.709 12.522h-2.344l-1.074-8.057-2.929 8.057h-2.148l-2.93-8.057-1.074 8.057h-2.441l1.709-12.523h2.392l3.369 8.931 3.369-8.93h2.392zM147.546 20.2v-8.493l-5.956 8.445h-2.344V7.629h2.295v8.494l5.956-8.494h2.295v12.523h-2.246v.048zM154.678 7.63v4.853h5.858V7.629h2.295v12.523h-2.295v-5.194h-5.858v5.194h-2.295V7.629h2.295zM173.911 20.2l-1.025-2.572h-5.273l-1.025 2.572h-2.49l4.98-12.522h2.246l4.98 12.522h-2.393zm-2.001-5l-1.661-4.222-1.708 4.223h3.369zM187.681 20.2h-2.295V10.154h-3.418l-.048 1.019c-.049 1.456-.147 2.766-.342 3.883-.196 1.116-.44 2.087-.733 2.863-.293.777-.732 1.36-1.171 1.747-.489.389-1.026.583-1.709.583-.196 0-.391 0-.537-.049a3.392 3.392 0 0 1-.391-.145l-.439-2.039c.341 0 .683-.097.976-.194.293-.097.586-.291.781-.582.196-.291.44-.631.586-1.068.147-.437.293-1.02.44-1.699.146-.68.195-1.505.244-2.475.049-.97.097-2.087.097-3.398V7.581h7.91l.049 12.62zM191.59 7.63l2.539 5.63 2.245-5.63h2.49l-5.028 12.522h-2.49l1.611-4.029-3.809-8.494h2.442zM206.626 7.63v2.475h-4.003v10.047h-2.295V7.629h6.298zM213.755 7.338c.879 0 1.709.146 2.49.485.782.34 1.465.777 2.051 1.36a6.658 6.658 0 0 1 1.416 2.038c.342.825.537 1.698.537 2.62a6.38 6.38 0 0 1-.537 2.573 6.657 6.657 0 0 1-1.416 2.039c-.586.582-1.269 1.019-2.051 1.359-.781.34-1.611.485-2.49.485-.878 0-1.709-.194-2.49-.485-.781-.34-1.464-.777-2.05-1.36a6.657 6.657 0 0 1-1.416-2.038 6.38 6.38 0 0 1-.537-2.572c0-.923.195-1.796.537-2.573a6.657 6.657 0 0 1 1.416-2.038c.586-.583 1.269-1.02 2.05-1.36a8.438 8.438 0 0 1 2.49-.533zm0 2.572c-.586 0-1.123.097-1.611.291a4.63 4.63 0 0 0-1.318.826c-.391.34-.684.776-.879 1.262-.195.485-.293 1.019-.293 1.65 0 .63.098 1.165.293 1.65.195.485.488.922.879 1.262.39.34.83.63 1.318.825a4.508 4.508 0 0 0 1.611.291c.586 0 1.123-.097 1.612-.291a4.64 4.64 0 0 0 1.318-.825c.39-.34.683-.777.879-1.262.195-.485.293-1.068.293-1.65 0-.631-.098-1.165-.293-1.65a3.298 3.298 0 0 0-.879-1.262c-.391-.34-.83-.631-1.318-.825a4.52 4.52 0 0 0-1.612-.292z" fill="#262626"/></svg>