<svg width="64" height="66" viewBox="0 0 64 66" fill="none" xmlns="http://www.w3.org/2000/svg"><path d="M.395 37.88c.043-.214.089-.38.107-.548.02-.182.032-.368.015-.548-.059-.6-.178-1.197-.19-1.797-.03-1.374-.029-2.75-.002-4.123.01-.526.125-1.049.19-1.574.013-.1.01-.202.023-.302.062-.44.124-.882.192-1.322.077-.502.16-1.003.24-1.504.01-.064.009-.13.026-.19.134-.462.266-.924.408-1.383.263-.855.492-1.724.811-2.558a42.284 42.284 0 0 1 1.381-3.224c.427-.887.923-1.743 1.438-2.582a49.724 49.724 0 0 1 1.734-2.598 14.32 14.32 0 0 1 1.079-1.318 84.18 84.18 0 0 1 1.975-2.116c.486-.503.982-1 1.504-1.464.436-.388.917-.726 1.38-1.083.475-.368.939-.754 1.434-1.094.645-.444 1.3-.882 1.981-1.267a42.763 42.763 0 0 1 2.84-1.482c.832-.39 1.697-.713 2.558-1.038.715-.27 1.44-.513 2.17-.74.458-.142.933-.233 1.401-.346.44-.106.88-.215 1.322-.315a7.2 7.2 0 0 1 .643-.119c.342-.046.687-.07 1.028-.12.405-.058.806-.135 1.209-.203.045-.008.09-.017.136-.018 1.129-.035 2.257-.073 3.385-.102.432-.01.866-.017 1.298.001.493.02.986.058 1.477.11a30 30 0 0 1 1.667.219c.517.084 1.028.2 1.54.305.347.072.695.137 1.035.233.18.052.35.153.512.25.184.11.262.27.261.503-.008 4.252-.006 8.504-.006 12.756v.354c-.382-.18-.706-.357-1.048-.486a29.23 29.23 0 0 0-1.802-.619 24.1 24.1 0 0 0-1.63-.418c-.292-.067-.592-.094-.89-.137l-1.372-.2c-.064-.009-.128-.025-.192-.025-.782.001-1.566-.019-2.347.017-.47.02-.938.128-1.407.198-.441.065-.887.114-1.323.204-.46.095-.915.222-1.367.352-.532.153-1.063.316-1.588.491-.98.328-1.909.775-2.787 1.316-.669.41-1.31.865-1.96 1.306-1.253.848-2.236 1.991-3.273 3.068-.535.555-.955 1.225-1.393 1.866-.245.36-.423.766-.628 1.152a.445.445 0 0 0-.047.157c-.037.338.006.387.344.387 5.524 0 11.048.004 16.572-.004.584 0 1.177-.017 1.75-.12 1.009-.183 2.011-.412 2.967-.81a12.469 12.469 0 0 0 3.927-2.573 12.35 12.35 0 0 0 2.564-3.59c.279-.591.46-1.23.657-1.857.16-.508.308-1.025.408-1.549a7.63 7.63 0 0 0 .14-1.392c.013-2.776.007-5.552.007-8.328 0-.139.01-.278-.003-.415-.02-.233.056-.34.308-.322.247.019.497.003.746.003h16.6c.082 0 .165.005.248.002.171-.005.257.075.257.247l.003.609c0 2.232.011 4.464-.005 6.696a50.243 50.243 0 0 1-.116 2.885 25.678 25.678 0 0 1-.222 1.928 31.51 31.51 0 0 1-.316 1.883c-.11.543-.258 1.078-.402 1.613a62.31 62.31 0 0 1-.575 2.047c-.14.46-.31.91-.485 1.358-.215.551-.437 1.1-.676 1.64a26.397 26.397 0 0 1-.739 1.553c-.334.64-.676 1.276-1.052 1.89a31.502 31.502 0 0 1-1.166 1.732c-.38.538-.767 1.071-1.179 1.584-.483.6-.966 1.208-1.509 1.754-.329.33-.332.826.004 1.181.725.765 1.444 1.547 2.064 2.397a40.208 40.208 0 0 1 2.274 3.464c.622 1.067 1.156 2.19 1.66 3.32.398.889.7 1.822 1.026 2.742.193.547.37 1.1.515 1.661.144.554.243 1.12.357 1.681.108.534.225 1.067.31 1.605.063.386.084.78.114 1.17.043.548.109 1.096.11 1.644.012 3.274.006 6.548.014 9.822 0 .254-.055.35-.335.349-5.643-.009-11.287-.007-16.93-.007-.139 0-.277.002-.415-.004-.175-.008-.272-.098-.273-.28l.002-.359c0-2.62.012-5.239-.01-7.858-.006-.607-.122-1.214-.204-1.819-.056-.414-.145-.824-.214-1.237a7.52 7.52 0 0 0-.686-2.125c-.363-.73-.739-1.46-1.195-2.132-.772-1.137-1.674-2.174-2.827-2.943-.733-.489-1.487-.96-2.278-1.345-.722-.35-1.497-.605-2.267-.837a6.27 6.27 0 0 0-1.837-.255c-5.81.015-11.619.008-17.428.009-.557 0-.605.042-.393.556.162.392.39.762.622 1.119.239.367.52.707.782 1.059.17.227.316.477.51.678.76.784 1.531 1.557 2.306 2.326.837.832 1.898 1.336 2.884 1.952 1.195.747 2.501 1.25 3.824 1.701.635.217 1.307.329 1.966.47.535.114 1.076.2 1.614.299.027.005.055.012.082.014.815.043 1.63.127 2.444.116.73-.011 1.461-.098 2.184-.205.799-.118 1.602-.248 2.379-.463.88-.244 1.732-.591 2.597-.89.585-.201.655-.4.652.424-.015 4.094-.022 8.19-.032 12.284 0 .157-.011.314-.006.47.013.459.01.47-.424.57-.511.117-1.023.234-1.536.337-.26.052-.524.08-.787.107-.417.045-.836.072-1.252.124-.406.052-.81.126-1.215.19-.054.009-.108.024-.163.025-1.46.036-2.92.094-4.38.093-.574 0-1.149-.183-1.725-.19-.99-.013-1.896-.402-2.85-.576-.845-.154-1.67-.433-2.496-.684-.553-.168-1.09-.383-1.636-.575-.422-.148-.854-.274-1.267-.444-.604-.25-1.2-.522-1.791-.802-.67-.317-1.343-.628-1.99-.987a22.795 22.795 0 0 1-1.967-1.212c-1-.697-1.973-1.43-2.95-2.16-1.28-.957-2.363-2.126-3.46-3.276-.545-.57-1.03-1.198-1.516-1.82-.569-.726-1.136-1.456-1.652-2.22-.388-.573-.708-1.195-1.035-1.808-.468-.88-.947-1.757-1.363-2.662-.382-.83-.703-1.69-1.022-2.549a27.005 27.005 0 0 1-.649-1.99c-.146-.515-.239-1.046-.352-1.572-.108-.505-.22-1.011-.314-1.52-.032-.17-.015-.349-.019-.524-.004-.198-.033-.379-.356-.376zm25.916-2.568c7.144 0 14.287-.005 21.43.011.472.001.826-.161 1.117-.474.43-.462.817-.965 1.235-1.439.974-1.101 1.958-2.194 2.932-3.295.136-.155.253-.333.353-.515.148-.271.003-.513-.311-.545-.083-.009-.166-.004-.249-.004h-5.8c-.804-.001-.73.065-.731-.727-.001-2.582-.001-5.164.003-7.746 0-.158-.017-.28-.2-.293-.343-.026-.69-.076-1.03-.057-.218.013-.332.163-.331.435.013 2.757.008 5.514.008 8.272 0 .385-.06.44-.455.44-.69-.002-1.38-.004-2.071 0-.135.002-.289-.001-.402.058-.38.2-.744.43-1.116.644-.293.168-.587.334-.885.494-.168.09-.343.167-.516.246-.302.14-.606.396-.91.398-6.47.022-12.942.016-19.414.016-.45 0-.457 0-.458-.45-.003-1.733-.001-3.467-.001-5.2 0-.433-.232-.673-.658-.673l-5.137-.004c-.553 0-.57.009-.773.54-.149.391-.28.789-.418 1.185-.065.188-.204.24-.389.237a35.37 35.37 0 0 0-1.104-.001.479.479 0 0 0-.485.462c-.01.415-.016.83 0 1.245.02.455.201.614.646.614.267 0 .536-.021.8.008.172.02.372.075.488.188.057.056-.015.3-.092.418-.052.08-.215.12-.329.12-1.086.008-2.172-.002-3.258.009-.281.003-.563.053-.84.105-.054.01-.12.128-.125.2-.015.256-.005.515-.007.773-.003.395-.052.445-.45.445-.948.001-1.896-.003-2.844 0-.503.001-.715.304-.541.759.12.316.241.632.367.947.21.526.421 1.052.637 1.576.173.417.438.593.94.592 7.124-.021 14.25-.014 21.374-.014z" fill="#4E5C9D"/></svg>