<svg width="101" height="70" viewBox="0 0 101 70" fill="none" xmlns="http://www.w3.org/2000/svg"><path d="M76.683 13.101c7.03-3.198 12.78.64 15.976 1.92 0-3.412-2.173-10.62-10.864-12.156C73.105 1.329 23.644 38.908 0 57.888 23.431 43.6 69.654 16.3 76.683 13.102z" fill="#000"/><ellipse cx="82.604" cy="8.035" rx="4.229" ry="8.035" fill="#000"/><ellipse cx="83.121" cy="7.989" rx="3.148" ry="6.39" fill="#fff"/><path d="M100.318 24.903c-.263 2.481-1.833 22.836-2.584 32.703H1.598l61.694-32.703c2.459-1.269 7.997-3.533 10.478-2.443 2.481 1.09 4.135 4.495 4.652 6.061 3.101-1.958 10.337-6.183 14.472-7.424 5.168-1.55 7.753.705 7.424 3.806z" fill="#6AC439"/><path d="M73.817 30.542c1.429 3.796 6.453 19.562 8.787 26.97H4.793c16.9-8.395 52.184-26.05 58.123-29.507 7.424-4.323 9.116-2.209 10.901 2.537z" fill="#000"/><ellipse cx="66.159" cy="44.921" rx="6.014" ry="11.371" fill="#6AC439"/><ellipse cx="50.934" cy="46.847" rx="4.981" ry="9.444" fill="#6AC439"/><ellipse cx="39.231" cy="49.947" rx="3.336" ry="6.343" fill="#6AC439"/><ellipse cx="29.603" cy="51.873" rx="2.349" ry="4.417" fill="#6AC439"/><ellipse cx="21.336" cy="53.142" rx="1.692" ry="3.148" fill="#6AC439"/><ellipse cx="67.047" cy="44.92" rx="5.122" ry="10.525" fill="#fff"/><ellipse cx="51.635" cy="46.846" rx="4.276" ry="8.787" fill="#fff"/><ellipse cx="39.655" cy="49.9" rx="2.913" ry="5.92" fill="#fff"/><ellipse cx="29.931" cy="51.827" rx="2.02" ry="4.088" fill="#fff"/><ellipse cx="21.57" cy="53.095" rx="1.457" ry="2.913" fill="#fff"/><path fill-rule="evenodd" clip-rule="evenodd" d="M85.797 57.465h9.585c.83-8.426 2.49-26.313 2.49-30.448 0-5.168-2.819-5.732-6.437-4.98-2.894.601-10.196 3.57-13.485 4.98-.564-1.19-2.04-3.853-3.43-4.98-1.739-1.41-4.887-1.41-7.706 0-2.82 1.41-33.173 16.633-37.684 19.123-3.609 1.993-19.265 11.7-26.642 16.305 7.941-4.37 25.58-13.965 32.61-17.385 3.416-1.663 8.423-4.248 13.48-6.86 7.95-4.105 16.025-8.275 18.236-9.022l.122-.041c3.574-1.208 7-2.366 9.463 4.928 1.992 5.901 7.095 21.379 9.398 28.38zm-7-28.193l5.78 17.997h9.303c.532-4.746 1.635-15.15 1.785-18.795.188-4.558-1.503-5.122-4.322-4.135-2.256.79-9.304 3.618-12.546 4.934z" fill="#000"/><path d="M5.38 61.885v1.275H3.654v6.663H2.148V63.16H.378v-1.275H5.38zM5.619 66.741v-.97h2.848v.97H5.619zM12.832 64.468v-.175c0-.496-.069-.843-.205-1.042-.136-.2-.365-.3-.687-.3-.324 0-.557.101-.7.303-.142.2-.212.547-.212 1.039v3.122c0 .506.069.862.206 1.068.14.204.372.306.696.306.311 0 .54-.104.684-.314.145-.21.217-.563.217-1.06v-.43h1.517v.363c0 .515-.073.97-.22 1.363-.147.394-.4.707-.76.94-.357.233-.834.349-1.428.349-.912 0-1.55-.24-1.91-.72-.362-.48-.543-1.125-.543-1.932v-2.88c0-.922.207-1.607.62-2.054.413-.45 1.032-.674 1.855-.674.5 0 .931.094 1.291.282.361.188.634.46.819.816.184.355.276.773.276 1.256v.374h-1.517zM15.333 69.823v-7.938h4.244v1.275H16.84v1.804h2.497v1.197h-2.497v2.451h2.738v1.21h-4.244zM20.52 69.823v-7.938h2.848c.417 0 .784.103 1.103.309.318.206.564.486.735.84.174.353.26.743.26 1.17 0 .437-.088.838-.265 1.203a2.11 2.11 0 0 1-.749.864c-.322.213-.692.32-1.109.32h-1.318v3.232H20.52zm2.265-6.762h-.76v2.354h.76c.753 0 1.13-.396 1.13-1.19 0-.776-.377-1.164-1.13-1.164zM27.91 63.018v2.088h.791c.623 0 .934-.36.934-1.079 0-.349-.07-.604-.209-.765-.138-.163-.372-.244-.703-.244h-.814zm0 5.672h.966c.288 0 .499-.096.633-.287.136-.192.204-.507.204-.945 0-.813-.279-1.219-.837-1.219h-.967v2.451zm1.527 1.133h-3.034v-7.938h2.782c.442 0 .81.088 1.103.263.295.176.51.41.647.703.137.292.206.615.206.97 0 .254-.044.509-.134.765-.088.254-.213.47-.376.647a1.01 1.01 0 0 1-.555.324c.399.161.694.394.886.698.193.303.29.707.29 1.214 0 .469-.069.88-.205 1.232a1.775 1.775 0 0 1-.609.827c-.272.196-.606.295-1.001.295zM37.259 69.823v-7.938h-1.627l-2.212 5.771c.041-.184.077-.427.108-.73.032-.304.055-.636.07-.996.014-.36.021-.715.021-1.065v-2.98h-1.417v7.938h1.626l2.21-5.76c-.131.626-.196 1.545-.196 2.759v3h1.417zM41.575 64.468v-.175c0-.496-.068-.843-.204-1.042-.136-.2-.365-.3-.687-.3-.324 0-.557.101-.7.303-.142.2-.212.547-.212 1.039v3.122c0 .506.068.862.206 1.068.14.204.371.306.695.306.312 0 .54-.104.685-.314.145-.21.217-.563.217-1.06v-.43h1.517v.363c0 .515-.073.97-.22 1.363-.147.394-.4.707-.76.94-.358.233-.834.349-1.428.349-.912 0-1.55-.24-1.911-.72-.362-.48-.542-1.125-.542-1.932v-2.88c0-.922.206-1.607.62-2.054.413-.45 1.031-.674 1.855-.674.5 0 .931.094 1.29.282.362.188.635.46.82.816.184.355.276.773.276 1.256v.374h-1.517zM47.454 61.885h4.596v7.938h-1.506v-6.74h-1.606v3.057c0 .898-.055 1.627-.166 2.188-.11.558-.288.97-.537 1.237-.249.267-.582.4-1.001.4-.363 0-.668-.033-.913-.1v-1.108c.111.036.273.054.486.054.13 0 .234-.032.309-.094.077-.063.14-.195.19-.397.052-.204.09-.513.113-.927.023-.413.035-.981.035-1.704v-3.804zM53.126 64.457v2.837c0 1.78.862 2.671 2.585 2.671.532 0 .986-.084 1.364-.252.377-.17.669-.453.875-.849.207-.395.311-.919.311-1.57v-2.837c0-.652-.104-1.179-.311-1.581a1.854 1.854 0 0 0-.878-.87c-.376-.177-.83-.266-1.361-.266-.524 0-.979.09-1.364.271-.384.18-.684.471-.899.875-.215.403-.322.926-.322 1.57zm1.538 3.025v-3.2c0-.887.35-1.331 1.047-1.331.324 0 .573.119.746.357.176.238.263.57.263.996v3.178c0 .413-.087.73-.26.948-.172.218-.422.327-.749.327-.698 0-1.047-.425-1.047-1.275zM59.378 61.885v7.938h1.508v-6.73h2.738v-1.208h-4.246zM69.353 69.823v-7.938h-1.627l-2.212 5.771c.041-.184.077-.427.108-.73.032-.304.055-.636.07-.996.014-.36.02-.715.02-1.065v-2.98h-1.416v7.938h1.626l2.21-5.76c-.131.626-.197 1.545-.197 2.759v3h1.418zM73.67 64.468v-.175c0-.496-.069-.843-.205-1.042-.136-.2-.365-.3-.687-.3-.324 0-.558.101-.7.303-.142.2-.213.547-.213 1.039v3.122c0 .506.07.862.207 1.068.14.204.371.306.695.306.312 0 .54-.104.685-.314.145-.21.217-.563.217-1.06v-.43h1.517v.363c0 .515-.074.97-.22 1.363-.147.394-.4.707-.76.94-.358.233-.834.349-1.428.349-.913 0-1.55-.24-1.911-.72-.362-.48-.543-1.125-.543-1.932v-2.88c0-.922.207-1.607.62-2.054.414-.45 1.032-.674 1.855-.674.501 0 .932.094 1.292.282.361.188.634.46.818.816.185.355.277.773.277 1.256v.374h-1.517zM80.81 61.885v1.275h-1.727v6.663h-1.505V63.16h-1.77v-1.275h5.001zM86.608 69.823v-7.938H84.98l-2.212 5.771c.041-.184.077-.427.107-.73.033-.304.056-.636.07-.996.014-.36.022-.715.022-1.065v-2.98H81.55v7.938h1.627l2.21-5.76c-.131.626-.197 1.545-.197 2.759v3h1.418zM87.735 69.823v-7.938h1.506v3.441l1.825-3.44h1.705l-2.013 3.44 2.077 4.497h-1.68l-1.32-3.168-.594.781v2.387h-1.506zM96.819 64.468v-.175c0-.496-.068-.843-.204-1.042-.136-.2-.365-.3-.687-.3-.324 0-.558.101-.701.303-.141.2-.212.547-.212 1.039v3.122c0 .506.069.862.207 1.068.14.204.371.306.695.306.311 0 .54-.104.684-.314.145-.21.218-.563.218-1.06v-.43h1.516v.363c0 .515-.073.97-.22 1.363-.146.394-.4.707-.76.94-.357.233-.833.349-1.427.349-.913 0-1.55-.24-1.912-.72-.361-.48-.542-1.125-.542-1.932v-2.88c0-.922.207-1.607.62-2.054.414-.45 1.032-.674 1.855-.674.501 0 .932.094 1.291.282.362.188.635.46.819.816.184.355.276.773.276 1.256v.374H96.82z" fill="#000"/></svg>