<svg width="85" height="77" viewBox="0 0 85 77" fill="none" xmlns="http://www.w3.org/2000/svg"><g clip-path="url(#a)"><path d="M43.428 67.26c-.36-.469-.699-.94-1.07-1.386-2-2.401-4.652-3.408-7.692-3.787-7.558-.946-14.783-2.968-21.332-6.993-3-1.844-5.693-4.052-7.767-6.93-4.452-6.182-4.349-13.095.286-19.152 2.388-3.12 5.448-5.454 8.856-7.349 6.555-3.646 13.66-5.5 21.066-6.337.789-.09 1.581-.143 2.372-.216.048-.005.092-.043.237-.117-1.803-2.028-2.519-4.356-1.828-7.005.428-1.643 1.375-2.958 2.767-3.943 2.716-1.924 6.549-1.682 8.948.569 1.481 1.39 2.286 3.103 2.318 5.13.032 2.01-.695 3.757-2.203 5.316 1.023.1 1.885.169 2.741.274 7.335.9 14.415 2.659 20.91 6.318 3.775 2.127 7.153 4.735 9.59 8.386 3.996 5.99 3.76 12.63-.6 18.367-2.769 3.642-6.386 6.212-10.416 8.264-5.774 2.941-11.934 4.615-18.334 5.397-3.653.447-6.636 1.875-8.666 5.03-.04.06-.112.1-.183.164zM13.107 37.833c.288-4.116 1.917-7.632 4.4-10.757-1.298-.811-2.499-1.579-3.726-2.307-.168-.1-.52-.087-.682.024-2.94 2.004-5.502 4.384-7.252 7.526-.945 1.698-1.568 3.502-1.677 5.514h8.937zm27.599-6.567l.819-9.986c-2.505 0-4.881-.01-7.259.016-.227.003-.502.181-.67.358-.978 1.036-2.045 2.014-2.862 3.168-.993 1.403-1.764 2.96-2.695 4.56 4.28 1.125 8.375 1.705 12.666 1.883zm5.513-.027a56.777 56.777 0 0 0 12.314-1.763c-.062-.202-.089-.326-.136-.44a21.146 21.146 0 0 0-4.727-6.97c-.602-.589-1.218-.894-2.094-.851-1.505.075-3.015.02-4.524.02H45.41c.27 3.367.536 6.624.81 10.003zm23.08-4.047c2.49 3.13 4.014 6.64 4.343 10.622h8.987c-.137-.748-.214-1.433-.392-2.091-1.306-4.81-4.542-8.133-8.504-10.876-.142-.099-.46-.089-.617.003-1.25.74-2.48 1.515-3.817 2.341zM14.629 37.81h10.109l1.233-7.276c-2.191-.87-4.443-1.772-6.704-2.643-.146-.056-.458.075-.574.215-2.304 2.803-3.749 5.971-4.064 9.704zm46.122-7.282l1.238 7.296h10.083c-.287-3.709-1.723-6.875-4.014-9.679-.112-.136-.516-.15-.726-.071-1.355.516-2.689 1.096-4.044 1.613-.86.326-1.744.58-2.537.841zM26.27 37.806h13.998l.291-4.782-13.121-1.95-1.168 6.732zm34 .034c-.061-2.392-.427-4.635-1.111-6.678l-12.821 1.865.3 4.811c4.56.002 9.046.002 13.631.002zm-47.254 1.9H4.221c-.102 4.202 4.63 11.121 8.795 12.873V39.739zm60.695.006V52.64c4.334-2.06 9.077-9.022 8.789-12.895h-8.79zm-33.475-.01H26.478c.094 2.265.428 4.417 1.107 6.314L39.948 44.2c.09-1.402.188-2.894.288-4.465zm18.93 6.344a22.955 22.955 0 0 0 1.089-6.342h-13.57l.3 4.492 12.182 1.85zm-31.01 1.64c.731 1.919 1.735 3.574 2.86 5.176.555.791 1.134 1.008 2.106.842 3.937-.666 6.736-3.951 6.467-7.785-3.844.245-7.642.752-11.434 1.767zm19.008-1.762c.251 1.052.44 1.996.704 2.921.658 2.299 2.226 3.709 4.457 4.45 2.447.812 2.575.813 3.965-1.314.87-1.333 1.583-2.769 2.422-4.253-3.884-1.027-7.6-1.577-11.548-1.804zm19.583-19.223c-2.568-3.088-10.153-7.329-13.42-7.466.231.414.333.8.584 1.016 2.638 2.27 4.55 5.052 5.932 8.221.081.188.186.366.328.642 2.186-.802 4.337-1.59 6.576-2.413zm-40.199 2.353c.151-.239.267-.377.334-.536 1.405-3.31 3.404-6.18 6.198-8.482.208-.171.259-.534.385-.807-5.152 1.259-9.604 3.551-13.448 7.361 2.272.855 4.386 1.655 6.531 2.464zm35.41 10.643c-.406 2.35-.8 4.62-1.203 6.96l11.187-6.817-.06-.143h-9.925zm-37.182.02H14.98l-.043.136 11.036 6.768a8336.42 8336.42 0 0 1-1.198-6.905zM43.48 13.14a3.282 3.282 0 0 0 3.27-3.36c-.03-1.808-1.502-3.223-3.335-3.207a3.27 3.27 0 0 0-3.268 3.355c.029 1.8 1.511 3.229 3.333 3.211zm10.494 4.445c.112.087.149.135.195.148 5.22 1.578 9.956 3.993 13.798 7.955.1.104.361.186.465.13 1.167-.64 2.32-1.307 3.525-1.996-2.9-2.36-13.317-5.953-17.983-6.237zm-21.273.097c-6.274.903-12.256 2.653-17.876 5.988 1.171.683 2.223 1.28 3.255 1.91.384.234.626.191.949-.133 3.52-3.546 7.78-5.856 12.498-7.39.391-.127.784-.251 1.174-.375zM14.453 53.659c4.566 2.772 9.355 4.477 14.396 5.552-4.07-1.887-7.644-4.455-10.785-7.719l-3.611 2.167zm57.808.04c-1.09-.655-2.049-1.199-2.972-1.801-.485-.317-.768-.272-1.185.162-2.753 2.866-5.914 5.174-9.548 6.816-.178.08-.347.18-.52.27 4.964-1.071 9.703-2.697 14.225-5.447zm-50.414-3.957c2.47 1.792 4.97 3.08 7.726 4l-3.092-5.618c-1.457.51-2.969 1.036-4.635 1.618zm35.3 4.003c2.704-.954 5.24-2.17 7.685-4.003l-4.575-1.604c-1.071 1.93-2.074 3.737-3.11 5.607z" fill="#002961"/><path d="M9.384 64.735l2.808-4.602 2.414 1.464-5 8.237c-.669-.408-1.315-.76-1.907-1.185-.2-.145-.324-.466-.382-.728-.432-1.96-.84-3.927-1.258-5.89-.042-.192-.112-.38-.218-.739l-2.823 4.613L.61 64.439l5.015-8.254c.675.405 1.304.744 1.881 1.154.204.145.349.45.406.706.433 1.933.835 3.873 1.249 5.81.05.227.114.45.224.88zM27.595 8.89L24.228 6.2l1.112 5.446c-.9.186-1.742.36-2.66.548L20.75 2.93c.802-.168 1.516-.357 2.242-.448.237-.03.542.146.752.31 1.036.81 2.05 1.65 3.152 2.543.599-1.149 1.187-2.203 1.698-3.293.283-.606.65-.965 1.34-1.033.52-.053 1.03-.215 1.621-.345l1.95 9.26-2.744.576-1.144-5.428c-.727 1.37-1.354 2.554-2.022 3.818zM8.887 7.473l5.031 8.05-2.355 1.464-2.006-3.141c-1.25.777-2.452 1.527-3.725 2.32l1.952 3.172-2.386 1.465c-1.674-2.677-3.32-5.307-5.015-8.02l2.377-1.474 1.874 2.944 3.714-2.321-1.816-2.97c.788-.497 1.537-.97 2.355-1.489zM73.392 15.962c-.836-.463-1.595-.882-2.45-1.358 1.543-2.762 3.065-5.49 4.623-8.276l8.756 4.868-4.624 8.275-2.431-1.35 3.527-6.311-3.853-2.152-3.548 6.304zM80.38 63.748c.646 1.014 1.266 1.989 1.946 3.054l-2.387 1.537-5.263-8.12c1.634-1.014 3.183-2.079 4.829-2.967 1.484-.801 3.03-.302 3.882 1.047.824 1.308.512 2.906-.821 3.94-.683.533-1.427.99-2.186 1.51zm-2.291-3.497c.444.677.86 1.316 1.27 1.943 1.76-1.027 2.08-1.534 1.56-2.332-.579-.886-1.335-.798-2.83.39zM37.543 70.057c-1.023-.396-1.953-.824-2.925-1.102-.452-.129-1.005-.04-1.484.076-1.32.32-2.11 1.285-2.153 2.514-.04 1.146.794 2.254 2.006 2.668 1.044.358 2.163.277 4.053-.316-.08.68-.118 1.327-.251 1.955-.039.183-.325.394-.535.448a8.31 8.31 0 0 1-5.588-.481c-1.959-.88-2.92-2.99-2.498-5.243.44-2.347 2.08-3.792 4.501-3.957 1.687-.115 3.254.333 4.743 1.073.178.089.365.387.355.58-.029.628-.15 1.25-.224 1.785zM60.498 68.129c-1.04-.105-1.95-.274-2.855-.25-.336.01-.84.41-.947.738-.18.545.373.728.807.87.805.26 1.625.478 2.419.767 1.083.394 1.772 1.14 1.83 2.343.055 1.178-.492 2.027-1.512 2.578-1.5.81-3.093.822-4.71.474-.153-.034-.339-.245-.38-.407-.143-.558-.23-1.132-.356-1.809.443.12.8.27 1.169.307.676.067 1.376.159 2.035.054.348-.056.633-.507.947-.78-.276-.282-.503-.68-.839-.82-.652-.276-1.375-.377-2.05-.603-.855-.285-1.563-.77-1.934-1.64-.582-1.374-.02-2.867 1.384-3.52 1.29-.6 2.656-.636 4.043-.415.458.073.683.312.73.78.048.485.156.969.218 1.333zM54.968.655l9.625 1.91-.401 2.146-3.453-.628-1.416 7.085c-.92-.172-1.79-.336-2.732-.51.462-2.37.912-4.688 1.381-7.104l-3.417-.707c.136-.73.265-1.418.413-2.192z" fill="#EE1D24"/></g><defs><clipPath id="a"><path fill="#fff" transform="translate(.383 .655)" d="M0 0h84.084v75.921H0z"/></clipPath></defs></svg>