<svg width="78" height="70" viewBox="0 0 78 70" fill="none" xmlns="http://www.w3.org/2000/svg"><g clip-path="url(#a)"><path d="M39.8 61.412c-.33-.432-.64-.868-.98-1.278-1.831-2.215-4.26-3.142-7.045-3.493-6.92-.872-13.537-2.736-19.534-6.447-2.748-1.7-5.214-3.735-7.114-6.39-4.076-5.7-3.982-12.073.263-17.658 2.187-2.877 4.989-5.029 8.11-6.776 6.003-3.361 12.508-5.07 19.29-5.843.723-.082 1.449-.132 2.173-.2.044-.004.085-.039.217-.106-1.65-1.87-2.306-4.017-1.674-6.459.392-1.515 1.259-2.727 2.534-3.636 2.487-1.773 5.997-1.55 8.194.525 1.357 1.28 2.094 2.86 2.123 4.73.03 1.853-.636 3.464-2.018 4.902.937.092 1.727.155 2.51.252 6.718.83 13.201 2.451 19.15 5.825 3.457 1.961 6.55 4.366 8.78 7.733 3.66 5.522 3.445 11.645-.549 16.934-2.535 3.358-5.847 5.728-9.537 7.62-5.288 2.711-10.93 4.254-16.79 4.975-3.345.412-6.077 1.73-7.936 4.637-.037.056-.102.094-.168.153zM12.031 34.28c.264-3.796 1.756-7.038 4.03-9.92-1.188-.747-2.289-1.455-3.412-2.126-.154-.092-.476-.08-.625.022-2.693 1.848-5.038 4.042-6.641 6.94-.866 1.565-1.435 3.228-1.536 5.084h8.184zm25.274-6.056l.75-9.207c-2.293 0-4.47-.008-6.646.015-.209.003-.461.167-.614.33-.896.955-1.874 1.857-2.621 2.92-.91 1.295-1.616 2.73-2.468 4.205 3.92 1.038 7.67 1.573 11.6 1.737zm5.049-.025a51.67 51.67 0 0 0 11.277-1.625c-.057-.186-.081-.3-.125-.406a19.504 19.504 0 0 0-4.329-6.427c-.55-.542-1.115-.823-1.917-.784-1.379.07-2.762.02-4.143.02h-1.505c.248 3.103.491 6.106.742 9.222zm21.136-3.731c2.28 2.885 3.676 6.123 3.977 9.794h8.23c-.126-.69-.196-1.322-.359-1.929-1.196-4.434-4.16-7.497-7.788-10.027-.13-.09-.42-.082-.565.003-1.145.683-2.272 1.397-3.496 2.159zm-50.064 9.79h9.256l1.13-6.708c-2.007-.802-4.069-1.634-6.139-2.437-.134-.052-.42.069-.526.197-2.11 2.586-3.433 5.507-3.721 8.948zm42.236-6.714l1.134 6.727h9.233c-.262-3.42-1.578-6.339-3.676-8.924-.102-.126-.472-.14-.664-.066-1.242.476-2.463 1.011-3.704 1.488-.787.3-1.597.535-2.323.775zm-31.577 6.71h12.82l.266-4.41-12.016-1.797-1.07 6.208zm31.136.032c-.056-2.206-.39-4.274-1.017-6.157l-11.741 1.719.275 4.436c4.176.002 8.284.002 12.483.002zm-43.273 1.75H3.895c-.093 3.876 4.24 10.255 8.054 11.87v-11.87zm55.582.007v11.89c3.969-1.9 8.312-8.319 8.048-11.89h-8.048zm-30.655-.009H24.277c.086 2.088.392 4.073 1.014 5.821l11.321-1.704c.084-1.293.172-2.669.264-4.117zm17.336 5.85c.576-1.831.944-3.794.997-5.849H42.782l.275 4.142 11.155 1.706zm-28.399 1.512c.67 1.768 1.59 3.294 2.62 4.771.508.73 1.039.93 1.929.777 3.605-.614 6.168-3.643 5.921-7.178-3.52.226-6.998.693-10.47 1.63zM43.22 41.77c.23.97.404 1.841.646 2.694.601 2.12 2.038 3.42 4.08 4.102 2.242.749 2.358.75 3.632-1.21.797-1.23 1.45-2.553 2.217-3.922-3.556-.947-6.958-1.454-10.575-1.664zm17.933-17.723c-2.351-2.848-9.297-6.758-12.288-6.884.211.381.304.738.535.937 2.415 2.093 4.167 4.657 5.431 7.58.075.173.17.337.3.592l6.022-2.225zm-36.812 2.17c.139-.22.245-.348.306-.495 1.287-3.051 3.117-5.698 5.676-7.82.19-.158.237-.492.352-.745-4.718 1.161-8.794 3.275-12.315 6.788 2.08.788 4.017 1.525 5.981 2.271zm32.427 9.813l-1.102 6.417 10.245-6.286c-.018-.044-.037-.087-.054-.131h-9.09zm-34.05.017h-8.97c-.012.043-.025.084-.039.126l10.106 6.24c-.373-2.16-.73-4.229-1.097-6.366zm17.13-24.535c1.69-.015 3.023-1.392 2.993-3.097-.027-1.667-1.375-2.972-3.054-2.957-1.697.014-3.021 1.383-2.992 3.094a3.01 3.01 0 0 0 3.052 2.96zm9.608 4.1c.104.08.137.124.18.136 4.78 1.455 9.116 3.681 12.635 7.335.092.095.33.171.425.119 1.07-.59 2.125-1.205 3.23-1.84-2.657-2.176-12.196-5.488-16.47-5.75zm-19.48.089c-5.745.832-11.224 2.446-16.37 5.52 1.072.63 2.035 1.182 2.981 1.762.351.216.573.176.868-.123 3.225-3.27 7.125-5.4 11.446-6.813.358-.118.718-.232 1.075-.346zM13.265 48.87c4.182 2.556 8.567 4.128 13.183 5.12-3.727-1.74-7-4.109-9.875-7.118l-3.308 1.998zm52.939.037c-.999-.604-1.877-1.105-2.722-1.66-.445-.293-.704-.252-1.086.149-2.52 2.642-5.416 4.77-8.743 6.284-.164.075-.318.166-.477.25 4.546-.989 8.887-2.488 13.028-5.023zM20.036 45.26c2.263 1.651 4.552 2.839 7.075 3.687l-2.83-5.18c-1.335.471-2.72.956-4.245 1.493zm32.327 3.69c2.476-.88 4.798-2 7.038-3.69-1.526-.538-2.903-1.023-4.19-1.479-.981 1.78-1.9 3.446-2.848 5.17z" fill="#002961"/><path d="M8.625 59.084l2.572-4.243 2.21 1.35-4.58 7.594c-.611-.377-1.203-.7-1.745-1.093-.183-.134-.297-.43-.35-.672-.396-1.807-.769-3.62-1.152-5.43-.038-.177-.102-.35-.2-.68l-2.584 4.252L.59 58.811c1.537-2.549 3.05-5.058 4.592-7.61.618.373 1.194.685 1.723 1.063.186.134.319.415.371.65.397 1.783.765 3.572 1.144 5.358.045.21.105.414.205.812zM25.303 7.593l-3.083-2.48 1.019 5.021-2.437.506-1.767-8.541c.735-.156 1.389-.33 2.053-.414.217-.027.497.135.69.286.948.748 1.876 1.521 2.886 2.345.547-1.06 1.087-2.031 1.554-3.037.26-.558.596-.89 1.227-.952.477-.049.944-.198 1.485-.318l1.785 8.538-2.512.53-1.048-5.004a2775.86 2775.86 0 0 0-1.852 3.52zM8.17 6.287l4.608 7.422-2.157 1.35c-.62-.98-1.213-1.913-1.837-2.896-1.144.716-2.245 1.408-3.41 2.14.598.98 1.175 1.924 1.787 2.923l-2.186 1.351-4.592-7.395L2.56 9.824l1.716 2.714 3.4-2.14L6.015 7.66c.721-.458 1.408-.895 2.157-1.373zM67.24 14.113l-2.244-1.251L69.23 5.23c2.69 1.506 5.326 2.981 8.018 4.49l-4.234 7.63-2.226-1.247 3.23-5.818-3.529-1.984-3.25 5.812zM73.641 58.173l1.782 2.816-2.185 1.417-4.82-7.486c1.496-.935 2.915-1.917 4.422-2.736 1.36-.739 2.776-.279 3.555.966.755 1.206.47 2.678-.752 3.633-.625.49-1.306.911-2.002 1.39zm-2.098-3.224l1.164 1.791c1.612-.947 1.905-1.414 1.428-2.15-.53-.816-1.222-.736-2.592.36zM34.413 63.99c-.937-.365-1.788-.76-2.678-1.016-.414-.118-.921-.036-1.36.07-1.208.295-1.932 1.185-1.971 2.318-.037 1.057.727 2.078 1.837 2.46.956.33 1.98.256 3.711-.291-.072.627-.108 1.224-.23 1.803-.035.168-.297.363-.49.413a7.562 7.562 0 0 1-5.117-.444c-1.793-.812-2.673-2.757-2.287-4.834.404-2.164 1.904-3.496 4.122-3.649 1.544-.105 2.98.308 4.343.99.163.081.334.357.325.534-.026.58-.137 1.152-.205 1.646zM55.433 62.212c-.951-.097-1.784-.252-2.614-.23-.307.008-.769.378-.866.68-.165.502.34.67.738.801.737.24 1.488.441 2.215.708.992.364 1.623 1.051 1.676 2.16.05 1.087-.45 1.87-1.385 2.378-1.374.747-2.832.757-4.312.436-.14-.03-.31-.225-.349-.375-.13-.514-.21-1.043-.326-1.668.407.112.733.25 1.07.283.62.062 1.261.147 1.864.05.32-.051.58-.468.867-.72-.252-.259-.46-.625-.768-.756-.597-.253-1.258-.347-1.878-.555-.782-.263-1.43-.71-1.77-1.513-.533-1.266-.019-2.642 1.268-3.244 1.18-.553 2.431-.587 3.702-.383.42.067.625.287.669.718.044.449.143.894.2 1.23zM50.371 0l8.814 1.762-.367 1.978-3.162-.579-1.297 6.532-2.502-.47 1.265-6.55-3.13-.652c.126-.673.244-1.307.379-2.021z" fill="#EE1D24"/></g><defs><clipPath id="a"><path fill="#fff" transform="translate(.383 .001)" d="M0 0h77v70H0z"/></clipPath></defs></svg>