<svg width="242" height="30" viewBox="0 0 242 30" fill="none" xmlns="http://www.w3.org/2000/svg"><path d="M62.886 7.329c.586 0 1.123.097 1.612.291.488.194.927.437 1.318.825.39.388.683.728.879 1.214.195.485.293 1.019.293 1.601 0 .583-.098 1.117-.293 1.553a3.585 3.585 0 0 1-.83 1.214c-.39.34-.83.63-1.319.825-.488.194-1.074.291-1.66.291h-1.318V19.9h-2.295V7.28l3.613.049zm-1.318 5.339h1.66c.39 0 .733-.146 1.026-.388.292-.243.439-.631.439-1.068a1.56 1.56 0 0 0-.39-1.02c-.245-.29-.635-.436-1.075-.436h-1.66v2.912zM74.412 6.988c.878 0 1.708.146 2.49.486.78.34 1.464.776 2.05 1.359a6.657 6.657 0 0 1 1.416 2.038c.342.825.537 1.699.537 2.621 0 .922-.195 1.796-.537 2.572a6.657 6.657 0 0 1-1.416 2.039c-.586.582-1.27 1.02-2.05 1.359-.782.34-1.612.485-2.49.485-.88 0-1.71-.194-2.49-.485-.782-.34-1.465-.777-2.051-1.359a6.655 6.655 0 0 1-1.416-2.039 6.385 6.385 0 0 1-.537-2.572c0-.922.195-1.796.537-2.572a6.655 6.655 0 0 1 1.416-2.039c.586-.582 1.27-1.02 2.05-1.359a8.433 8.433 0 0 1 2.49-.534zm0 2.573c-.586 0-1.123.097-1.612.29a4.635 4.635 0 0 0-1.318.826c-.39.34-.683.777-.879 1.262-.195.485-.293 1.02-.293 1.65 0 .631.098 1.165.293 1.65.196.486.489.923.88 1.262.39.34.83.631 1.317.825a4.51 4.51 0 0 0 1.612.292c.585 0 1.123-.097 1.61-.292a4.632 4.632 0 0 0 1.32-.825c.39-.34.683-.776.878-1.262.195-.485.293-1.067.293-1.65 0-.63-.098-1.165-.293-1.65a3.285 3.285 0 0 0-.879-1.262c-.39-.34-.83-.631-1.318-.825a4.51 4.51 0 0 0-1.611-.291zM93.16 17.91c-.196.29-.44.63-.733.873s-.635.534-1.074.728c-.39.195-.88.389-1.367.486a8.284 8.284 0 0 1-1.612.145c-.83 0-1.66-.145-2.44-.485a5.696 5.696 0 0 1-2.051-1.31 6.655 6.655 0 0 1-1.416-2.039 6.859 6.859 0 0 1-.537-2.67c0-.97.195-1.844.537-2.669a5.664 5.664 0 0 1 1.416-2.038 5.696 5.696 0 0 1 2.05-1.31c.781-.292 1.563-.486 2.441-.486.586 0 1.075.048 1.563.194.488.146.928.291 1.367.485.39.194.732.437 1.074.68.293.242.537.534.732.825l-.732 2.038c-.195-.242-.39-.436-.635-.68a6.85 6.85 0 0 0-.878-.582c-.342-.145-.684-.29-1.075-.388a4.946 4.946 0 0 0-1.22-.145c-.635 0-1.172.097-1.71.29-.536.195-.975.438-1.317.826-.342.388-.684.776-.88 1.262-.194.485-.292 1.068-.292 1.699 0 .63.098 1.164.293 1.698.195.486.488.922.879 1.262.39.34.83.631 1.367.825a5.056 5.056 0 0 0 1.709.292c.439 0 .878-.049 1.269-.146.39-.097.781-.243 1.123-.437.342-.194.635-.388.879-.582.244-.194.44-.437.635-.68l.732 2.087-.098-.048zM103.755 7.28v2.427h-3.711v10.095H97.75V9.756h-3.71V7.329h9.715V7.28zM112.052 7.28v2.476h-4.638v2.378h4.15v2.475h-4.15v2.718h4.638v2.475h-6.982V7.28h6.982zM231.431 19.85h-2.295V9.805h-3.418l-.049 1.02c-.048 1.455-.146 2.766-.341 3.882-.196 1.116-.44 2.087-.733 2.864-.293.776-.732 1.359-1.171 1.747-.44.388-1.026.582-1.709.582-.196 0-.391 0-.537-.048a3.392 3.392 0 0 1-.391-.146l-.439-2.038c.341 0 .683-.097.976-.195.293-.097.586-.29.781-.582.196-.291.44-.63.586-1.068.147-.436.293-1.019.44-1.698.146-.68.195-1.505.244-2.476.049-.97.097-2.087.097-3.397V7.23h7.91l.049 12.62zM237.582 19.851h-3.613V7.281h2.294v4.756h1.319a4.78 4.78 0 0 1 1.66.291c.488.194.927.437 1.318.825.391.388.635.728.83 1.213.195.486.293 1.02.293 1.554 0 .582-.098 1.116-.293 1.601a3.11 3.11 0 0 1-.879 1.214c-.39.34-.83.63-1.318.825-.488.194-1.025.242-1.611.291zm-1.319-2.475h1.661a1.44 1.44 0 0 0 1.074-.437c.293-.291.39-.631.39-1.02 0-.436-.146-.776-.439-1.067-.293-.291-.635-.388-1.025-.388h-1.661v2.912z" fill="#262626"/><path fill-rule="evenodd" clip-rule="evenodd" d="M19.633 29.801l16.6-28.636 16.65 28.636h-33.25z" fill="#262626"/><path fill-rule="evenodd" clip-rule="evenodd" d="M33.69 0L17.043 28.636.442 0H33.69z" fill="#5497D3"/><path d="M117.812 7.329c.586 0 1.123.097 1.611.291.489.194.928.437 1.319.825.39.388.683.728.879 1.214.195.485.292 1.019.292 1.601 0 .583-.097 1.117-.292 1.553a3.594 3.594 0 0 1-.831 1.214c-.39.34-.83.63-1.318.825-.488.194-1.074.291-1.66.291h-1.318V19.9h-2.295V7.28l3.613.049zm-1.318 5.339h1.66a1.58 1.58 0 0 0 1.025-.388c.293-.243.44-.631.44-1.068 0-.389-.147-.728-.391-1.02-.244-.29-.635-.436-1.074-.436h-1.66v2.912zM135.782 7.28l1.709 12.522h-2.344l-1.074-8.056-2.929 8.056h-2.148l-2.93-8.056-1.074 8.056h-2.441L124.26 7.28h2.392l3.369 8.93 3.369-8.93h2.392zM147.546 19.851v-8.494l-5.956 8.445h-2.344V7.28h2.295v8.494l5.956-8.494h2.295v12.522h-2.246v.05zM154.678 7.28v4.854h5.858V7.28h2.295v12.522h-2.295V14.61h-5.858v5.193h-2.295V7.28h2.295zM173.911 19.851l-1.025-2.572h-5.273l-1.025 2.572h-2.49l4.98-12.522h2.246l4.98 12.522h-2.393zm-2.001-4.999l-1.661-4.223-1.708 4.223h3.369zM187.681 19.85h-2.295V9.805h-3.418l-.048 1.02c-.049 1.455-.147 2.766-.342 3.882-.196 1.116-.44 2.087-.733 2.864-.293.776-.732 1.359-1.171 1.747-.489.388-1.026.582-1.709.582-.196 0-.391 0-.537-.048a3.392 3.392 0 0 1-.391-.146l-.439-2.038c.341 0 .683-.097.976-.195.293-.097.586-.29.781-.582.196-.291.44-.63.586-1.068.147-.436.293-1.019.44-1.698.146-.68.195-1.505.244-2.476.049-.97.097-2.087.097-3.397V7.23h7.91l.049 12.62zM191.59 7.28l2.539 5.63 2.245-5.63h2.49l-5.028 12.522h-2.49l1.611-4.028-3.809-8.494h2.442zM206.626 7.28v2.476h-4.003v10.046h-2.295V7.28h6.298zM213.755 6.988c.879 0 1.709.146 2.49.486.782.34 1.465.776 2.051 1.359a6.658 6.658 0 0 1 1.416 2.038c.342.825.537 1.699.537 2.621a6.38 6.38 0 0 1-.537 2.572 6.657 6.657 0 0 1-1.416 2.039c-.586.582-1.269 1.02-2.051 1.359-.781.34-1.611.485-2.49.485-.878 0-1.709-.194-2.49-.485-.781-.34-1.464-.777-2.05-1.359a6.657 6.657 0 0 1-1.416-2.039 6.38 6.38 0 0 1-.537-2.572c0-.922.195-1.796.537-2.572a6.658 6.658 0 0 1 1.416-2.039c.586-.582 1.269-1.02 2.05-1.359a8.438 8.438 0 0 1 2.49-.534zm0 2.573a4.32 4.32 0 0 0-1.611.29 4.628 4.628 0 0 0-1.318.826c-.391.34-.684.777-.879 1.262-.195.485-.293 1.02-.293 1.65 0 .631.098 1.165.293 1.65.195.486.488.923.879 1.262.39.34.83.631 1.318.825a4.508 4.508 0 0 0 1.611.292c.586 0 1.123-.097 1.612-.292a4.64 4.64 0 0 0 1.318-.825c.39-.34.683-.776.879-1.262.195-.485.293-1.067.293-1.65 0-.63-.098-1.165-.293-1.65a3.298 3.298 0 0 0-.879-1.262 4.641 4.641 0 0 0-1.318-.825 4.519 4.519 0 0 0-1.612-.291z" fill="#262626"/></svg>