<svg width="69" height="70" viewBox="0 0 69 70" fill="none" xmlns="http://www.w3.org/2000/svg"><path d="M.402 39.92c.047-.23.097-.409.117-.59.02-.195.035-.395.016-.59-.064-.645-.193-1.288-.207-1.934a107.47 107.47 0 0 1-.001-4.438c.011-.565.136-1.129.206-1.694.013-.107.01-.217.025-.325.066-.474.134-.949.207-1.422.084-.54.174-1.08.26-1.62.012-.068.01-.14.03-.205.144-.497.287-.994.44-1.488.287-.92.534-1.856.88-2.753a45.331 45.331 0 0 1 1.497-3.47c.463-.954 1-1.877 1.559-2.78.59-.954 1.23-1.88 1.88-2.795.353-.499.757-.965 1.168-1.42a91.13 91.13 0 0 1 2.142-2.277 29.721 29.721 0 0 1 1.63-1.576c.472-.417.993-.78 1.495-1.166.515-.395 1.018-.81 1.554-1.177.7-.478 1.409-.949 2.148-1.363a46.399 46.399 0 0 1 3.077-1.596c.902-.42 1.84-.767 2.773-1.117a42.22 42.22 0 0 1 2.352-.797c.497-.153 1.012-.25 1.519-.372.477-.114.953-.231 1.432-.34a7.86 7.86 0 0 1 .697-.127c.37-.05.745-.075 1.115-.128.438-.064.873-.147 1.31-.22.049-.008.098-.018.148-.02 1.223-.037 2.445-.077 3.668-.108.469-.013.939-.02 1.407 0 .534.022 1.069.063 1.6.119.605.063 1.209.138 1.808.235.56.09 1.114.214 1.67.329.375.077.752.147 1.12.25.195.056.38.165.556.27.199.119.283.29.283.541-.01 4.577-.007 9.153-.007 13.73v.38c-.415-.192-.765-.384-1.136-.523a31.765 31.765 0 0 0-1.953-.665 26.331 26.331 0 0 0-1.767-.45c-.316-.072-.642-.101-.964-.148l-1.488-.215c-.069-.01-.138-.027-.207-.027-.848.001-1.698-.02-2.544.018-.51.023-1.017.138-1.525.213-.479.07-.962.123-1.435.22-.498.102-.991.238-1.48.378-.578.165-1.153.34-1.723.53a14.632 14.632 0 0 0-3.02 1.415c-.725.443-1.42.932-2.125 1.406-1.358.913-2.423 2.144-3.547 3.303-.58.597-1.035 1.318-1.51 2.008-.265.387-.458.825-.68 1.24a.478.478 0 0 0-.051.17c-.04.362.007.416.372.416 5.988 0 11.975.004 17.962-.004.633-.001 1.276-.019 1.896-.13 1.095-.196 2.181-.443 3.217-.873a13.524 13.524 0 0 0 4.257-2.768 13.291 13.291 0 0 0 2.778-3.865c.302-.635.498-1.324.713-1.998.173-.547.333-1.104.441-1.667.095-.492.15-.998.153-1.498.014-2.988.007-5.977.007-8.965 0-.149.01-.299-.003-.446-.023-.251.06-.367.334-.347.268.02.538.004.808.004h17.992c.09 0 .18.005.269.002.186-.006.278.08.278.266 0 .218.004.437.004.655 0 2.402.012 4.805-.006 7.207a53.652 53.652 0 0 1-.125 3.106 27.39 27.39 0 0 1-.24 2.074 33.771 33.771 0 0 1-.343 2.028c-.12.584-.28 1.16-.436 1.736-.2.736-.399 1.473-.623 2.203-.152.494-.337.98-.526 1.462a42.597 42.597 0 0 1-.733 1.765 28.322 28.322 0 0 1-.8 1.672 34.456 34.456 0 0 1-1.14 2.034 33.831 33.831 0 0 1-1.265 1.864 34.473 34.473 0 0 1-1.278 1.704c-.524.648-1.047 1.302-1.635 1.889-.357.355-.36.889.004 1.271.786.824 1.566 1.665 2.238 2.58a43.297 43.297 0 0 1 2.464 3.729c.674 1.148 1.253 2.357 1.8 3.572.43.958.758 1.962 1.111 2.953.21.588.4 1.184.559 1.788.156.596.263 1.204.386 1.809.117.575.244 1.148.337 1.727.067.415.09.839.123 1.26.046.589.118 1.18.12 1.77.012 3.523.005 7.047.014 10.571 0 .274-.06.376-.362.375-6.117-.009-12.234-.007-18.352-.007-.15 0-.3.002-.449-.005-.19-.008-.295-.105-.295-.3l.002-.387c0-2.82.013-5.639-.012-8.458-.005-.654-.131-1.307-.22-1.958-.061-.446-.157-.887-.232-1.331a8.054 8.054 0 0 0-.743-2.288c-.394-.785-.801-1.572-1.296-2.295-.836-1.223-1.814-2.339-3.064-3.167-.794-.526-1.612-1.034-2.47-1.447-.782-.377-1.621-.652-2.456-.902a6.84 6.84 0 0 0-1.99-.274c-6.297.016-12.594.009-18.89.01-.604 0-.657.045-.427.598.176.422.422.82.675 1.204.259.395.563.761.848 1.14.183.244.341.513.553.73.823.844 1.659 1.676 2.498 2.504.908.895 2.058 1.438 3.126 2.1 1.296.804 2.711 1.346 4.145 1.832.688.233 1.416.353 2.13.505.58.123 1.167.216 1.75.322.03.005.06.013.089.015.883.046 1.767.137 2.65.125.79-.012 1.583-.106 2.366-.22.866-.128 1.737-.267 2.579-.499.954-.263 1.877-.636 2.815-.957.633-.218.71-.43.706.455-.016 4.408-.023 8.815-.034 13.223 0 .168-.013.337-.008.506.015.493.012.506-.459.613-.554.126-1.108.252-1.665.363-.28.056-.567.085-.852.115-.452.048-.906.077-1.357.134-.44.055-.878.135-1.317.204-.059.01-.117.026-.176.027-1.583.038-3.165.1-4.748.1-.623 0-1.245-.197-1.87-.205-1.073-.014-2.055-.433-3.088-.62-.917-.165-1.81-.466-2.706-.736-.6-.18-1.183-.412-1.774-.618-.457-.16-.925-.295-1.372-.48a42.604 42.604 0 0 1-1.942-.862c-.725-.34-1.455-.676-2.156-1.063a24.74 24.74 0 0 1-2.133-1.304c-1.083-.75-2.139-1.54-3.197-2.325-1.387-1.03-2.562-2.288-3.751-3.526-.59-.613-1.116-1.29-1.643-1.959-.616-.782-1.23-1.567-1.79-2.389-.42-.617-.768-1.286-1.121-1.946-.508-.947-1.027-1.891-1.478-2.866-.414-.894-.762-1.82-1.107-2.743a28.924 28.924 0 0 1-.704-2.142c-.159-.555-.259-1.127-.381-1.692-.118-.544-.239-1.089-.341-1.636-.034-.183-.016-.376-.02-.564-.005-.214-.037-.408-.387-.405zm28.09-2.764c7.743 0 15.485-.005 23.228.012.51.001.894-.174 1.21-.51.467-.498.885-1.04 1.338-1.549 1.056-1.186 2.122-2.361 3.178-3.547.148-.167.275-.358.382-.554.16-.292.004-.553-.337-.587-.089-.009-.18-.004-.27-.004l-6.285-.001c-.872 0-.793.07-.793-.781-.002-2.78-.001-5.559.004-8.338 0-.17-.02-.301-.217-.316-.373-.028-.748-.081-1.118-.06-.235.013-.36.175-.358.467.015 2.968.01 5.936.008 8.904 0 .414-.065.474-.492.473-.748-.002-1.497-.004-2.245.001-.146.001-.313-.001-.435.063-.412.215-.806.462-1.21.692-.318.181-.637.36-.96.532-.181.097-.37.18-.558.265-.328.15-.657.427-.986.428-7.014.024-14.029.018-21.043.017-.489 0-.495 0-.496-.483-.003-1.867-.002-3.733-.002-5.599 0-.465-.251-.723-.713-.724l-5.567-.003c-.6 0-.619.008-.838.58-.161.421-.304.85-.453 1.276-.071.203-.222.258-.422.255a38.526 38.526 0 0 0-1.197-.001.518.518 0 0 0-.525.497c-.01.447-.018.894 0 1.34.021.49.218.662.7.662.29 0 .581-.023.867.008.187.02.403.08.53.202.06.06-.017.324-.1.45-.057.085-.234.129-.357.13-1.177.008-2.355-.003-3.532.009-.304.003-.61.057-.91.113-.059.011-.13.137-.135.214-.017.277-.005.556-.008.834-.004.424-.057.478-.488.479-1.027 0-2.055-.004-3.083-.001-.544.002-.775.327-.586.817.131.34.262.68.398 1.02.228.566.457 1.132.691 1.695.187.45.475.64 1.018.638 7.722-.023 15.445-.016 23.167-.015z" fill="#4E5C9D"/></svg>