<svg width="70" height="70" viewBox="0 0 70 70" fill="none" xmlns="http://www.w3.org/2000/svg"><path d="M48.46 2.856c23.035 8.403 29.048 40.927 10.91 57.418C37.512 81.557-.025 65.541.01 35.143c-.65-24.204 26.59-42.41 48.45-32.287zm7.902 53.646c6.65-6.515 10.208-16.261 8.68-25.494-2.417 3.663-7.174 6.075-12.282 6.075-5.107 0-15.098-.039-15.098-.039L37.438 59.6l-1.183-.04.429-45.465s2.477.003 15.888.003c14.462 0 14.954 19.563-.006 19.563-12.829 0-14.819-.044-14.819-.044l-.021.623s1.713.134 14.84.134c15.593 0 15.608-21.18-.182-21.18-15.79 0-16.75.14-16.75.14s.252 29.53-.418 44C28.782 43.416 22.042 29.52 15.763 15.569c-.425-.923-2.085-3.231-1.598-4.032a34.252 34.252 0 0 1 8.653-5.441c8.96-3.828 19.749-3.167 28.135 1.809 1.855.943 3.237 2.812 5.42 2.885C45.733.932 28.744.39 16.914 8.23c-31.287 22.93-5.648 70.505 30.731 56.777 14.06-6.026 22.9-22.226 18.928-37.267-.994 1.66.251 3.809.128 5.655.244 4.356-.394 8.794-2.052 12.846-5.447 15.044-23.299 23.864-38.601 18.94C5.958 59.748-3.38 33.296 9.52 16.782c.971-1.587 2.454-3.048 3.797-4.415 7.324 15.75 14.668 31.438 21.97 47.205-1.034-.037-2.405.284-3.318-.148-1.419-3.03-2.808-6.076-4.277-9.087-3.669-8.061-7.682-16.042-11.26-24.113-1.752-3.268-3.144-6.754-4.841-10.061C-11.331 46.229 28.739 82.18 56.37 56.494l-.008.008zM15.736 11.93c5.66 11.933 11.15 24.085 16.88 36.031l.095-.021.002-37.018c-.072-.492.263-.345.613-.368 6.415-.03 12.827.057 19.24-.033-10.403-8.039-25.822-7.225-36.05.72l.023.007-.803.683zm22.097 3.496l-.095 16.816s2.77-.01 15.861-.01c11.615 0 11.683-16.83-.795-16.83-10.126 0-14.97.024-14.97.024z" fill="#158AB8"/></svg>