<svg width="69" height="69" viewBox="0 0 69 69" fill="none" xmlns="http://www.w3.org/2000/svg"><path d="M47.328 3.435c22.42 8.179 28.273 39.835 10.618 55.887C36.672 80.037.137 64.448.17 34.86-.46 11.302 26.051-6.418 47.328 3.435zm7.69 52.215c6.473-6.341 9.936-15.828 8.449-24.814-2.352 3.565-6.983 5.913-11.954 5.913-4.97 0-14.695-.038-14.695-.038L36.6 58.664l-1.152-.038.417-44.252s2.412.002 15.465.002c14.076 0 14.555 19.04-.006 19.04-12.486 0-14.423-.041-14.423-.041l-.021.605s1.667.132 14.444.132c15.177 0 15.192-20.617-.177-20.617-15.37 0-16.303.137-16.303.137s.245 28.742-.407 42.826c-6.263-13.544-12.823-27.069-18.934-40.65-.414-.897-2.03-3.144-1.556-3.924a33.34 33.34 0 0 1 8.423-5.296c8.72-3.726 19.222-3.082 27.384 1.76 1.806.92 3.151 2.739 5.276 2.809C44.672 1.563 28.136 1.035 16.621 8.665c-30.452 22.32-5.496 68.625 29.912 55.263 13.684-5.865 22.29-21.633 18.424-36.273-.968 1.616.244 3.708.124 5.505.237 4.239-.384 8.56-1.997 12.503-5.302 14.642-22.678 23.227-37.572 18.435-19.552-5.29-28.64-31.035-16.084-47.11.944-1.544 2.387-2.966 3.694-4.297 7.13 15.33 14.278 30.6 21.384 45.947-1.005-.037-2.34.275-3.229-.145-1.38-2.95-2.733-5.914-4.163-8.844-3.57-7.847-7.477-15.615-10.959-23.47-1.705-3.18-3.06-6.574-4.712-9.793-22.312 29.265 16.69 64.257 43.584 39.257l-.008.007zM15.478 12.267c5.51 11.615 10.852 23.442 16.43 35.07l.091-.02L32 11.284c-.07-.478.256-.335.597-.358 6.244-.028 12.485.056 18.726-.032-10.124-7.824-25.133-7.032-35.087.702l.022.006-.781.664zm21.507 3.402l-.093 16.368s2.697-.01 15.439-.01c11.305 0 11.37-16.38-.774-16.38-9.856 0-14.572.022-14.572.022z" fill="#158AB8"/></svg>