<svg width="93" height="70" viewBox="0 0 93 70" fill="none" xmlns="http://www.w3.org/2000/svg"><path d="M31.46 63.128v.354h-2.933v-.354l1.01-.18 3.039-8.484h1.263l3.158 8.484 1.13.18v.354h-3.77v-.354l1.197-.18-.884-2.581h-3.51l-.898 2.581 1.197.18zm1.428-7.703l-1.529 4.342h3.105l-1.576-4.342zM39.157 61.074h.433l.232 1.207c.164.209.445.394.844.554.404.16.8.24 1.19.24.62 0 1.104-.158 1.45-.474.35-.32.525-.76.525-1.32 0-.32-.069-.585-.206-.794a1.721 1.721 0 0 0-.532-.527 3.233 3.233 0 0 0-.745-.367 46.59 46.59 0 0 0-.864-.307 11.114 11.114 0 0 1-.858-.34 3.032 3.032 0 0 1-.75-.473 2.247 2.247 0 0 1-.532-.707c-.133-.285-.2-.634-.2-1.047 0-.712.266-1.27.798-1.675.532-.404 1.27-.606 2.214-.606.718 0 1.498.095 2.34.286v1.861h-.433l-.232-1.094c-.452-.329-1.01-.493-1.675-.493-.594 0-1.06.122-1.396.367-.333.24-.5.573-.5 1 0 .29.067.53.2.72.138.192.315.356.532.494.222.133.472.249.751.347.284.098.572.2.865.307.297.102.585.22.864.353.283.129.534.296.751.5.222.2.399.447.532.74.137.29.206.648.206 1.074 0 .863-.264 1.532-.791 2.008-.528.471-1.288.707-2.28.707-.479 0-.96-.042-1.443-.127a6.774 6.774 0 0 1-1.29-.347v-2.067zM47.906 63.482v-.354l1.416-.18v-7.837h-.34c-1.12 0-1.887.045-2.3.134l-.179 1.394h-.445v-2.102h7.844v2.102h-.452l-.18-1.395c-.132-.03-.422-.057-.87-.08-.448-.026-.937-.04-1.47-.04h-.325v7.824l1.416.18v.354h-4.115zM56.11 63.128v.354h-2.932v-.354l1.01-.18 3.038-8.484h1.263l3.158 8.484 1.13.18v.354h-3.769v-.354l1.197-.18-.885-2.581h-3.51l-.897 2.581 1.197.18zm1.429-7.703l-1.53 4.342h3.105l-1.575-4.342zM65.702 59.466v3.482l1.483.18v.354h-3.823v-.354l1.057-.18v-7.883l-1.143-.174v-.353h6.688v2.14h-.44l-.212-1.447c-.496-.062-1.214-.093-2.154-.093h-1.456v3.728h2.626l.206-1.067h.406v2.748h-.406l-.206-1.08h-2.626zM73.374 62.948l1.144.18v.354h-3.564v-.354l1.144-.18v-7.883l-1.144-.174v-.353h3.564v.353l-1.144.174v7.883zM75.388 63.128l1.144-.18v-7.883l-1.144-.174v-.353h6.688v2.14h-.439l-.212-1.447c-.497-.062-1.215-.093-2.154-.093h-1.456v3.495h2.406l.206-1.067h.426v2.747h-.425l-.207-1.08h-2.406v3.648h1.755c1.143 0 1.892-.035 2.247-.106l.379-1.654h.439l-.127 2.36h-7.12v-.353zM92.999 54.538v.353l-.978.174-3.583 8.623H88.1l-3.623-8.623-1.004-.174v-.353h3.603v.353l-1.196.174 2.699 6.582 2.692-6.582-1.17-.174v-.353H93zM30.686 70h-.464v-3.59H28.96v-.413h2.99v.414h-1.263V70zM34.777 70h-2.224v-4.003h2.224v.414h-1.76v1.29h1.653v.41h-1.654v1.473h1.76V70zM36.127 68.335V70h-.464v-4.003h1.095c.49 0 .85.094 1.083.282.235.188.352.471.352.85 0 .528-.267.886-.802 1.072l1.083 1.8h-.548l-.966-1.666h-.833zm0-.4h.636c.328 0 .568-.064.72-.194.154-.131.23-.327.23-.588 0-.265-.078-.456-.235-.572-.154-.117-.404-.176-.748-.176h-.603v1.53zM40.884 70l-1.354-3.548h-.022c.026.281.039.615.039 1.002V70h-.429v-4.003h.699L41.08 69.3h.022l1.275-3.302h.693V70h-.464v-2.579c0-.296.012-.617.038-.964h-.022L41.258 70h-.374zM44.167 70v-4.003h.464V70h-.464zM48.844 70h-.53l-2.18-3.36h-.022c.03.395.044.757.044 1.085V70h-.428v-4.003h.524l2.174 3.346h.022a30.91 30.91 0 0 1-.024-.474 8.306 8.306 0 0 1-.014-.575v-2.297h.434V70zM52.449 70l-.497-1.273h-1.599L49.862 70h-.47l1.578-4.019h.39l1.57 4.02h-.481zm-.641-1.692l-.464-1.24a6.68 6.68 0 0 1-.186-.578c-.04.175-.097.368-.172.578l-.47 1.24h1.292zM53.478 70v-4.003h.463v3.582h1.76V70h-2.223z" fill="#3E3E3E"/><path fill-rule="evenodd" clip-rule="evenodd" d="M68.652 35.303a35.053 35.053 0 0 0 0-1.734c-1.153-3.431-5.065-5.35-8.611-5.428-5.032-.112-8.45 1.078-10.893 2.668 3.314-.704 7.755-.58 13.569 1.562a31.183 31.183 0 0 1 5.935 2.932zm-.363 4.243c-.26-1.555-1.133-3.221-4.023-4.062-3.99-1.162-7.213-1.246-9.833-.787 2.214.409 4.713 1.22 7.514 2.595a30.756 30.756 0 0 1 6.055 3.912c.109-.548.204-1.1.287-1.658zm-1.333 5.652c-.16-1.502-.93-3.12-3.562-4.191a27.719 27.719 0 0 0-3.241-1.1c.956.705 1.939 1.518 2.947 2.454a30.789 30.789 0 0 1 3.506 3.853c.122-.336.239-.675.35-1.016zm-2.186 5.191c.029-.939-.584-1.97-2.823-3.774-.272-.219-.54-.43-.805-.631l3.239 5.131c.132-.24.262-.482.39-.726zM35.116 68.88l4.705-.43a34.419 34.419 0 0 1-4.705.43zm-7.043-.562l.037-.086c-.171 0-.346-.002-.522-.007.162.032.323.063.485.093zM7.772 56.271A34.37 34.37 0 0 1 0 34.444C0 15.42 15.37 0 34.331 0c12.107 0 22.75 6.287 28.862 15.784-4.38-.938-13.698-1.852-23.069 4.087-7.645 4.845-10.303 10.09-11.134 13.96-.259-3.117.398-7 3.54-11.732C38.698 12.809 53.047 9.85 53.047 9.85s-13.637-.09-22.942 12.006c-5.215 6.78-6.134 12.364-5.764 16.268-1.14-2.76-1.686-6.447-.505-11.557C26.349 15.694 38.74 7.858 38.74 7.858s-12.795 4.732-17.26 19.34c-2.673 8.75-1.234 14.49.675 17.96-2.314-2.298-4.444-5.867-4.87-12.01-.775-11.136 8.784-22.272 8.784-22.272s-10.851 8.287-10.851 23.567c0 9.16 3.058 14.224 5.899 16.98-2.534-1.413-5.173-3.869-7.437-8.334-5.043-9.95-.573-23.946-.573-23.946S6.34 31.021 12.282 45.09c3.947 9.343 9.395 12.59 13.188 13.718-3.332-.058-7.454-1.182-12.077-5.643-8.02-7.738-8.377-22.43-8.377-22.43s-2.506 13.45 7.71 24.781c5.174 5.74 10.013 7.842 13.772 8.435-2.902.52-6.564.273-11.226-1.893-2.917-1.355-5.418-3.468-7.5-5.787zm57.694-36.36c-5.298-6.196-17.5-3.136-23.147 1.021-4.287 3.156-6.263 6.363-7.171 9.239 2.208-3.227 6.458-6.901 14.712-8.783 6.554-1.495 12.253-.62 16.575.824a34.333 34.333 0 0 0-.969-2.3zm2.313 6.734c-2.5-4.339-10.551-5.234-16.202-3.523-6.317 1.913-9.306 5.09-10.96 8.049 2.771-2.829 8.203-6.149 18.328-5.213 3.467.32 6.52 1.174 9.166 2.3a34.42 34.42 0 0 0-.332-1.613z" fill="#00A0D6"/><path fill-rule="evenodd" clip-rule="evenodd" d="M68.652 35.303a35.053 35.053 0 0 0 0-1.734c-1.153-3.431-5.065-5.35-8.611-5.428-5.032-.112-8.45 1.078-10.893 2.668 3.314-.704 7.755-.58 13.569 1.562a31.183 31.183 0 0 1 5.935 2.932zm-.363 4.243c-.26-1.555-1.133-3.221-4.023-4.062-3.99-1.162-7.213-1.246-9.833-.787 2.214.409 4.713 1.22 7.514 2.595a30.756 30.756 0 0 1 6.055 3.912c.109-.548.204-1.1.287-1.658zm-1.333 5.652c-.16-1.502-.93-3.12-3.562-4.191a27.719 27.719 0 0 0-3.241-1.1c.956.705 1.939 1.518 2.947 2.454a30.789 30.789 0 0 1 3.506 3.853c.122-.336.239-.675.35-1.016zm-2.186 5.191c.029-.939-.584-1.97-2.823-3.774-.272-.219-.54-.43-.805-.631l3.239 5.131c.132-.24.262-.482.39-.726zM35.116 68.88l4.705-.43a34.419 34.419 0 0 1-4.705.43zm-7.043-.562l.037-.086c-.171 0-.346-.002-.522-.007.162.032.323.063.485.093zM7.772 56.271A34.37 34.37 0 0 1 0 34.444C0 15.42 15.37 0 34.331 0c12.107 0 22.75 6.287 28.862 15.784-4.38-.938-13.698-1.852-23.069 4.087-7.645 4.845-10.303 10.09-11.134 13.96-.259-3.117.398-7 3.54-11.732C38.698 12.809 53.047 9.85 53.047 9.85s-13.637-.09-22.942 12.006c-5.215 6.78-6.134 12.364-5.764 16.268-1.14-2.76-1.686-6.447-.505-11.557C26.349 15.694 38.74 7.858 38.74 7.858s-12.795 4.732-17.26 19.34c-2.673 8.75-1.234 14.49.675 17.96-2.314-2.298-4.444-5.867-4.87-12.01-.775-11.136 8.784-22.272 8.784-22.272s-10.851 8.287-10.851 23.567c0 9.16 3.058 14.224 5.899 16.98-2.534-1.413-5.173-3.869-7.437-8.334-5.043-9.95-.573-23.946-.573-23.946S6.34 31.021 12.282 45.09c3.947 9.343 9.395 12.59 13.188 13.718-3.332-.058-7.454-1.182-12.077-5.643-8.02-7.738-8.377-22.43-8.377-22.43s-2.506 13.45 7.71 24.781c5.174 5.74 10.013 7.842 13.772 8.435-2.902.52-6.564.273-11.226-1.893-2.917-1.355-5.418-3.468-7.5-5.787zm57.694-36.36c-5.298-6.196-17.5-3.136-23.147 1.021-4.287 3.156-6.263 6.363-7.171 9.239 2.208-3.227 6.458-6.901 14.712-8.783 6.554-1.495 12.253-.62 16.575.824a34.333 34.333 0 0 0-.969-2.3zm2.313 6.734c-2.5-4.339-10.551-5.234-16.202-3.523-6.317 1.913-9.306 5.09-10.96 8.049 2.771-2.829 8.203-6.149 18.328-5.213 3.467.32 6.52 1.174 9.166 2.3a34.42 34.42 0 0 0-.332-1.613z" fill="url(#a)"/><defs><radialGradient id="a" cx="0" cy="0" r="1" gradientUnits="userSpaceOnUse" gradientTransform="rotate(111.593 15.938 31.031) scale(44.3603 45.174)"><stop stop-color="#009EDC"/><stop offset=".52" stop-color="#009EDC"/><stop offset=".678" stop-color="#32B6DB"/><stop offset=".692" stop-color="#78787A"/><stop offset="1" stop-color="#212121"/></radialGradient></defs></svg>