<svg width="202" height="79" viewBox="0 0 202 79" fill="none" xmlns="http://www.w3.org/2000/svg"><path d="M183.363 19.537c5.912 0 11.824.006 17.736-.014.569 0 .707.171.7.716-.026 2.757-.006 5.521-.013 8.278 0 .736-.006.736-.727.736-9.27 0-18.541-.007-27.811.006-.544 0-1.126.131-1.63.348-.642.276-.956.853-.956 1.576 0 5.337.019 10.674-.02 16.011-.006 1.064.897 1.97 2.003 1.963 9.199-.026 18.398-.013 27.59-.013h.608c.871 0 .943-.236.937.965-.007 2.757-.013 5.52.006 8.278.007.499-.164.61-.635.61-11.529-.013-23.058-.026-34.588 0-2.265.007-3.895-.84-4.949-2.908-.832-1.628-1.814-3.183-2.75-4.76-.858-1.45-1.244-3.019-1.244-4.693 0-4.727.046-9.46-.033-14.187-.039-2.428.734-4.523 1.997-6.525.897-1.431 1.676-2.934 2.554-4.379.563-.932 1.387-1.595 2.481-1.798a10.736 10.736 0 0 1 1.997-.204c5.584-.02 11.162-.013 16.747-.006zM107.488 19.537h.904c3.797 0 7.601.006 11.398-.014.524 0 .674.138.674.677-.019 8.921 0 17.843-.026 26.764-.006 1.103.825 2.206 2.239 2.2 9.12-.046 18.24-.02 27.367-.033.465 0 .596.144.589.597-.02 2.85-.026 5.705.007 8.554.006.558-.151.716-.708.716-9.944-.02-19.896-.014-29.841-.02-1.322 0-2.645 0-3.967.006-2.043.007-3.523-.86-4.505-2.691-.982-1.845-2.095-3.617-3.109-5.442-.649-1.162-1.015-2.416-1.015-3.762V20.154c-.007-.171-.007-.348-.007-.617zM96.872 58.985h-13.16v-.65c0-12.729 0-25.465-.013-38.194 0-.486.118-.623.61-.623 4 .02 8 .02 12 0 .425 0 .57.098.57.551-.014 12.788-.014 25.57-.014 38.358.007.17.007.335.007.558z" fill="#fff"/><path d="M33.246 78.614h22.725L66.49 59.09H43.768l-10.52 19.524zM66.492 19.524L55.97 0H33.246l10.521 19.524-10.52 19.523H55.97l10.52-19.523zM22.725 19.523H0l10.521 19.524L0 58.564h22.725l10.52-19.517-10.52-19.524z" fill="#F67636"/></svg>