<svg width="550" height="288" viewBox="0 0 550 288" fill="none" xmlns="http://www.w3.org/2000/svg"><g clip-path="url(#a)" fill="#4E5C9D"><path d="M527.031 196.367l-56.905-25.039-31.796-28.178 36.212-9.356 14.938-35.367c-19.037-4.474-37.855-7.273-58.102-6.71h-2.987l2.263 60.821 24.903 19.231v48.75a159.048 159.048 0 0 1 37.932 37.214l1.869 2.588a107.884 107.884 0 0 1 17.272-24.528l2.962-3.157 11.439-36.269zM346.641 57.005h47.723l21.508 9.242 12.532 20.802h.297c21.831-.192 43.624 2.774 64.808 7.88l16.813-22.183-16.373-40.703-12.164-6.008-.459.051a617.677 617.677 0 0 0-125.18 27.743l-9.505 3.176z"/><path d="M516.408 53.767l-19.173-43.459-16.367-3.233v12.782c-42.382 7.03-95.472 18.38-137.091 33.871l-6.609-17.715 15.086-7.318 39.518 1.732 7.391-15.012 28.395-4.761A802.244 802.244 0 0 1 534.941 0l15.08 6.238-7.113 27.921-26.5 19.608zM471.305 239.032a135.176 135.176 0 0 1 21.152 22.931l1.668 2.294-11.407 23.742-11.413-8.007v-40.96zM342.449 88.7V76.968h31.589l-1.319 10.085-30.27 1.648zM342.449 93.552l29.94-1.834.776 76.116-30.716-13.147V93.552zM377.328 170.291l39.478 21.787v-21.787h-39.478zM342.449 158.794a680.695 680.695 0 0 1 61.594 30.676l10.463 5.886h-72.057v-36.562zM269.559 133.793l28.957 9.062s1.041 52.406 0 52.482c-1.041.077-28.957 0-28.957 0v-61.544zM269.559 128.567V105.4l41.47-7.899 18.08-2.595v9.12l-30.134.345v33.316l-29.416-9.12zM241.145 103.342V76.967h48.673l-43.701 26.375h-4.972zM254.363 103.341l42.414-26.37h32.333v13.185a382.949 382.949 0 0 0-59.925 11.216l-.919.249-13.903 1.72zM171.684 80.238l28.621 18.642.983.134a38.402 38.402 0 0 1 17.88 7.26l6.938-26.164c-17.123-5.113-37.409-5.56-54.358.109l-.064.019zM166.474 82.008l29.268 17.837-11.051 1.923-26.992-9.88 8.775-9.88zM155.091 94.906l-1.636 2.953a29.008 29.008 0 0 0-3.597 12.578 28.938 28.938 0 0 0 2.304 12.87l38.121-3.892-3.421-2.313a11.761 11.761 0 0 1-4.624-6.115 11.62 11.62 0 0 1 .155-7.632l-27.302-8.449zM154.718 128.024l41.037-5.304 4.734 1.278c10.953 2.952 20.506 9.619 26.984 18.834 5.633 8.468 7.392 32.785-14.006 46.762a73.855 73.855 0 0 1-52.431 4.985l-10.993-3.048 5.121-26.944 16.587 5.47a39.753 39.753 0 0 0 26.668-.639c5.173-3.981 4.107-13.772-1.81-16.565l-3.686-.895c-15.031-3.657-28.448-12.054-38.218-23.921l.013-.013zM194.707 234.694l21.411-18.911h27.024l22.18 32.421-12.759 18.905-28.698-12.603h-26.112l-3.046-19.812zM56.959 264.233l16.851-3.912 13.67-54.629 21.864-20.266 5.924-31.501 15.519 5.644v-28.606l-5.302 2.473c-33.526 15.615-63.74 37.391-89.032 64.165l20.506 66.632z"/><path d="M30.529 195.375l2.87-2.972c25.792-26.594 56.49-48.069 90.442-63.27l6.906-3.093 1.824-36.664-7.262-.978c-35.178-4.73-70.958-1.477-105.133 8.027l-13.58 9.861-1.552 13.881 14.582 2.556 27.806-9.765 26.047 14.699-7.113 11.504-34.473-10.596-26.881 15.006L0 176.017l14.13 16.067 16.399 3.291z"/><path d="M36.439 76.974L21.883 90.157a262.218 262.218 0 0 1 100.645-6.64l11.873 1.52 11.387-15.337-14.077-5.707a357.287 357.287 0 0 0-81.136-22.209L33.25 62.977l9.111 7.229 14.64-11.344 12.32.242-.285.275c-8.969 8.787-20.27 14.887-32.598 17.595zM55.32 37.29l14.822 2.947a348.965 348.965 0 0 1 43.17 11.503c9.799 3.29 19.43 7.011 28.893 11.166l7.036 3.086 22.439-10.66 134.006.901 9.137-12.615-134.42-20.707-36.213 2.646-11.64 12.021-51.933.889-10.592-5.056"/></g><defs><clipPath id="a"><path fill="#fff" d="M0 0h550v288H0z"/></clipPath></defs></svg>