<svg width="97" height="51" viewBox="0 0 97 51" fill="none" xmlns="http://www.w3.org/2000/svg"><g clip-path="url(#a)" fill="#4E5C9D"><path d="M92.948 34.773L82.91 30.34l-5.607-4.99 6.386-1.657 2.635-6.262c-3.358-.793-6.677-1.288-10.247-1.189h-.527l.399 10.77 4.392 3.406v8.633a28.111 28.111 0 0 1 6.69 6.59l.33.458a19.098 19.098 0 0 1 3.046-4.343l.522-.56 2.017-6.422zM61.137 10.096h8.416l3.794 1.636 2.21 3.684h.052c3.85-.034 7.694.491 11.43 1.395l2.965-3.928-2.888-7.208-2.145-1.064-.08.01a108.555 108.555 0 0 0-22.078 4.912l-1.676.563z"/><path d="M91.076 9.521l-3.381-7.696-2.887-.572v2.263C77.334 4.761 67.97 6.771 60.63 9.514l-1.165-3.137 2.66-1.296 6.97.307 1.303-2.658 5.008-.843A140.936 140.936 0 0 1 94.345 0l2.66 1.105-1.255 4.944-4.674 3.472zM83.121 42.33a23.899 23.899 0 0 1 3.73 4.06l.295.406L85.134 51l-2.013-1.418V42.33zM60.398 15.708V13.63h5.572l-.233 1.786-5.339.292zM60.398 16.566l5.28-.325.138 13.479-5.418-2.328V16.566zM66.547 30.155l6.962 3.858v-3.858h-6.962zM60.398 28.12a119.81 119.81 0 0 1 10.863 5.432l1.846 1.043H60.398V28.12zM47.54 23.692l5.106 1.605s.184 9.28 0 9.294c-.184.014-5.107 0-5.107 0V23.692zM47.54 22.767v-4.102l7.313-1.399 3.189-.46v1.616l-5.315.06v5.9l-5.188-1.615zM42.527 18.3v-4.67h8.585l-7.708 4.67h-.877zM44.86 18.3l7.48-4.67h5.702v2.336a67.29 67.29 0 0 0-10.569 1.986l-.162.044-2.452.304zM30.281 14.208l5.048 3.3.173.025a6.757 6.757 0 0 1 3.154 1.285l1.223-4.633c-3.02-.905-6.597-.985-9.586.02l-.012.003zM29.36 14.523l5.162 3.158-1.95.34-4.76-1.749 1.548-1.75zM27.355 16.807l-.288.523a5.15 5.15 0 0 0-.228 4.506l6.723-.69-.603-.409a2.081 2.081 0 0 1-.816-1.083 2.065 2.065 0 0 1 .027-1.351l-4.815-1.496zM27.285 22.67l7.238-.939.835.227a8.526 8.526 0 0 1 4.759 3.335c.993 1.5 1.303 5.806-2.47 8.28a12.977 12.977 0 0 1-9.247.883l-1.94-.54.904-4.77 2.925.968a6.985 6.985 0 0 0 4.704-.113c.912-.705.724-2.439-.32-2.934l-.65-.158a12.572 12.572 0 0 1-6.74-4.236l.002-.002zM34.344 41.56l3.776-3.348h4.766l3.912 5.741-2.25 3.348-5.062-2.232h-4.605l-.537-3.508zM10.042 46.791l2.972-.692 2.411-9.674 3.856-3.589 1.045-5.578 2.737.999v-5.066l-.935.438A51.523 51.523 0 0 0 6.426 34.992l3.616 11.8z"/><path d="M5.384 34.598l.506-.526a51.568 51.568 0 0 1 15.951-11.204l1.218-.548.322-6.493-1.281-.173c-6.204-.838-12.514-.261-18.542 1.421l-2.395 1.747L.89 21.28l2.571.452 4.904-1.729 4.594 2.603-1.254 2.037-6.08-1.876-4.741 2.657L0 31.17l2.492 2.845 2.892.583z"/><path d="M6.427 13.63l-2.568 2.334a46.064 46.064 0 0 1 17.75-1.175l2.094.269 2.009-2.716-2.483-1.01a62.812 62.812 0 0 0-14.31-3.934l-3.055 3.753 1.607 1.28 2.582-2.009 2.173.043-.05.05a11.83 11.83 0 0 1-5.75 3.115zM9.758 6.604l2.614.522a61.349 61.349 0 0 1 7.613 2.037 60.669 60.669 0 0 1 5.096 1.977l1.24.547 3.958-1.888 23.634.16 1.612-2.235-23.707-3.666-6.387.468-2.053 2.129-9.159.157-1.868-.895"/></g><defs><clipPath id="a"><path fill="#fff" d="M0 0h97v51H0z"/></clipPath></defs></svg>