<svg width="25" height="26" viewBox="0 0 25 26" fill="none" xmlns="http://www.w3.org/2000/svg">
<path d="M22.9985 11.2672C22.9985 16.02 22.9985 20.7502 22.9985 25.4933C15.3389 25.4933 7.68058 25.4933 0.00326709 25.4933C0.00326709 25.4274 0.00326709 25.3654 0.00326709 25.3033C0.00438209 22.9339 0.00590787 20.5644 0.00637734 18.195C0.00655339 17.3549 0.00356051 16.5149 0.00273894 15.6748C0.00221079 15.1385 0.00684681 14.602 3.94839e-05 14.0657C-0.0014863 13.9441 0.0410595 13.8991 0.153615 13.8656C2.0636 13.2975 3.97217 12.7247 5.8811 12.1532C6.88688 11.852 7.89278 11.5512 8.8988 11.2505C8.93547 11.2396 8.97332 11.2325 9.035 11.2177C9.035 11.9185 9.035 12.608 9.035 13.3287C11.4084 12.6188 13.7521 11.9177 16.1149 11.2109C16.1149 11.9232 16.1149 12.6105 16.1149 13.3274C18.4183 12.638 20.7013 11.9547 22.9985 11.2672ZM7.74384 24.9286C10.2627 24.9286 12.7652 24.9286 15.272 24.9286C15.272 23.8112 15.272 22.7063 15.272 21.5921C15.206 21.5921 15.1625 21.5921 15.1191 21.5921C14.313 21.5921 13.5069 21.5922 12.7009 21.5922C11.1032 21.5922 9.50553 21.5933 7.90786 21.5899C7.78081 21.5896 7.7314 21.6146 7.7324 21.7576C7.73926 22.7635 7.73603 23.7695 7.73645 24.7754C7.73645 24.8184 7.74044 24.8614 7.74384 24.9286ZM1.61279 16.8753C1.8717 16.8753 2.115 16.8753 2.35831 16.8753C3.58785 16.8754 4.81739 16.8743 6.04694 16.8763C6.39722 16.8768 6.74756 16.8834 7.09767 16.8928C7.22003 16.8961 7.28681 16.8739 7.28135 16.7259C7.27032 16.4242 7.27055 16.1215 7.28118 15.8198C7.28616 15.6784 7.24415 15.6397 7.10272 15.6401C5.32548 15.6447 3.54824 15.643 1.771 15.6435C1.71983 15.6435 1.66871 15.6492 1.61273 15.6525C1.61279 16.0639 1.61279 16.4582 1.61279 16.8753ZM21.4014 15.6432C21.3229 15.6432 21.2604 15.6432 21.1978 15.6432C19.6052 15.6432 18.0126 15.6437 16.42 15.6424C16.2347 15.6423 16.0491 15.6383 15.8644 15.6249C15.745 15.6163 15.7254 15.6737 15.7272 15.7726C15.7332 16.0946 15.7343 16.4168 15.7384 16.7389C15.7389 16.7806 15.7454 16.8222 15.749 16.8633C17.6399 16.8633 19.5176 16.8633 21.4014 16.8633C21.4014 16.457 21.4014 16.0626 21.4014 15.6432ZM21.3941 18.831C21.3941 18.4239 21.3941 18.0196 21.3941 17.6122C19.5043 17.6122 17.6268 17.6122 15.7468 17.6122C15.7468 18.0237 15.7468 18.4218 15.7468 18.831C17.6324 18.831 19.5062 18.831 21.3941 18.831ZM8.67762 18.826C10.5711 18.826 12.4472 18.826 14.3373 18.826C14.3373 18.4362 14.3367 18.0614 14.3377 17.6866C14.3379 17.5939 14.2758 17.5881 14.2089 17.5898C14.0922 17.5929 13.9757 17.6024 13.859 17.6025C12.1849 17.6033 10.5107 17.603 8.83647 17.6033C8.78483 17.6033 8.73319 17.6085 8.67768 17.6115C8.67762 18.0235 8.67762 18.422 8.67762 18.826ZM8.67902 16.8673C10.5693 16.8673 12.4475 16.8673 14.3278 16.8673C14.3278 16.4559 14.3278 16.0577 14.3278 15.6514C12.4405 15.6514 10.5632 15.6514 8.67902 15.6514C8.67902 16.0599 8.67902 16.4542 8.67902 16.8673ZM1.61502 19.5703C1.61502 19.9822 1.61502 20.3801 1.61502 20.7928C1.68338 20.7928 1.74095 20.7928 1.79846 20.7928C2.47703 20.7928 3.15564 20.7928 3.83421 20.7928C4.93259 20.7928 6.03092 20.7913 7.1293 20.7951C7.24244 20.7955 7.28311 20.7665 7.28024 20.648C7.27267 20.3309 7.27484 20.0135 7.27936 19.6962C7.28077 19.5983 7.2543 19.5584 7.14849 19.5586C5.33727 19.5613 3.52606 19.5606 1.71484 19.5611C1.68638 19.5611 1.65786 19.5662 1.61502 19.5703ZM21.3986 19.5706C19.5089 19.5706 17.6283 19.5706 15.747 19.5706C15.747 19.9833 15.747 20.3813 15.747 20.7859C17.6355 20.7859 19.5122 20.7859 21.3986 20.7859C21.3986 20.3772 21.3986 19.979 21.3986 19.5706ZM14.3332 19.5785C12.435 19.5785 10.5562 19.5785 8.68343 19.5785C8.68343 19.9943 8.68343 20.3879 8.68343 20.7819C10.5726 20.7819 12.4502 20.7819 14.3332 20.7819C14.3332 20.3725 14.3332 19.9779 14.3332 19.5785ZM7.27736 17.6064C5.37806 17.6064 3.49713 17.6064 1.61713 17.6064C1.61713 18.026 1.61713 18.4239 1.61713 18.8343C1.68321 18.8343 1.73644 18.8343 1.78966 18.8343C3.55311 18.8343 5.31656 18.8343 7.08001 18.8343C7.11422 18.8343 7.15489 18.8454 7.18106 18.8308C7.21874 18.8097 7.27273 18.7703 7.27331 18.7378C7.27971 18.3674 7.27736 17.9968 7.27736 17.6064Z" fill="black"/>
<path d="M17.3438 10.7828C17.5997 8.68123 17.8533 6.59848 18.1079 4.50781C18.9757 4.50781 19.8331 4.50781 20.7067 4.50781C20.7385 4.76479 20.7721 5.02006 20.8013 5.27587C20.9033 6.16827 21.0032 7.06091 21.1051 7.95332C21.1577 8.41328 21.2111 8.87318 21.2681 9.33262C21.2804 9.4318 21.2692 9.49547 21.1578 9.53203C19.9145 9.94029 18.6726 10.353 17.4301 10.7642C17.4121 10.7703 17.3928 10.7724 17.3438 10.7828Z" fill="black"/>
<path d="M10.2852 10.7902C10.5426 8.67825 10.7959 6.5995 11.0507 4.50977C11.9188 4.50977 12.7806 4.50977 13.6573 4.50977C13.6774 4.69374 13.6974 4.87672 13.7176 5.05975C13.8105 5.90427 13.901 6.74908 13.9974 7.59319C14.0611 8.15116 14.1328 8.70818 14.2024 9.26544C14.2299 9.48574 14.2317 9.48551 14.0287 9.55276C12.8605 9.93966 11.6924 10.3266 10.5242 10.7135C10.4556 10.7361 10.3866 10.7576 10.2852 10.7902Z" fill="black"/>
<path d="M6.15362 9.77671C4.84544 10.2112 3.54929 10.6418 2.21875 11.0837C2.47485 8.97649 2.72813 6.89304 2.98322 4.79421C3.03534 4.79069 3.08199 4.78488 3.12858 4.78488C3.89541 4.78453 4.66229 4.78764 5.42911 4.78224C5.55369 4.78136 5.59295 4.81563 5.60639 4.94233C5.69289 5.75792 5.79013 6.57233 5.88297 7.38722C5.97293 8.17681 6.0619 8.96658 6.15362 9.77671Z" fill="black"/>
<path d="M7.14581 0.523424C7.29375 0.313864 7.35989 0.0426273 7.67244 0.07684C7.97841 0.110348 7.97853 0.393381 8.10881 0.63152C8.18833 0.538682 8.24853 0.45048 8.32588 0.38135C8.57564 0.158117 8.85938 0.0479676 9.18624 0.194442C9.48348 0.327655 9.64768 0.565031 9.65607 0.894951C9.67097 1.48126 9.03713 1.85696 8.51026 1.57709C8.45903 1.54986 8.40886 1.52076 8.33592 1.48015C8.18381 1.82885 7.89526 1.91382 7.53535 1.87016C7.62443 2.23787 7.65354 2.57783 7.33817 2.83087C7.03043 3.0777 6.71202 3.01931 6.39014 2.8287C6.34753 2.8733 6.30727 2.91438 6.26813 2.95651C6.13515 3.09976 5.96826 3.17071 5.77971 3.1264C5.63241 3.09178 5.56621 3.12065 5.51428 3.26807C5.43934 3.48068 5.2529 3.57539 5.03747 3.54629C4.82832 3.51806 4.67217 3.36801 4.63836 3.15645C4.61325 2.99941 4.67616 2.87042 4.7785 2.75652C4.82334 2.70664 4.86799 2.65664 4.92474 2.59326C4.8545 2.55124 4.79798 2.51592 4.74006 2.48311C4.42076 2.30231 4.30392 1.96323 4.45803 1.66271C4.61401 1.35849 4.95573 1.25169 5.28711 1.40362C5.32244 1.41982 5.35742 1.43666 5.37103 1.44312C5.52842 1.31478 5.67519 1.19506 5.84127 1.05968C5.69291 0.681929 5.69039 0.290214 6.15194 0.0777203C6.60668 -0.131605 6.8998 0.139045 7.14581 0.523424Z" fill="black"/>
<path d="M19.2894 2.59073C19.2191 2.55024 19.1616 2.51621 19.1032 2.48364C18.7836 2.30559 18.6667 1.96487 18.8222 1.66365C18.9816 1.35509 19.3169 1.24957 19.6497 1.40344C19.6848 1.4197 19.7196 1.43678 19.7313 1.44241C19.8913 1.3133 20.0394 1.19394 20.2058 1.05973C20.0397 0.678228 20.0696 0.314095 20.5029 0.0788315C20.6887 -0.022046 20.9012 -0.0320809 21.0786 0.0836436C21.2416 0.190096 21.3743 0.343202 21.5323 0.486567C21.5614 0.437448 21.604 0.370432 21.6419 0.300832C21.7241 0.149898 21.8471 0.0643366 22.0212 0.0754865C22.1991 0.0868712 22.3006 0.198136 22.3565 0.359164C22.3833 0.436509 22.4116 0.513385 22.456 0.637326C22.5478 0.535098 22.6114 0.450359 22.6886 0.380466C23.1108 -0.00191743 23.6682 0.0675056 23.9235 0.530814C24.0885 0.830102 24.0451 1.17616 23.8115 1.42486C23.5759 1.67574 23.237 1.74445 22.9272 1.60203C22.8569 1.56969 22.7897 1.53073 22.7023 1.48495C22.5449 1.81241 22.2744 1.92485 21.9067 1.86617C21.9184 1.95196 21.9231 2.01786 21.9371 2.08177C22.0059 2.39854 21.9281 2.66738 21.6619 2.85957C21.4057 3.04448 21.1324 3.0294 20.8598 2.88721C20.8255 2.86937 20.7912 2.85164 20.7442 2.82723C20.7059 2.87113 20.6701 2.91543 20.6309 2.95663C20.4973 3.09729 20.3308 3.16971 20.1418 3.12716C19.9964 3.09448 19.929 3.11801 19.877 3.26894C19.8045 3.47927 19.6098 3.57533 19.3981 3.5454C19.1869 3.51553 19.0146 3.36378 19.0106 3.15345C19.0083 3.03204 19.0685 2.9044 19.121 2.78891C19.1536 2.7179 19.2248 2.66444 19.2894 2.59073Z" fill="black"/>
<path d="M15.558 1.50451C15.4289 1.61901 15.3254 1.75433 15.1884 1.81994C15.0556 1.88361 14.8884 1.87563 14.731 1.89999C14.7485 2.0342 14.7884 2.1738 14.7807 2.31083C14.7504 2.85278 14.2068 3.15218 13.7103 2.90002C13.6001 2.84403 13.5387 2.83711 13.4572 2.94039C13.2814 3.16292 13.0402 3.16398 12.7799 3.09561C12.6944 3.28522 12.6303 3.50358 12.3913 3.53128C12.2731 3.54501 12.1339 3.52682 12.0294 3.47365C11.8561 3.38545 11.784 3.20488 11.8359 3.02425C11.8807 2.86809 11.9893 2.73024 12.0763 2.5725C12.02 2.53958 11.9439 2.49838 11.8713 2.45179C11.5883 2.27057 11.4914 1.93977 11.6385 1.66325C11.7947 1.3696 12.1283 1.25628 12.4413 1.39108C12.4859 1.41027 12.5293 1.43233 12.5527 1.44343C12.7099 1.31573 12.8569 1.19625 13.0257 1.05905C12.8664 0.684526 12.884 0.309536 13.3211 0.0835447C13.6588 -0.0910396 13.9066 0.0248609 14.3373 0.508768C14.3864 0.428077 14.4352 0.352903 14.4789 0.274854C14.5588 0.132076 14.6813 0.0643551 14.8416 0.076268C14.9968 0.0878287 15.1038 0.173918 15.1602 0.319278C15.1951 0.409005 15.2266 0.499965 15.2665 0.609C15.3627 0.517746 15.4439 0.436645 15.5295 0.360298C15.8388 0.0843076 16.2267 0.0572544 16.5339 0.288175C16.8351 0.514577 16.9191 0.915153 16.7407 1.27459C16.5702 1.61813 16.1192 1.77217 15.7586 1.60821C15.6838 1.57417 15.6124 1.53286 15.558 1.50451Z" fill="black"/>
</svg>
