<svg width="78" height="70" viewBox="0 0 78 70" fill="none" xmlns="http://www.w3.org/2000/svg">
<g clip-path="url(#clip0)">
<path d="M39.7991 61.4118C39.4698 60.9795 39.1594 60.5442 38.82 60.1338C36.9885 57.9193 34.5596 56.9916 31.7752 56.6414C24.8543 55.7694 18.2379 53.9052 12.2407 50.1943C9.49273 48.4943 7.02742 46.4586 5.12745 43.8045C1.05066 38.1049 1.14537 31.7311 5.38971 26.1458C7.57673 23.2689 10.3786 21.1174 13.4996 19.3705C19.5026 16.0085 26.0082 14.2996 32.7907 13.5273C33.5134 13.4452 34.239 13.3954 34.9632 13.3279C35.0069 13.3235 35.0477 13.2884 35.1803 13.221C33.5295 11.3509 32.8738 9.20383 33.5061 6.76219C33.8981 5.24679 34.765 4.03477 36.0399 3.12612C38.5271 1.35278 42.0371 1.57554 44.2343 3.65079C45.5908 4.9317 46.3281 6.51158 46.3572 8.38165C46.3863 10.2341 45.7205 11.8448 44.3392 13.2825C45.2761 13.3748 46.0658 13.4379 46.8497 13.5346C53.5666 14.3656 60.0504 15.9865 65.9981 19.3602C69.4556 21.3212 72.5489 23.7262 74.7796 27.0926C78.4397 32.6148 78.2241 38.738 74.2303 44.0272C71.6951 47.3848 68.3832 49.7547 64.6926 51.6467C59.405 54.358 53.7633 55.9013 47.9031 56.6223C44.5578 57.0341 41.8258 58.3517 39.9666 61.2594C39.9302 61.3151 39.8647 61.3532 39.7991 61.4118ZM12.0323 34.2797C12.2961 30.4839 13.7881 27.2421 16.0625 24.3607C14.8736 23.6133 13.7735 22.9054 12.6501 22.2342C12.4957 22.1419 12.1737 22.1536 12.0251 22.2562C9.33245 24.1043 6.98663 26.2982 5.38389 29.1957C4.51841 30.7609 3.9487 32.4243 3.84817 34.2797C6.57866 34.2797 9.26106 34.2797 12.0323 34.2797ZM37.3061 28.224C37.5582 25.1272 37.8044 22.1096 38.0565 19.0173C35.7631 19.0173 33.5863 19.0085 31.4095 19.0319C31.2011 19.0349 30.949 19.199 30.7961 19.3617C29.9 20.3172 28.9223 21.2186 28.1748 22.2826C27.2657 23.5767 26.559 25.0129 25.7066 26.4873C29.6261 27.5249 33.3765 28.0598 37.3061 28.224ZM42.3547 28.1991C46.2144 28.0716 49.9269 27.5278 53.6322 26.5738C53.5754 26.3876 53.5506 26.2733 53.5069 26.1678C52.4899 23.7364 51.0547 21.5938 49.178 19.7413C48.6273 19.199 48.0634 18.9176 47.2606 18.9572C45.8822 19.0261 44.4995 18.9762 43.1182 18.9762C42.6403 18.9762 42.1609 18.9762 41.6131 18.9762C41.8608 22.0803 42.1041 25.0833 42.3547 28.1991ZM63.4905 24.4677C65.7708 27.3534 67.1666 30.5909 67.4682 34.2621C70.2351 34.2621 72.9321 34.2621 75.6975 34.2621C75.5722 33.5718 75.5023 32.9402 75.3391 32.3334C74.1429 27.8986 71.1793 24.8356 67.5513 22.306C67.4216 22.2152 67.1302 22.2239 66.9859 22.309C65.8407 22.9919 64.7144 23.7056 63.4905 24.4677ZM13.4267 34.2577C16.6045 34.2577 19.7095 34.2577 22.6833 34.2577C23.0709 31.9524 23.4453 29.7321 23.8125 27.5498C21.8061 26.7482 19.7444 25.9157 17.674 25.1126C17.5399 25.0613 17.2544 25.1815 17.148 25.3104C15.0382 27.8957 13.7152 30.8166 13.4267 34.2577ZM55.6633 27.544C56.0523 29.8566 56.4224 32.0491 56.7969 34.2709C59.8173 34.2709 62.9019 34.2709 66.0301 34.2709C65.7678 30.8518 64.4521 27.9323 62.354 25.3471C62.252 25.221 61.8819 25.2078 61.6896 25.2811C60.4482 25.7574 59.2272 26.2924 57.9858 26.7687C57.199 27.0691 56.3889 27.3036 55.6633 27.544ZM24.0864 34.2548C28.5216 34.2548 32.6917 34.2548 36.9054 34.2548C37.0001 32.694 37.0905 31.1991 37.1721 29.8449C33.1594 29.244 29.2487 28.6593 25.1559 28.0467C24.8149 30.0266 24.4579 32.099 24.0864 34.2548ZM55.2218 34.2856C55.1665 32.0799 54.8313 30.012 54.2048 28.1287C50.2504 28.7076 46.3878 29.2733 42.464 29.8478C42.5514 31.2563 42.6447 32.7541 42.7394 34.2841C46.9153 34.2856 51.0226 34.2856 55.2218 34.2856ZM11.9493 36.0369C9.20423 36.0369 6.54806 36.0369 3.89479 36.0369C3.80154 39.9119 8.13477 46.2915 11.9493 47.9066C11.9493 43.9583 11.9493 40.0262 11.9493 36.0369ZM67.5309 36.0428C67.5309 40.0467 67.5309 43.9774 67.5309 47.933C71.4998 46.0336 75.8433 39.6144 75.5795 36.0428C72.9233 36.0428 70.2643 36.0428 67.5309 36.0428ZM36.8763 36.034C32.6115 36.034 28.4808 36.034 24.2773 36.034C24.3632 38.1224 24.6692 40.1068 25.2914 41.8552C29.1248 41.2778 32.8243 40.7209 36.6125 40.1508C36.6956 38.8582 36.7845 37.482 36.8763 36.034ZM54.2121 41.8831C54.7876 40.0526 55.1563 38.0902 55.2087 36.0355C51.0445 36.0355 46.9633 36.0355 42.7816 36.0355C42.8778 37.4879 42.9711 38.8845 43.057 40.1772C46.8031 40.7502 50.4544 41.3086 54.2121 41.8831ZM25.813 43.3956C26.4832 45.1645 27.4026 46.6902 28.4327 48.1675C28.9412 48.8973 29.4716 49.0966 30.3619 48.9442C33.9666 48.3301 36.5295 45.3008 36.2833 41.7659C32.7631 41.9915 29.2851 42.4591 25.813 43.3956ZM43.2202 41.7702C43.4504 42.7405 43.6238 43.611 43.8657 44.464C44.4674 46.5832 45.9041 47.8831 47.9468 48.5661C50.1878 49.315 50.3043 49.3165 51.5778 47.3555C52.3748 46.1259 53.0275 44.8025 53.7954 43.4337C50.2388 42.4869 46.8366 41.9798 43.2202 41.7702ZM61.1534 24.0471C58.8018 21.1995 51.8561 17.2894 48.8648 17.1633C49.076 17.5444 49.1693 17.9005 49.3995 18.0998C51.8153 20.1927 53.5666 22.7574 54.8313 25.6798C54.9056 25.8527 55.0018 26.0168 55.1315 26.2718C57.1335 25.5317 59.1034 24.8048 61.1534 24.0471ZM24.3414 26.2162C24.4798 25.9963 24.5862 25.8688 24.6474 25.7223C25.9339 22.6709 27.764 20.0241 30.3225 17.902C30.5134 17.7437 30.56 17.4096 30.6751 17.1575C25.9572 18.3182 21.8805 20.4316 18.3603 23.9445C20.4409 24.733 22.3773 25.4702 24.3414 26.2162ZM56.7677 36.0296C56.3962 38.1957 56.0363 40.2886 55.6662 42.4473C59.0946 40.3428 62.5026 38.2529 65.9106 36.1615C65.8932 36.1175 65.8742 36.0736 65.8567 36.0296C62.8188 36.0296 59.7794 36.0296 56.7677 36.0296ZM22.7182 36.0472C19.7561 36.0472 16.7517 36.0472 13.7487 36.0472C13.7356 36.0897 13.7225 36.1307 13.7094 36.1732C17.0708 38.2485 20.4307 40.3237 23.8154 42.4136C23.4424 40.2534 23.0854 38.184 22.7182 36.0472ZM39.8472 11.5121C41.5388 11.4974 42.8705 10.1198 42.8414 8.41535C42.8137 6.74754 41.4659 5.44318 39.7874 5.45784C38.09 5.47249 36.7655 6.84133 36.7947 8.55165C36.8209 10.2107 38.1789 11.5282 39.8472 11.5121ZM49.4563 15.6113C49.5598 15.6919 49.5933 15.7359 49.6355 15.7476C54.4161 17.2029 58.7522 19.4291 62.271 23.0828C62.3628 23.178 62.6017 23.2542 62.6964 23.2015C63.7659 22.6123 64.8208 21.9968 65.9252 21.3622C63.269 19.1858 53.7298 15.8736 49.4563 15.6113ZM29.9757 15.7007C24.2307 16.5331 18.7522 18.1467 13.6059 21.2215C14.6783 21.8517 15.6414 22.4027 16.587 22.9831C16.9382 23.1986 17.1597 23.159 17.4554 22.86C20.6799 19.5903 24.5803 17.4608 28.9005 16.0466C29.2589 15.9293 29.6188 15.815 29.9757 15.7007ZM13.265 48.8709C17.4467 51.4269 21.8324 52.9994 26.4483 53.9902C22.7212 52.2505 19.4487 49.8822 16.5725 46.8734C15.4841 47.5314 14.435 48.1645 13.265 48.8709ZM66.2035 48.9076C65.2054 48.3037 64.3268 47.8025 63.4818 47.2471C63.0374 46.9554 62.778 46.9965 62.3963 47.3966C59.8756 50.039 56.9805 52.167 53.6526 53.6809C53.4894 53.7557 53.335 53.8465 53.1761 53.9301C57.7221 52.9423 62.0626 51.443 66.2035 48.9076ZM20.0358 45.2598C22.2986 46.9115 24.5876 48.0986 27.1112 48.9471C26.1437 47.1782 25.2302 45.506 24.2802 43.7678C22.9455 44.2383 21.5614 44.7234 20.0358 45.2598ZM52.3631 48.9501C54.8386 48.0707 57.1611 46.9496 59.4006 45.2598C57.8751 44.7219 56.4982 44.2368 55.2102 43.781C54.2296 45.5602 53.3116 47.2266 52.3631 48.9501Z" fill="#002961"/>
<path d="M8.6254 59.0835C9.53314 57.5857 10.3374 56.2593 11.1971 54.8407C11.9343 55.2906 12.6454 55.7259 13.4074 56.1905C11.8775 58.7288 10.3738 61.2217 8.82793 63.785C8.21597 63.4084 7.62442 63.0845 7.0824 62.6917C6.89881 62.5583 6.78516 62.2623 6.73271 62.0205C6.3364 60.2134 5.9634 58.4005 5.58019 56.5906C5.54231 56.4132 5.4782 56.2403 5.38058 55.9091C4.47139 57.4054 3.64379 58.7655 2.7958 60.1621C2.03814 59.6976 1.34022 59.2696 0.589844 58.8109C2.12702 56.2623 3.64088 53.7532 5.18242 51.2002C5.80021 51.5739 6.37574 51.8861 6.90464 52.2642C7.09114 52.3976 7.22373 52.679 7.27619 52.9149C7.6725 54.697 8.04113 56.4865 8.41996 58.2716C8.46513 58.4811 8.52487 58.6863 8.6254 59.0835Z" fill="#EE1D24"/>
<path d="M25.3033 7.59311C24.2878 6.77679 23.3363 6.0103 22.2202 5.11337C22.583 6.90429 22.905 8.48711 23.2387 10.1344C22.414 10.3059 21.6433 10.4656 20.8025 10.64C20.2081 7.76605 19.6282 4.96681 19.0352 2.09869C19.7695 1.94334 20.4237 1.76894 21.0881 1.6854C21.3052 1.65755 21.585 1.82023 21.7773 1.97119C22.7258 2.71863 23.654 3.49245 24.6637 4.3161C25.2115 3.25649 25.7506 2.28482 26.2184 1.27944C26.4777 0.721056 26.8143 0.389837 27.4452 0.326818C27.9216 0.278454 28.3893 0.128966 28.9299 0.00878906C29.5215 2.84027 30.1072 5.64244 30.7148 8.5472C29.8726 8.72453 29.0625 8.896 28.2028 9.07773C27.859 7.43629 27.5311 5.87107 27.1552 4.07281C26.4894 5.33613 25.9153 6.42798 25.3033 7.59311Z" fill="#EE1D24"/>
<path d="M8.17067 6.28711C9.7093 8.76685 11.2159 11.1924 12.7778 13.7088C12.0522 14.1631 11.3674 14.591 10.6214 15.0585C10.0007 14.0795 9.4077 13.146 8.78408 12.1626C7.64031 12.8792 6.53879 13.571 5.37316 14.3023C5.972 15.2828 6.54899 16.2266 7.16095 17.2261C6.43389 17.6761 5.74179 18.104 4.97539 18.5774C3.44259 16.1094 1.93601 13.6838 0.382812 11.1821C1.10987 10.7278 1.80051 10.2969 2.55962 9.82353C3.12933 10.7249 3.68154 11.5969 4.27601 12.5378C5.40959 11.824 6.50674 11.1337 7.67674 10.398C7.11724 9.47619 6.5825 8.59538 6.01426 7.66035C6.73549 7.20162 7.42176 6.76489 8.17067 6.28711Z" fill="#EE1D24"/>
<path d="M67.2399 14.1133C66.475 13.6868 65.78 13.2999 64.9961 12.8617C66.4094 10.3145 67.8038 7.79961 69.2302 5.23047C71.9199 6.73561 74.5557 8.21144 77.2483 9.71951C75.8292 12.2769 74.4406 14.7772 73.0142 17.3493C72.2682 16.9316 71.5601 16.5359 70.7878 16.1035C71.8689 14.1558 72.9253 12.2549 74.0181 10.2852C72.8437 9.62425 71.7101 8.98819 70.4891 8.30084C69.4065 10.2383 68.3444 12.1377 67.2399 14.1133Z" fill="#EE1D24"/>
<path d="M73.6415 58.1734C74.233 59.1085 74.8013 60.0069 75.4234 60.9888C74.7066 61.4534 74.0057 61.9077 73.2379 62.406C71.6366 59.9204 70.0513 57.4553 68.418 54.9199C69.9144 53.9848 71.3335 53.0029 72.8401 52.1836C74.1995 51.445 75.6157 51.9052 76.3953 53.1495C77.15 54.3556 76.8644 55.8285 75.6434 56.7826C75.0184 57.2736 74.3365 57.6942 73.6415 58.1734ZM71.5433 54.9492C71.9498 55.5735 72.3316 56.1627 72.7075 56.7401C74.319 55.7933 74.6119 55.3258 74.1354 54.5901C73.605 53.7738 72.9129 53.8544 71.5433 54.9492Z" fill="#EE1D24"/>
<path d="M34.4127 63.9901C33.4759 63.6252 32.625 63.2309 31.7347 62.9745C31.3209 62.8558 30.8139 62.9378 30.3753 63.0448C29.1674 63.3394 28.4433 64.229 28.4039 65.3619C28.3675 66.4186 29.131 67.4401 30.2412 67.8226C31.1971 68.1523 32.2214 68.0776 33.9523 67.5309C33.8795 68.1582 33.8445 68.7547 33.7221 69.3336C33.6871 69.5021 33.4249 69.6971 33.2325 69.7469C31.4797 70.1983 29.7531 70.0444 28.1154 69.3028C26.3218 68.4909 25.4418 66.5461 25.8279 64.4694C26.2315 62.3047 27.7322 60.9725 29.9498 60.8201C31.4943 60.7146 32.9295 61.1279 34.2933 61.8093C34.4564 61.8914 34.6269 62.1669 34.6182 62.3443C34.592 62.9232 34.4812 63.4962 34.4127 63.9901Z" fill="#EE1D24"/>
<path d="M55.4334 62.2118C54.482 62.115 53.6486 61.9597 52.8195 61.9817C52.5121 61.9905 52.0502 62.3598 51.9526 62.6617C51.7879 63.1644 52.2935 63.3329 52.6913 63.4634C53.4285 63.7037 54.1789 63.9045 54.906 64.1712C55.8982 64.5347 56.5291 65.222 56.5816 66.3315C56.6326 67.4175 56.1313 68.2001 55.1974 68.7086C53.8234 69.4561 52.3649 69.4663 50.8846 69.1454C50.7447 69.1146 50.5742 68.9197 50.5363 68.7702C50.4052 68.2558 50.3265 67.7267 50.21 67.1024C50.6165 67.2137 50.9429 67.3515 51.2809 67.3852C51.9001 67.4468 52.5412 67.5318 53.1444 67.4351C53.4635 67.3838 53.7243 66.9675 54.0114 66.7155C53.7593 66.456 53.5509 66.0897 53.2435 65.9592C52.6461 65.7057 51.9846 65.6119 51.3654 65.4038C50.583 65.1414 49.9346 64.6944 49.5951 63.8913C49.0618 62.6251 49.5762 61.2489 50.8627 60.6465C52.0429 60.094 53.2945 60.0603 54.565 60.264C54.9846 60.3314 55.1901 60.5513 55.2338 60.9821C55.2775 61.4306 55.3766 61.8761 55.4334 62.2118Z" fill="#EE1D24"/>
<path d="M50.371 0C53.355 0.596487 56.2429 1.17392 59.1847 1.76161C59.0593 2.44017 58.9457 3.05278 58.8175 3.74013C57.7495 3.54375 56.7383 3.35909 55.6557 3.16123C55.22 5.35372 54.796 7.48906 54.3589 9.69328C53.5168 9.535 52.7198 9.38404 51.8572 9.22283C52.2797 7.03766 52.6921 4.90086 53.1219 2.6732C52.0758 2.45483 51.0719 2.24525 49.9922 2.02102C50.1175 1.34832 50.2355 0.713732 50.371 0Z" fill="#EE1D24"/>
</g>
<defs>
<clipPath id="clip0">
<rect width="77" height="70" fill="white" transform="translate(0.382812 0.000976562)"/>
</clipPath>
</defs>
</svg>
