<svg width="202" height="79" viewBox="0 0 202 79" fill="none" xmlns="http://www.w3.org/2000/svg">
<path d="M183.363 19.5366C189.275 19.5366 195.187 19.5431 201.099 19.5234C201.668 19.5234 201.806 19.6941 201.799 20.239C201.773 22.9962 201.793 25.76 201.786 28.5172C201.786 29.2525 201.78 29.2525 201.059 29.2525C191.789 29.2525 182.518 29.2459 173.248 29.2591C172.704 29.2591 172.122 29.3903 171.618 29.607C170.976 29.8827 170.662 30.4604 170.662 31.1825C170.662 36.5197 170.681 41.8569 170.642 47.1941C170.636 48.2576 171.539 49.1636 172.645 49.157C181.844 49.1307 191.043 49.1439 200.235 49.1439C200.437 49.1439 200.64 49.1439 200.843 49.1439C201.714 49.1439 201.786 48.9075 201.78 50.1089C201.773 52.8661 201.767 55.6299 201.786 58.3871C201.793 58.886 201.622 58.9976 201.151 58.9976C189.622 58.9845 178.093 58.9714 166.563 58.9976C164.298 59.0042 162.668 58.1573 161.614 56.0894C160.782 54.4614 159.8 52.9055 158.864 51.3299C158.006 49.8791 157.62 48.3101 157.62 46.6361C157.62 41.9094 157.666 37.1762 157.587 32.4495C157.548 30.0206 158.321 27.9264 159.584 25.9241C160.481 24.493 161.26 22.9897 162.138 21.5454C162.701 20.6132 163.525 19.9502 164.619 19.7466C165.274 19.6219 165.948 19.5431 166.616 19.5431C172.2 19.5234 177.778 19.53 183.363 19.5366Z" fill="white"/>
<path d="M107.488 19.5366C107.848 19.5366 108.123 19.5366 108.392 19.5366C112.189 19.5366 115.993 19.5431 119.79 19.5234C120.314 19.5234 120.464 19.6613 120.464 20.1996C120.445 29.1212 120.464 38.0428 120.438 46.9644C120.432 48.0672 121.263 49.1701 122.677 49.1636C131.797 49.1176 140.917 49.1439 150.044 49.1307C150.509 49.1307 150.64 49.2752 150.633 49.7281C150.613 52.5773 150.607 55.433 150.64 58.2821C150.646 58.8401 150.489 58.9977 149.932 58.9977C139.988 58.978 130.036 58.9845 120.091 58.978C118.769 58.978 117.446 58.978 116.124 58.9845C114.081 58.9911 112.601 58.1245 111.619 56.2929C110.637 54.4482 109.524 52.6757 108.51 50.8507C107.861 49.6887 107.495 48.4349 107.495 47.0891C107.495 38.1084 107.495 29.1343 107.495 20.1537C107.488 19.983 107.488 19.8057 107.488 19.5366Z" fill="white"/>
<path d="M96.8718 58.9852C92.4591 58.9852 88.1315 58.9852 83.7123 58.9852C83.7123 58.762 83.7123 58.552 83.7123 58.3353C83.7123 45.6062 83.7123 32.8704 83.6992 20.1412C83.6992 19.6554 83.8171 19.5176 84.3081 19.5176C88.3083 19.5373 92.3085 19.5373 96.3087 19.5176C96.7343 19.5176 96.8783 19.6161 96.8783 20.069C96.8652 32.8573 96.8652 45.639 96.8652 58.4272C96.8718 58.5979 96.8718 58.762 96.8718 58.9852Z" fill="white"/>
<path d="M33.2461 78.6136H55.9707L66.4917 59.0898H43.7671L33.2461 78.6136Z" fill="#F67636"/>
<path d="M66.4917 19.5237L55.9707 0H33.2461L43.7671 19.5237L33.2461 39.0475H55.9707L66.4917 19.5237Z" fill="#F67636"/>
<path d="M22.7246 19.5234H0L10.521 39.0472L0 58.5644H22.7246L33.2456 39.0472L22.7246 19.5234Z" fill="#F67636"/>
</svg>
