<svg width="70" height="70" viewBox="0 0 70 70" fill="none" xmlns="http://www.w3.org/2000/svg">
<path d="M48.4605 2.85604C71.4947 11.2589 77.508 43.7832 59.3694 60.2743C37.5129 81.5571 -0.0236185 65.5413 0.0114123 35.1426C-0.638502 10.9387 26.6003 -7.26674 48.4605 2.85604ZM56.3618 56.5022C63.0117 49.9873 66.5696 40.2408 65.0416 31.0081C62.6249 34.6706 57.8677 37.0833 52.7605 37.0833C47.6534 37.0833 37.6622 37.0442 37.6622 37.0442L37.4382 59.599L36.255 59.5594L36.6837 14.0943C36.6837 14.0943 39.1612 14.0966 52.572 14.0966C67.0342 14.0966 67.5265 33.6595 52.566 33.6595C39.7373 33.6595 37.7475 33.6163 37.7475 33.6163L37.7258 34.2387C37.7258 34.2387 39.4391 34.3734 52.566 34.3734C68.1589 34.3734 68.1741 13.1923 52.3839 13.1923C36.5938 13.1923 35.6346 13.3326 35.6346 13.3326C35.6346 13.3326 35.8858 42.8623 35.216 57.3325C28.7819 43.4171 22.0421 29.5214 15.7633 15.5686C15.3383 14.6463 13.6785 12.338 14.1648 11.5367C16.7801 9.28547 19.6647 7.47766 22.8184 6.09582C31.7784 2.26769 42.567 2.92918 50.9527 7.90454C52.8085 8.84847 54.1903 10.7174 56.3738 10.7897C45.7318 0.932312 28.7423 0.390432 16.9124 8.22976C-14.3743 31.1608 11.2655 78.735 47.6442 65.0072C61.7031 58.9807 70.5447 42.7813 66.5724 27.7398C65.5781 29.4004 66.8231 31.549 66.7 33.3955C66.9439 37.7508 66.3059 42.1893 64.6484 46.241C59.2011 61.2849 41.3492 70.1045 26.0467 65.1815C5.95836 59.7466 -3.37875 33.2961 9.52137 16.7807C10.4921 15.1942 11.9745 13.7328 13.3176 12.3656C20.6418 28.1156 27.9863 43.8044 35.2875 59.5714C34.2541 59.5341 32.8833 59.8547 31.9702 59.4232C30.551 56.3923 29.1622 53.3466 27.6927 50.3364C24.0242 42.2749 20.0108 34.2939 16.4335 26.2232C14.6815 22.9553 13.289 19.4694 11.5919 16.162C-11.3312 46.2286 28.7395 82.1804 56.3701 56.4944C56.3696 56.4944 56.3618 56.5022 56.3618 56.5022ZM15.7361 11.9305C21.3968 23.8633 26.8865 36.0147 32.6159 47.9614C32.6477 47.954 32.6795 47.9472 32.7109 47.9398C32.7118 35.6003 32.7127 23.2612 32.7127 10.9217C32.6408 10.4304 32.9759 10.5767 33.3262 10.5537C39.7406 10.5242 46.1526 10.6112 52.5651 10.5206C42.1632 2.48206 26.7437 3.29626 16.5169 11.2414C16.5243 11.2437 16.5317 11.2455 16.5386 11.2478C16.2694 11.4769 15.9998 11.7065 15.7361 11.9305ZM37.8332 15.4256L37.7378 32.2423C37.7378 32.2423 40.5085 32.2326 53.5994 32.2326C65.214 32.2326 65.2818 15.4021 52.8043 15.4021C42.6785 15.4021 37.8332 15.4256 37.8332 15.4256Z" fill="#158AB8"/>
</svg>
