<svg width="93" height="70" viewBox="0 0 93 70" fill="none" xmlns="http://www.w3.org/2000/svg">
<path d="M31.4591 63.1281V63.4816H28.5273V63.1281L29.5378 62.948L32.5759 54.4642H33.839L36.9968 62.948L38.1269 63.1281V63.4816H34.3576V63.1281L35.5542 62.948L34.67 60.3669H31.1599L30.2624 62.948L31.4591 63.1281ZM32.8884 55.4246L31.3593 59.7666H34.4639L32.8884 55.4246Z" fill="#3E3E3E"/>
<path d="M39.1573 61.0738H39.5895L39.8221 62.2811C39.9861 62.49 40.2675 62.6746 40.6664 62.8346C41.0697 62.9947 41.4664 63.0747 41.8564 63.0747C42.4769 63.0747 42.9599 62.9169 43.3056 62.6012C43.6558 62.2811 43.8308 61.8409 43.8308 61.2806C43.8308 60.9605 43.7621 60.6959 43.6247 60.4869C43.4918 60.2779 43.3145 60.1023 43.0929 59.96C42.8757 59.8133 42.6275 59.691 42.3483 59.5932C42.0691 59.4909 41.781 59.3886 41.4841 59.2864C41.1916 59.1841 40.9057 59.0707 40.6265 58.9462C40.3473 58.8217 40.0969 58.6639 39.8753 58.4727C39.6581 58.2815 39.4809 58.0458 39.3435 57.7657C39.2105 57.4811 39.144 57.1321 39.144 56.7185C39.144 56.0071 39.41 55.4491 39.9418 55.0444C40.4736 54.6398 41.2115 54.4375 42.1555 54.4375C42.8735 54.4375 43.6535 54.5331 44.4956 54.7243V56.5851H44.0635L43.8308 55.4913C43.3788 55.1623 42.8203 54.9978 42.1555 54.9978C41.5617 54.9978 41.0963 55.12 40.7595 55.3646C40.4271 55.6047 40.2609 55.9382 40.2609 56.365C40.2609 56.6541 40.3274 56.8942 40.4603 57.0854C40.5977 57.2766 40.775 57.4411 40.9922 57.5789C41.2138 57.7123 41.4642 57.8279 41.7434 57.9257C42.027 58.0236 42.3151 58.1258 42.6076 58.2326C42.9045 58.3348 43.1926 58.4527 43.4718 58.586C43.7555 58.715 44.0059 58.8817 44.223 59.0863C44.4446 59.2864 44.6219 59.5331 44.7549 59.8266C44.8923 60.1156 44.961 60.4736 44.961 60.9004C44.961 61.763 44.6973 62.4322 44.1699 62.908C43.6425 63.3793 42.8824 63.615 41.8896 63.615C41.411 63.615 40.9301 63.5728 40.447 63.4883C39.9639 63.4038 39.5341 63.2882 39.1573 63.1414V61.0738Z" fill="#3E3E3E"/>
<path d="M47.906 63.4816V63.1281L49.322 62.948V55.1111H48.9829C47.8617 55.1111 47.0949 55.1556 46.6828 55.2445L46.5033 56.6385H46.0579V54.5375H53.9024V56.6385H53.4503L53.2708 55.2445C53.1379 55.2134 52.8476 55.1867 52.4 55.1645C51.9523 55.1378 51.4626 55.1245 50.9308 55.1245H50.605V62.948L52.021 63.1281V63.4816H47.906Z" fill="#3E3E3E"/>
<path d="M56.1095 63.1281V63.4816H53.1778V63.1281L54.1882 62.948L57.2263 54.4642H58.4894L61.6472 62.948L62.7773 63.1281V63.4816H59.008V63.1281L60.2046 62.948L59.3204 60.3669H55.8103L54.9129 62.948L56.1095 63.1281ZM57.5388 55.4246L56.0098 59.7666H59.1143L57.5388 55.4246Z" fill="#3E3E3E"/>
<path d="M65.7024 59.4664V62.948L67.1849 63.1281V63.4816H63.3623V63.1281L64.4194 62.948V55.0645L63.2759 54.891V54.5375H69.9637V56.6785H69.5249L69.3122 55.2312C68.8158 55.1689 68.0979 55.1378 67.1583 55.1378H65.7024V58.8662H68.3283L68.5344 57.799H68.9399V60.5469H68.5344L68.3283 59.4664H65.7024Z" fill="#3E3E3E"/>
<path d="M73.3741 62.948L74.5175 63.1281V63.4816H70.9543V63.1281L72.0977 62.948V55.0645L70.9543 54.891V54.5375H74.5175V54.891L73.3741 55.0645V62.948Z" fill="#3E3E3E"/>
<path d="M75.3884 63.1281L76.5318 62.948V55.0645L75.3884 54.891V54.5375H82.0762V56.6785H81.6374L81.4247 55.2312C80.9283 55.1689 80.2103 55.1378 79.2708 55.1378H77.8149V58.6327H80.2214L80.4275 57.5656H80.853V60.3135H80.4275L80.2214 59.233H77.8149V62.8813H79.5699C80.7134 62.8813 81.4624 62.8458 81.8169 62.7746L82.1959 61.1205H82.6346L82.5083 63.4816H75.3884V63.1281Z" fill="#3E3E3E"/>
<path d="M92.9987 54.5375V54.891L92.0214 55.0645L88.4382 63.6884H88.0992L84.4761 55.0645L83.4722 54.891V54.5375H87.0754V54.891L85.8788 55.0645L88.5778 61.6474L91.2702 55.0645L90.1002 54.891V54.5375H92.9987Z" fill="#3E3E3E"/>
<path d="M30.6861 70.0001H30.2221V66.4108H28.9587V65.9974H31.9495V66.4108H30.6861V70.0001Z" fill="#3E3E3E"/>
<path d="M34.7766 70.0001H32.5526V65.9974H34.7766V66.4108H33.0165V67.7004H34.6702V68.111H33.0165V69.584H34.7766V70.0001Z" fill="#3E3E3E"/>
<path d="M36.1274 68.3355V70.0001H35.6635V65.9974H36.7578C37.2472 65.9974 37.6083 66.0914 37.8412 66.2794C38.0759 66.4674 38.1932 66.7503 38.1932 67.1282C38.1932 67.6575 37.9258 68.0152 37.3909 68.2014L38.4743 70.0001H37.9258L36.9597 68.3355H36.1274ZM36.1274 67.9358H36.7633C37.0907 67.9358 37.3309 67.871 37.4837 67.7414C37.6365 67.61 37.7129 67.4138 37.7129 67.1528C37.7129 66.8881 37.6347 66.6974 37.4782 66.5806C37.3236 66.4638 37.0744 66.4054 36.7305 66.4054H36.1274V67.9358Z" fill="#3E3E3E"/>
<path d="M40.8839 70.0001L39.5303 66.4519H39.5085C39.534 66.733 39.5467 67.067 39.5467 67.454V70.0001H39.1183V65.9974H39.8169L41.0803 69.2992H41.1022L42.3766 65.9974H43.0697V70.0001H42.6058V67.4211C42.6058 67.1254 42.6185 66.8042 42.644 66.4574H42.6222L41.2577 70.0001H40.8839Z" fill="#3E3E3E"/>
<path d="M44.1667 70.0001V65.9974H44.6306V70.0001H44.1667Z" fill="#3E3E3E"/>
<path d="M48.844 70.0001H48.3146L46.1342 66.6408H46.1124C46.1415 67.0351 46.1561 67.3965 46.1561 67.725V70.0001H45.7276V65.9974H46.2516L48.4265 69.343H48.4483C48.4447 69.2938 48.4365 69.1359 48.4238 68.8694C48.411 68.6011 48.4065 68.4095 48.4101 68.2945V65.9974H48.844V70.0001Z" fill="#3E3E3E"/>
<path d="M52.4488 70.0001L51.9522 68.727H50.3531L49.8619 70.0001H49.3925L50.9698 65.981H51.36L52.9291 70.0001H52.4488ZM51.8076 68.3082L51.3436 67.0679C51.2836 66.9109 51.2218 66.7184 51.1581 66.4902C51.1181 66.6655 51.0608 66.858 50.9862 67.0679L50.5168 68.3082H51.8076Z" fill="#3E3E3E"/>
<path d="M53.4776 70.0001V65.9974H53.9415V69.5785H55.7017V70.0001H53.4776Z" fill="#3E3E3E"/>
<path fill-rule="evenodd" clip-rule="evenodd" d="M68.6523 35.3031C68.6593 35.0176 68.6628 34.7312 68.6628 34.4439C68.6628 34.1514 68.6592 33.8598 68.652 33.569C67.4985 30.1377 63.5872 28.2199 60.0407 28.1409C55.0092 28.0289 51.5906 29.2188 49.1481 30.8093C52.4625 30.1049 56.9034 30.2286 62.7166 32.3709C64.9195 33.1827 66.8919 34.1863 68.6523 35.3031ZM68.2887 39.5462C68.0285 37.9911 67.1561 36.3249 64.2662 35.4837C60.2757 34.3222 57.0534 34.2384 54.4328 34.6973C56.6474 35.106 59.1456 35.9166 61.9469 37.2916C64.2437 38.419 66.2512 39.7573 68.0018 41.2041C68.1105 40.656 68.2063 40.1033 68.2887 39.5462ZM66.9563 45.198C66.7952 43.696 66.0269 42.0781 63.3937 41.0066C62.2575 40.5442 61.1782 40.1821 60.153 39.9061C61.1088 40.6118 62.0919 41.4254 63.1 42.3608C64.4313 43.5961 65.5928 44.8911 66.6061 46.2141C66.7279 45.8778 66.8447 45.5391 66.9563 45.198ZM64.7703 50.3895C64.7989 49.45 64.1864 48.4197 61.9474 46.6153C61.6753 46.396 61.4067 46.1855 61.1416 45.9836L64.3808 51.115C64.5134 50.8749 64.6433 50.633 64.7703 50.3895ZM35.1157 68.8791L39.8212 68.4499C38.2844 68.6977 36.7135 68.8431 35.1157 68.8791ZM28.0733 68.317L28.1103 68.2309C27.9385 68.2309 27.7644 68.2286 27.5882 68.2237C27.7495 68.2559 27.9112 68.287 28.0733 68.317ZM7.77175 56.2707C2.91488 50.3289 0 42.7279 0 34.4439C0 15.4211 15.3707 0 34.3314 0C46.4379 0 57.0807 6.28693 63.1934 15.7841C58.8137 14.8463 49.495 13.9325 40.1245 19.8707C32.4789 24.7159 29.8212 29.9607 28.9896 33.8313C28.7314 30.7145 29.3881 26.8306 32.5299 22.0986C38.6984 12.8081 53.0471 9.85145 53.0471 9.85145C53.0471 9.85145 39.4103 9.76084 30.1054 21.857C24.8902 28.6368 23.9712 34.2213 24.3406 38.1249C23.2004 35.3655 22.6549 31.6783 23.8358 26.5684C26.349 15.6938 38.7414 7.85801 38.7414 7.85801C38.7414 7.85801 25.946 12.5902 21.4818 27.1987C18.808 35.9486 20.2474 41.6879 22.156 45.1583C19.8416 42.8598 17.7124 39.2912 17.2852 33.148C16.5108 22.012 26.0696 10.876 26.0696 10.876C26.0696 10.876 15.2188 19.1632 15.2188 34.4429C15.2188 43.6026 18.2769 48.6673 21.1178 51.4224C18.5837 50.0103 15.9452 47.5545 13.6814 43.0885C8.63761 33.1382 13.108 19.143 13.108 19.143C13.108 19.143 6.34009 31.0211 12.2823 45.0896C16.229 54.4335 21.6771 57.6798 25.4696 58.8078C22.1375 58.7503 18.0157 57.6255 13.3926 53.1651C5.37263 45.4274 5.01612 30.7355 5.01612 30.7355C5.01612 30.7355 2.5097 44.1842 12.7258 55.5162C17.9004 61.2559 22.7395 63.3582 26.4978 63.9514C23.5965 64.4711 19.9342 64.2235 15.272 62.0582C12.355 60.7033 9.85383 58.5905 7.77175 56.2707ZM65.4664 19.9112C60.1677 13.7151 47.9664 16.7749 42.3193 20.932C38.0324 24.0879 36.0556 27.2954 35.1479 30.171C37.3557 26.944 41.6058 23.27 49.86 21.3876C56.4141 19.893 62.1129 20.7678 66.4349 22.2118C66.1391 21.4309 65.8159 20.6637 65.4664 19.9112ZM67.7791 26.6453C65.2795 22.3062 57.2279 21.4108 51.5766 23.1223C45.2604 25.0351 42.2711 28.2125 40.617 31.1706C43.3881 28.342 48.8199 25.0221 58.945 25.9577C62.4122 26.2781 65.4645 27.1315 68.1106 28.2576C68.0126 27.7156 67.902 27.1781 67.7791 26.6453Z" fill="#00A0D6"/>
<path fill-rule="evenodd" clip-rule="evenodd" d="M68.6523 35.3031C68.6593 35.0176 68.6628 34.7312 68.6628 34.4439C68.6628 34.1514 68.6592 33.8598 68.652 33.569C67.4985 30.1377 63.5872 28.2199 60.0407 28.1409C55.0092 28.0289 51.5906 29.2188 49.1481 30.8093C52.4625 30.1049 56.9034 30.2286 62.7166 32.3709C64.9195 33.1827 66.8919 34.1863 68.6523 35.3031ZM68.2887 39.5462C68.0285 37.9911 67.1561 36.3249 64.2662 35.4837C60.2757 34.3222 57.0534 34.2384 54.4328 34.6973C56.6474 35.106 59.1456 35.9166 61.9469 37.2916C64.2437 38.419 66.2512 39.7573 68.0018 41.2041C68.1105 40.656 68.2063 40.1033 68.2887 39.5462ZM66.9563 45.198C66.7952 43.696 66.0269 42.0781 63.3937 41.0066C62.2575 40.5442 61.1782 40.1821 60.153 39.9061C61.1088 40.6118 62.0919 41.4254 63.1 42.3608C64.4313 43.5961 65.5928 44.8911 66.6061 46.2141C66.7279 45.8778 66.8447 45.5391 66.9563 45.198ZM64.7703 50.3895C64.7989 49.45 64.1864 48.4197 61.9474 46.6153C61.6753 46.396 61.4067 46.1855 61.1416 45.9836L64.3808 51.115C64.5134 50.8749 64.6433 50.633 64.7703 50.3895ZM35.1157 68.8791L39.8212 68.4499C38.2844 68.6977 36.7135 68.8431 35.1157 68.8791ZM28.0733 68.317L28.1103 68.2309C27.9385 68.2309 27.7644 68.2286 27.5882 68.2237C27.7495 68.2559 27.9112 68.287 28.0733 68.317ZM7.77175 56.2707C2.91488 50.3289 0 42.7279 0 34.4439C0 15.4211 15.3707 0 34.3314 0C46.4379 0 57.0807 6.28693 63.1934 15.7841C58.8137 14.8463 49.495 13.9325 40.1245 19.8707C32.4789 24.7159 29.8212 29.9607 28.9896 33.8313C28.7314 30.7145 29.3881 26.8306 32.5299 22.0986C38.6984 12.8081 53.0471 9.85145 53.0471 9.85145C53.0471 9.85145 39.4103 9.76084 30.1054 21.857C24.8902 28.6368 23.9712 34.2213 24.3406 38.1249C23.2004 35.3655 22.6549 31.6783 23.8358 26.5684C26.349 15.6938 38.7414 7.85801 38.7414 7.85801C38.7414 7.85801 25.946 12.5902 21.4818 27.1987C18.808 35.9486 20.2474 41.6879 22.156 45.1583C19.8416 42.8598 17.7124 39.2912 17.2852 33.148C16.5108 22.012 26.0696 10.876 26.0696 10.876C26.0696 10.876 15.2188 19.1632 15.2188 34.4429C15.2188 43.6026 18.2769 48.6673 21.1178 51.4224C18.5837 50.0103 15.9452 47.5545 13.6814 43.0885C8.63761 33.1382 13.108 19.143 13.108 19.143C13.108 19.143 6.34009 31.0211 12.2823 45.0896C16.229 54.4335 21.6771 57.6798 25.4696 58.8078C22.1375 58.7503 18.0157 57.6255 13.3926 53.1651C5.37263 45.4274 5.01612 30.7355 5.01612 30.7355C5.01612 30.7355 2.5097 44.1842 12.7258 55.5162C17.9004 61.2559 22.7395 63.3582 26.4978 63.9514C23.5965 64.4711 19.9342 64.2235 15.272 62.0582C12.355 60.7033 9.85383 58.5905 7.77175 56.2707ZM65.4664 19.9112C60.1677 13.7151 47.9664 16.7749 42.3193 20.932C38.0324 24.0879 36.0556 27.2954 35.1479 30.171C37.3557 26.944 41.6058 23.27 49.86 21.3876C56.4141 19.893 62.1129 20.7678 66.4349 22.2118C66.1391 21.4309 65.8159 20.6637 65.4664 19.9112ZM67.7791 26.6453C65.2795 22.3062 57.2279 21.4108 51.5766 23.1223C45.2604 25.0351 42.2711 28.2125 40.617 31.1706C43.3881 28.342 48.8199 25.0221 58.945 25.9577C62.4122 26.2781 65.4645 27.1315 68.1106 28.2576C68.0126 27.7156 67.902 27.1781 67.7791 26.6453Z" fill="url(#paint0_angular)"/>
<defs>
<radialGradient id="paint0_angular" cx="0" cy="0" r="1" gradientUnits="userSpaceOnUse" gradientTransform="translate(50.6561 27.6317) rotate(111.593) scale(44.3603 45.174)">
<stop stop-color="#009EDC"/>
<stop offset="0.520201" stop-color="#009EDC"/>
<stop offset="0.678191" stop-color="#32B6DB"/>
<stop offset="0.692424" stop-color="#78787A"/>
<stop offset="1" stop-color="#212121"/>
</radialGradient>
</defs>
</svg>
