<svg width="242" height="31" viewBox="0 0 242 31" fill="none" xmlns="http://www.w3.org/2000/svg">
<path d="M62.8864 7.67799C63.4723 7.67799 64.0094 7.77506 64.4976 7.96921C64.9859 8.16335 65.4253 8.40603 65.8159 8.79432C66.2065 9.1826 66.4994 9.52236 66.6947 10.0077C66.89 10.4931 66.9877 11.027 66.9877 11.6094C66.9877 12.1918 66.89 12.7257 66.6947 13.1625C66.4994 13.6479 66.2065 14.0362 65.8647 14.3759C65.4741 14.7157 65.0347 15.0069 64.5465 15.2011C64.0582 15.3952 63.4723 15.4923 62.8864 15.4923H61.5682V20.2488H59.2734V7.62946L62.8864 7.67799ZM61.5682 13.0169H63.2282C63.6188 13.0169 63.9606 12.8713 64.2535 12.6287C64.5465 12.386 64.6929 11.9977 64.6929 11.5609C64.6929 11.1726 64.5465 10.8328 64.3023 10.5416C64.0582 10.2504 63.6676 10.1048 63.2282 10.1048H61.5682V13.0169Z" fill="#262626"/>
<path d="M74.4116 7.33789C75.2904 7.33789 76.1204 7.4835 76.9016 7.82325C77.6828 8.163 78.3664 8.59982 78.9523 9.18225C79.5381 9.76468 80.0264 10.4442 80.3682 11.2208C80.7099 12.0459 80.9052 12.9195 80.9052 13.8417C80.9052 14.7639 80.7099 15.6375 80.3682 16.4141C80.0264 17.1907 79.5381 17.8702 78.9523 18.4526C78.3664 19.035 77.6828 19.4719 76.9016 19.8116C76.1204 20.1514 75.2904 20.297 74.4116 20.297C73.5328 20.297 72.7027 20.1028 71.9216 19.8116C71.1404 19.4719 70.4568 19.035 69.8709 18.4526C69.285 17.8702 68.7968 17.1907 68.455 16.4141C68.1133 15.6375 67.918 14.7639 67.918 13.8417C67.918 12.9195 68.1133 12.0459 68.455 11.2693C68.7968 10.4927 69.285 9.81322 69.8709 9.23079C70.4568 8.64836 71.1404 8.21154 71.9216 7.87178C72.7027 7.58057 73.5328 7.38643 74.4116 7.33789ZM74.4116 9.91029C73.8257 9.91029 73.2886 10.0074 72.8004 10.2015C72.3122 10.3957 71.8727 10.6869 71.4821 11.0266C71.0915 11.3664 70.7986 11.8032 70.6033 12.2885C70.408 12.7739 70.3104 13.3078 70.3104 13.9388C70.3104 14.5697 70.408 15.1036 70.6033 15.589C70.7986 16.0743 71.0915 16.5112 71.4821 16.8509C71.8727 17.1907 72.3122 17.4819 72.8004 17.676C73.2886 17.8702 73.8745 17.9672 74.4116 17.9672C74.9975 17.9672 75.5346 17.8702 76.0228 17.676C76.511 17.4819 76.9505 17.1907 77.3411 16.8509C77.7316 16.5112 78.0246 16.0743 78.2199 15.589C78.4152 15.1036 78.5128 14.5212 78.5128 13.9388C78.5128 13.3078 78.4152 12.7739 78.2199 12.2885C78.0246 11.8032 77.7316 11.3664 77.3411 11.0266C76.9505 10.6869 76.511 10.3957 76.0228 10.2015C75.5346 10.0074 74.9487 9.91029 74.4116 9.91029Z" fill="#262626"/>
<path d="M93.1593 18.2592C92.964 18.5504 92.7198 18.8901 92.4269 19.1328C92.1339 19.3755 91.7922 19.6667 91.3528 19.8608C90.9622 20.055 90.4739 20.2491 89.9857 20.3462C89.4974 20.4433 88.9604 20.4918 88.3745 20.4918C87.5445 20.4918 86.7145 20.3462 85.9333 20.0064C85.1521 19.7152 84.4685 19.2784 83.8827 18.696C83.2968 18.1135 82.8085 17.434 82.4668 16.6575C82.125 15.8324 81.9297 14.9587 81.9297 13.988C81.9297 13.0173 82.125 12.1436 82.4668 11.3185C82.8085 10.4934 83.2968 9.81391 83.8827 9.28002C84.4685 8.69759 85.1521 8.26077 85.9333 7.96955C86.7145 7.67834 87.4957 7.48419 88.3745 7.48419C88.9604 7.48419 89.4486 7.53273 89.9369 7.67834C90.4251 7.82394 90.8645 7.96955 91.3039 8.16369C91.6945 8.35784 92.0363 8.60052 92.3781 8.8432C92.671 9.08588 92.9151 9.37709 93.1104 9.66831L92.3781 11.7068C92.1828 11.4641 91.9875 11.27 91.7434 11.0273C91.4992 10.8332 91.2063 10.639 90.8645 10.4449C90.5227 10.2993 90.181 10.1537 89.7904 10.0566C89.3998 9.95952 89.0092 9.91099 88.5698 9.91099C87.9351 9.91099 87.398 10.0081 86.8609 10.2022C86.3239 10.3963 85.8845 10.639 85.5427 11.0273C85.2009 11.4156 84.8591 11.8039 84.6638 12.2892C84.4685 12.7746 84.3709 13.357 84.3709 13.988C84.3709 14.619 84.4685 15.1529 84.6638 15.6868C84.8591 16.1721 85.1521 16.6089 85.5427 16.9487C85.9333 17.2884 86.3727 17.5797 86.9098 17.7738C87.4468 17.9679 88.0327 18.065 88.6186 18.065C89.058 18.065 89.4974 18.0165 89.888 17.9194C90.2786 17.8223 90.6692 17.6767 91.011 17.4826C91.3528 17.2884 91.6457 17.0943 91.8898 16.9002C92.134 16.706 92.3292 16.4633 92.5245 16.2206L93.2569 18.3077L93.1593 18.2592Z" fill="#262626"/>
<path d="M103.755 7.62946V10.0562H100.044V20.1517H97.7497V10.1048H94.0391V7.67799H103.755V7.62946Z" fill="#262626"/>
<path d="M112.052 7.62946V10.1048H107.414V12.483H111.564V14.9584H107.414V17.6764H112.052V20.1517H105.07V7.62946H112.052Z" fill="#262626"/>
<path d="M231.431 20.2004H229.136V10.1535H225.718L225.669 11.1727C225.621 12.6288 225.523 13.9393 225.328 15.0556C225.132 16.1719 224.888 17.1426 224.595 17.9192C224.302 18.6958 223.863 19.2782 223.424 19.6665C222.984 20.0548 222.398 20.2489 221.715 20.2489C221.519 20.2489 221.324 20.2489 221.178 20.2004C221.031 20.1518 220.885 20.1033 220.787 20.0548L220.348 18.0163C220.689 18.0163 221.031 17.9192 221.324 17.8221C221.617 17.7251 221.91 17.5309 222.105 17.2397C222.301 16.9485 222.545 16.6087 222.691 16.1719C222.838 15.7351 222.984 15.1526 223.131 14.4731C223.277 13.7936 223.326 12.9685 223.375 11.9978C223.424 11.0271 223.472 9.91078 223.472 8.60031V7.58105H231.382L231.431 20.2004Z" fill="#262626"/>
<path d="M237.582 20.2002H233.969V7.62946H236.263V12.386H237.582C238.168 12.386 238.705 12.483 239.242 12.6772C239.73 12.8713 240.169 13.114 240.56 13.5023C240.951 13.8906 241.195 14.2303 241.39 14.7157C241.585 15.2011 241.683 15.7349 241.683 16.2688C241.683 16.8513 241.585 17.3852 241.39 17.8705C241.195 18.3559 240.902 18.7442 240.511 19.0839C240.121 19.4237 239.681 19.7149 239.193 19.909C238.705 20.1032 238.168 20.1517 237.582 20.2002ZM236.263 17.7249H237.924C238.363 17.7249 238.705 17.5793 238.998 17.2881C239.291 16.9969 239.388 16.6571 239.388 16.2688C239.388 15.832 239.242 15.4923 238.949 15.2011C238.656 14.9098 238.314 14.8128 237.924 14.8128H236.263V17.7249Z" fill="#262626"/>
<path fill-rule="evenodd" clip-rule="evenodd" d="M19.6328 30.1505L36.2331 1.51434L52.8821 30.1505H19.6328Z" fill="#262626"/>
<path fill-rule="evenodd" clip-rule="evenodd" d="M33.6907 0.349243L17.0416 28.9854L0.441406 0.349243H33.6907Z" fill="#5497D3"/>
<path d="M117.812 7.67799C118.398 7.67799 118.935 7.77506 119.423 7.96921C119.912 8.16335 120.351 8.40603 120.742 8.79432C121.132 9.1826 121.425 9.52236 121.621 10.0077C121.816 10.4931 121.913 11.027 121.913 11.6094C121.913 12.1918 121.816 12.7257 121.621 13.1625C121.425 13.6479 121.132 14.0362 120.79 14.3759C120.4 14.7157 119.96 15.0069 119.472 15.2011C118.984 15.3952 118.398 15.4923 117.812 15.4923H116.494V20.2488H114.199V7.62946L117.812 7.67799ZM116.494 13.0169H118.154C118.545 13.0169 118.886 12.8713 119.179 12.6287C119.472 12.386 119.619 11.9977 119.619 11.5609C119.619 11.1726 119.472 10.8328 119.228 10.5416C118.984 10.2504 118.593 10.1048 118.154 10.1048H116.494V13.0169Z" fill="#262626"/>
<path d="M135.782 7.62946L137.491 20.1517H135.147L134.073 12.0948L131.144 20.1517H128.996L126.066 12.0948L124.992 20.1517H122.551L124.26 7.62946H126.652L130.021 16.5601L133.39 7.62946H135.782Z" fill="#262626"/>
<path d="M147.546 20.2002V11.7065L141.59 20.1517H139.246V7.62946H141.541V16.1232L147.497 7.62946H149.792V20.1517H147.546V20.2002Z" fill="#262626"/>
<path d="M154.678 7.62946V12.483H160.536V7.62946H162.831V20.1517H160.536V14.9584H154.678V20.1517H152.383V7.62946H154.678Z" fill="#262626"/>
<path d="M173.911 20.2001L172.886 17.6277H167.613L166.588 20.2001H164.098L169.078 7.67786H171.324L176.304 20.2001H173.911ZM171.91 15.2009L170.249 10.9783L168.541 15.2009H171.91Z" fill="#262626"/>
<path d="M187.681 20.2004H185.386V10.1535H181.968L181.92 11.1727C181.871 12.6288 181.773 13.9393 181.578 15.0556C181.382 16.1719 181.138 17.1426 180.845 17.9192C180.552 18.6958 180.113 19.2782 179.674 19.6665C179.185 20.0548 178.648 20.2489 177.965 20.2489C177.769 20.2489 177.574 20.2489 177.428 20.2004C177.281 20.1518 177.135 20.1033 177.037 20.0548L176.598 18.0163C176.939 18.0163 177.281 17.9192 177.574 17.8221C177.867 17.7251 178.16 17.5309 178.355 17.2397C178.551 16.9485 178.795 16.6087 178.941 16.1719C179.088 15.7351 179.234 15.1526 179.381 14.4731C179.527 13.7936 179.576 12.9685 179.625 11.9978C179.674 11.0271 179.722 9.91078 179.722 8.60031V7.58105H187.632L187.681 20.2004Z" fill="#262626"/>
<path d="M191.59 7.62946L194.129 13.2596L196.374 7.62946H198.864L193.836 20.1517H191.346L192.957 16.1232L189.148 7.62946H191.59Z" fill="#262626"/>
<path d="M206.626 7.62946V10.1048H202.623V20.1517H200.328V7.62946H206.626Z" fill="#262626"/>
<path d="M213.755 7.33789C214.634 7.33789 215.464 7.4835 216.245 7.82325C217.027 8.163 217.71 8.59982 218.296 9.18225C218.882 9.76468 219.37 10.4442 219.712 11.2208C220.054 12.0459 220.249 12.9195 220.249 13.8417C220.249 14.7639 220.054 15.6375 219.712 16.4141C219.37 17.1907 218.882 17.8702 218.296 18.4526C217.71 19.035 217.027 19.4719 216.245 19.8116C215.464 20.1514 214.634 20.297 213.755 20.297C212.877 20.297 212.046 20.1028 211.265 19.8116C210.484 19.4719 209.801 19.035 209.215 18.4526C208.629 17.8702 208.141 17.1907 207.799 16.4141C207.457 15.6375 207.262 14.7639 207.262 13.8417C207.262 12.9195 207.457 12.0459 207.799 11.2693C208.141 10.4927 208.629 9.81322 209.215 9.23079C209.801 8.64836 210.484 8.21154 211.265 7.87178C212.046 7.58057 212.877 7.38643 213.755 7.33789ZM213.755 9.91029C213.169 9.91029 212.632 10.0074 212.144 10.2015C211.656 10.3957 211.216 10.6869 210.826 11.0266C210.435 11.3664 210.142 11.8032 209.947 12.2885C209.752 12.7739 209.654 13.3078 209.654 13.9388C209.654 14.5697 209.752 15.1036 209.947 15.589C210.142 16.0743 210.435 16.5112 210.826 16.8509C211.216 17.1907 211.656 17.4819 212.144 17.676C212.632 17.8702 213.218 17.9672 213.755 17.9672C214.341 17.9672 214.878 17.8702 215.367 17.676C215.855 17.4819 216.294 17.1907 216.685 16.8509C217.075 16.5112 217.368 16.0743 217.564 15.589C217.759 15.1036 217.857 14.5212 217.857 13.9388C217.857 13.3078 217.759 12.7739 217.564 12.2885C217.368 11.8032 217.075 11.3664 216.685 11.0266C216.294 10.6869 215.855 10.3957 215.367 10.2015C214.878 10.0074 214.292 9.91029 213.755 9.91029Z" fill="#262626"/>
</svg>
