<svg width="101" height="70" viewBox="0 0 101 70" fill="none" xmlns="http://www.w3.org/2000/svg">
<path d="M76.6832 13.1015C83.7125 9.90345 89.4637 13.7413 92.6589 15.0209C92.6589 11.6087 90.4862 4.40053 81.7954 2.86499C73.1047 1.32946 23.644 38.9075 0 57.8884C23.431 43.5992 69.6539 16.2995 76.6832 13.1015Z" fill="black"/>
<ellipse cx="82.6039" cy="8.03482" rx="4.22885" ry="8.03482" fill="black"/>
<ellipse cx="83.1208" cy="7.9889" rx="3.14815" ry="6.39027" fill="white"/>
<path d="M100.318 24.9031C100.055 27.384 98.4854 47.7389 97.7336 57.6062H1.59766L63.2919 24.9031C65.7509 23.6344 71.2892 21.3696 73.7701 22.4597C76.251 23.5498 77.905 26.9548 78.4218 28.5211C81.523 26.5633 88.759 22.3376 92.8939 21.0971C98.0625 19.5465 100.647 21.8019 100.318 24.9031Z" fill="#6AC439"/>
<path d="M73.8172 30.5419C75.2457 34.3384 80.2702 50.1042 82.6039 57.5126H4.79297C21.6927 49.1175 56.977 31.4628 62.9162 28.0046C70.3402 23.6817 72.0317 25.7962 73.8172 30.5419Z" fill="black"/>
<ellipse cx="66.1589" cy="44.9207" rx="6.01437" ry="11.3709" fill="#6AC439"/>
<ellipse cx="50.9338" cy="46.8468" rx="4.98065" ry="9.44444" fill="#6AC439"/>
<ellipse cx="39.2306" cy="49.9468" rx="3.3361" ry="6.34328" fill="#6AC439"/>
<ellipse cx="29.6033" cy="51.8729" rx="2.34936" ry="4.4168" fill="#6AC439"/>
<ellipse cx="21.3361" cy="53.1423" rx="1.69154" ry="3.14815" fill="#6AC439"/>
<ellipse cx="67.0474" cy="44.9197" rx="5.12161" ry="10.5251" fill="white"/>
<ellipse cx="51.6352" cy="46.8462" rx="4.27584" ry="8.78662" fill="white"/>
<ellipse cx="39.6554" cy="49.8999" rx="2.91321" ry="5.92039" fill="white"/>
<ellipse cx="29.9306" cy="51.8271" rx="2.02045" ry="4.08789" fill="white"/>
<ellipse cx="21.5699" cy="53.0948" rx="1.4566" ry="2.91321" fill="white"/>
<path fill-rule="evenodd" clip-rule="evenodd" d="M85.7967 57.4651H95.3821C96.2122 49.0387 97.8724 31.1522 97.8724 27.0174C97.8724 21.8488 95.0532 21.2849 91.4352 22.0367C88.5407 22.6381 81.2389 25.6077 77.9498 27.0174C77.386 25.827 75.9106 23.1644 74.5197 22.0367C72.7812 20.6271 69.6331 20.6271 66.8138 22.0367C63.9946 23.4463 33.6408 38.6702 29.1301 41.1605C25.5214 43.1528 9.86528 52.8603 2.48828 57.4651C10.4291 53.0953 28.0681 43.5005 35.0974 40.0798C38.5136 38.4174 43.5206 35.8317 48.5778 33.2201C56.5282 29.1145 64.6025 24.9448 66.8138 24.1981C66.8546 24.1844 66.8953 24.1706 66.936 24.1569C70.51 22.949 73.9369 21.7908 76.3992 29.0848C78.3915 34.9864 83.4943 50.464 85.7967 57.4651ZM78.797 29.2725L84.5765 47.2686H93.8799C94.4125 42.5229 95.5151 32.1199 95.6655 28.4737C95.8534 23.9159 94.1619 23.3521 91.3426 24.3388C89.0872 25.1282 82.0392 27.9568 78.797 29.2725Z" fill="black"/>
<path d="M5.37981 61.8852V63.1602H3.65379V69.8228H2.14788V63.1602H0.378906V61.8852H5.37981Z" fill="black"/>
<path d="M5.61865 66.741V65.7719H8.46673V66.741H5.61865Z" fill="black"/>
<path d="M12.8315 64.4675V64.293C12.8315 63.7973 12.7635 63.4502 12.6275 63.2515C12.4915 63.0511 12.2624 62.9509 11.9403 62.9509C11.6164 62.9509 11.3829 63.052 11.2397 63.2542C11.0983 63.4546 11.0276 63.8009 11.0276 64.293V67.4149C11.0276 67.9214 11.0965 68.2775 11.2343 68.4833C11.3739 68.6873 11.6057 68.7893 11.9296 68.7893C12.241 68.7893 12.4691 68.6846 12.6141 68.4752C12.759 68.2658 12.8315 67.9124 12.8315 67.4149V66.9854H14.3482V67.3478C14.3482 67.8632 14.2748 68.3177 14.128 68.7114C13.9813 69.1051 13.7281 69.4183 13.3684 69.651C13.0105 69.8836 12.5344 69.9999 11.9403 69.9999C11.0276 69.9999 10.3906 69.7601 10.0291 69.2805C9.66758 68.7991 9.48684 68.1549 9.48684 67.3478V64.4675C9.48684 63.5459 9.69353 62.8614 10.1069 62.414C10.5203 61.9648 11.1386 61.7402 11.9618 61.7402C12.4629 61.7402 12.8933 61.8342 13.253 62.0221C13.6144 62.21 13.8874 62.482 14.0717 62.8381C14.256 63.1925 14.3482 63.6112 14.3482 64.0944V64.4675H12.8315Z" fill="black"/>
<path d="M15.3333 69.8228V61.8852H19.5772V63.1602H16.8392V64.9641H19.3356V66.1613H16.8392V68.6121H19.5772V69.8228H15.3333Z" fill="black"/>
<path d="M20.5194 69.8228V61.8852H23.3675C23.7845 61.8852 24.1522 61.9881 24.4708 62.1939C24.7893 62.3997 25.0345 62.6798 25.2063 63.0341C25.3799 63.3866 25.4667 63.7767 25.4667 64.2044C25.4667 64.6411 25.3781 65.042 25.2009 65.407C25.0255 65.7703 24.7759 66.0584 24.452 66.2714C24.1299 66.4843 23.7603 66.5908 23.3434 66.5908H22.0253V69.8228H20.5194ZM22.785 63.0609H22.0253V65.4151H22.785C23.5384 65.4151 23.9151 65.0187 23.9151 64.2259C23.9151 63.4493 23.5384 63.0609 22.785 63.0609Z" fill="black"/>
<path d="M27.9094 63.018V65.1064H28.7013C29.324 65.1064 29.6354 64.7467 29.6354 64.0273C29.6354 63.6783 29.5656 63.4233 29.426 63.2622C29.2882 63.0994 29.0538 63.018 28.7228 63.018H27.9094ZM27.9094 68.69H28.8758C29.1639 68.69 29.375 68.5942 29.5093 68.4027C29.6453 68.2113 29.7133 67.8963 29.7133 67.4579C29.7133 66.6454 29.4341 66.2392 28.8758 66.2392H27.9094V68.69ZM29.4368 69.8228H26.4035V61.8852H29.1845C29.6265 61.8852 29.9942 61.9729 30.2877 62.1483C30.583 62.3236 30.7986 62.5581 30.9346 62.8515C31.0724 63.1432 31.1413 63.4663 31.1413 63.8206C31.1413 64.0747 31.0966 64.3297 31.0071 64.5856C30.9194 64.8397 30.7942 65.0554 30.6313 65.2325C30.4703 65.4079 30.285 65.5162 30.0757 65.5574C30.4747 65.7184 30.77 65.9511 30.9615 66.2553C31.1548 66.5577 31.2514 66.9622 31.2514 67.4686C31.2514 67.9375 31.1834 68.3482 31.0474 68.7007C30.9132 69.0532 30.7101 69.3288 30.438 69.5275C30.166 69.7243 29.8323 69.8228 29.4368 69.8228Z" fill="black"/>
<path d="M37.2589 69.8228V61.8852H35.6322L33.4203 67.6565C33.4615 67.4722 33.4973 67.2288 33.5277 66.9264C33.5599 66.6221 33.5832 66.2902 33.5975 65.9305C33.6118 65.5708 33.619 65.2155 33.619 64.8648V61.8852H32.2016V69.8228H33.8283L36.0376 64.0622C35.9069 64.6885 35.8416 65.6084 35.8416 66.8217V69.8228H37.2589Z" fill="black"/>
<path d="M41.5753 64.4675V64.293C41.5753 63.7973 41.5073 63.4502 41.3713 63.2515C41.2353 63.0511 41.0062 62.9509 40.6841 62.9509C40.3602 62.9509 40.1267 63.052 39.9835 63.2542C39.8421 63.4546 39.7715 63.8009 39.7715 64.293V67.4149C39.7715 67.9214 39.8404 68.2775 39.9781 68.4833C40.1177 68.6873 40.3495 68.7893 40.6734 68.7893C40.9848 68.7893 41.2129 68.6846 41.3579 68.4752C41.5028 68.2658 41.5753 67.9124 41.5753 67.4149V66.9854H43.092V67.3478C43.092 67.8632 43.0186 68.3177 42.8719 68.7114C42.7251 69.1051 42.4719 69.4183 42.1122 69.651C41.7543 69.8836 41.2783 69.9999 40.6841 69.9999C39.7715 69.9999 39.1344 69.7601 38.7729 69.2805C38.4114 68.7991 38.2306 68.1549 38.2306 67.3478V64.4675C38.2306 63.5459 38.4373 62.8614 38.8507 62.414C39.2641 61.9648 39.8824 61.7402 40.7056 61.7402C41.2067 61.7402 41.6371 61.8342 41.9968 62.0221C42.3583 62.21 42.6312 62.482 42.8155 62.8381C42.9998 63.1925 43.092 63.6112 43.092 64.0944V64.4675H41.5753Z" fill="black"/>
<path d="M47.454 61.8852H52.0496V69.8228H50.5437V63.0824H48.9384V66.1399C48.9384 67.0382 48.883 67.7675 48.772 68.3276C48.6629 68.8859 48.4839 69.2984 48.2351 69.5651C47.9864 69.8317 47.6526 69.965 47.2339 69.965C46.8706 69.965 46.5664 69.9319 46.3212 69.8657V68.7571C46.4322 68.7929 46.5941 68.8108 46.8071 68.8108C46.9377 68.8108 47.0406 68.7794 47.1158 68.7168C47.1927 68.6542 47.2563 68.5217 47.3064 68.3195C47.3583 68.1155 47.3958 67.8068 47.4191 67.3934C47.4424 66.98 47.454 66.4119 47.454 65.6889V61.8852Z" fill="black"/>
<path d="M53.126 64.4568V67.2941C53.126 69.0747 53.9877 69.965 55.711 69.965C56.2425 69.965 56.6971 69.8809 57.0746 69.7127C57.4522 69.5427 57.7439 69.2599 57.9497 68.8644C58.1573 68.469 58.2611 67.9455 58.2611 67.2941V64.4568C58.2611 63.8054 58.1573 63.2784 57.9497 62.8757C57.7422 62.4713 57.4496 62.1814 57.072 62.006C56.6962 61.8288 56.2425 61.7402 55.711 61.7402C55.1867 61.7402 54.7321 61.8306 54.3474 62.0114C53.9626 62.1903 53.6629 62.482 53.4481 62.8864C53.2334 63.2891 53.126 63.8125 53.126 64.4568ZM54.6641 67.482V64.2823C54.6641 63.3947 55.0131 62.9509 55.711 62.9509C56.0349 62.9509 56.2837 63.0699 56.4573 63.3079C56.6326 63.5459 56.7203 63.8779 56.7203 64.3038V67.482C56.7203 67.8954 56.6335 68.2113 56.4599 68.4296C56.2881 68.6479 56.0385 68.7571 55.711 68.7571C55.0131 68.7571 54.6641 68.3321 54.6641 67.482Z" fill="black"/>
<path d="M59.3778 61.8852V69.8228H60.8864V63.0931H63.6244V61.8852H59.3778Z" fill="black"/>
<path d="M69.3528 69.8228V61.8852H67.7261L65.5142 67.6565C65.5553 67.4722 65.5911 67.2288 65.6216 66.9264C65.6538 66.6221 65.677 66.2902 65.6914 65.9305C65.7057 65.5708 65.7128 65.2155 65.7128 64.8648V61.8852H64.2955V69.8228H65.9222L68.1314 64.0622C68.0008 64.6885 67.9354 65.6084 67.9354 66.8217V69.8228H69.3528Z" fill="black"/>
<path d="M73.6692 64.4675V64.293C73.6692 63.7973 73.6012 63.4502 73.4652 63.2515C73.3292 63.0511 73.1001 62.9509 72.778 62.9509C72.4541 62.9509 72.2205 63.052 72.0774 63.2542C71.936 63.4546 71.8653 63.8009 71.8653 64.293V67.4149C71.8653 67.9214 71.9342 68.2775 72.072 68.4833C72.2116 68.6873 72.4433 68.7893 72.7672 68.7893C73.0786 68.7893 73.3068 68.6846 73.4518 68.4752C73.5967 68.2658 73.6692 67.9124 73.6692 67.4149V66.9854H75.1858V67.3478C75.1858 67.8632 75.1125 68.3177 74.9657 68.7114C74.819 69.1051 74.5658 69.4183 74.206 69.651C73.8481 69.8836 73.3721 69.9999 72.778 69.9999C71.8653 69.9999 71.2282 69.7601 70.8667 69.2805C70.5052 68.7991 70.3245 68.1549 70.3245 67.3478V64.4675C70.3245 63.5459 70.5312 62.8614 70.9446 62.414C71.358 61.9648 71.9763 61.7402 72.7995 61.7402C73.3005 61.7402 73.7309 61.8342 74.0906 62.0221C74.4521 62.21 74.725 62.482 74.9093 62.8381C75.0937 63.1925 75.1858 63.6112 75.1858 64.0944V64.4675H73.6692Z" fill="black"/>
<path d="M80.8095 61.8852V63.1602H79.0835V69.8228H77.5776V63.1602H75.8086V61.8852H80.8095Z" fill="black"/>
<path d="M86.6077 69.8228V61.8852H84.9809L82.7691 67.6565C82.8102 67.4722 82.846 67.2288 82.8764 66.9264C82.9086 66.6221 82.9319 66.2902 82.9462 65.9305C82.9605 65.5708 82.9677 65.2155 82.9677 64.8648V61.8852H81.5504V69.8228H83.1771L85.3863 64.0622C85.2556 64.6885 85.1903 65.6084 85.1903 66.8217V69.8228H86.6077Z" fill="black"/>
<path d="M87.7351 69.8228V61.8852H89.241V65.3265L91.0663 61.8852H92.7709L90.7576 65.3265L92.8353 69.8228H91.1549L89.8342 66.6552L89.241 67.4364V69.8228H87.7351Z" fill="black"/>
<path d="M96.8188 64.4675V64.293C96.8188 63.7973 96.7508 63.4502 96.6148 63.2515C96.4788 63.0511 96.2498 62.9509 95.9277 62.9509C95.6037 62.9509 95.3702 63.052 95.227 63.2542C95.0857 63.4546 95.015 63.8009 95.015 64.293V67.4149C95.015 67.9214 95.0839 68.2775 95.2217 68.4833C95.3613 68.6873 95.593 68.7893 95.9169 68.7893C96.2283 68.7893 96.4565 68.6846 96.6014 68.4752C96.7464 68.2658 96.8188 67.9124 96.8188 67.4149V66.9854H98.3355V67.3478C98.3355 67.8632 98.2621 68.3177 98.1154 68.7114C97.9686 69.1051 97.7154 69.4183 97.3557 69.651C96.9978 69.8836 96.5218 69.9999 95.9277 69.9999C95.015 69.9999 94.3779 69.7601 94.0164 69.2805C93.6549 68.7991 93.4742 68.1549 93.4742 67.3478V64.4675C93.4742 63.5459 93.6809 62.8614 94.0943 62.414C94.5076 61.9648 95.1259 61.7402 95.9491 61.7402C96.4502 61.7402 96.8806 61.8342 97.2403 62.0221C97.6018 62.21 97.8747 62.482 98.059 62.8381C98.2433 63.1925 98.3355 63.6112 98.3355 64.0944V64.4675H96.8188Z" fill="black"/>
</svg>
