<svg width="85" height="77" viewBox="0 0 85 77" fill="none" xmlns="http://www.w3.org/2000/svg">
<g clip-path="url(#clip0)">
<path d="M43.4278 67.2605C43.0682 66.7915 42.7293 66.3195 42.3586 65.8744C40.3586 63.4726 37.7063 62.4664 34.6658 62.0865C27.1082 61.1408 19.8831 59.1189 13.3343 55.0942C10.3335 53.2503 7.6414 51.0425 5.56664 48.1638C1.11481 41.9821 1.21823 35.0693 5.85303 29.0116C8.24123 25.8913 11.3009 23.5579 14.7089 21.6631C21.2642 18.0168 28.3683 16.1634 35.7748 15.3257C36.5639 15.2367 37.3563 15.1826 38.147 15.1095C38.1948 15.1047 38.2393 15.0666 38.3841 14.9935C36.5814 12.9652 35.8654 10.6366 36.556 7.9884C36.984 6.34483 37.9307 5.03028 39.3228 4.04478C42.0388 2.12144 45.8717 2.36305 48.2711 4.61383C49.7523 6.00308 50.5574 7.71659 50.5892 9.74484C50.6211 11.754 49.8939 13.5009 48.3856 15.0602C49.4087 15.1604 50.271 15.2287 51.127 15.3336C58.4619 16.2349 65.5422 17.9929 72.0369 21.652C75.8125 23.7788 79.1904 26.3872 81.6263 30.0384C85.6231 36.0277 85.3876 42.6688 81.0265 48.4054C78.258 52.0471 74.6415 54.6173 70.6113 56.6694C64.8373 59.61 58.6767 61.2838 52.2774 62.0659C48.6243 62.5125 45.641 63.9415 43.6108 67.0951C43.571 67.1555 43.4994 67.1969 43.4278 67.2605ZM13.1067 37.8335C13.3947 33.7166 15.024 30.2005 17.5076 27.0755C16.2093 26.2648 15.0081 25.4971 13.7813 24.7691C13.6127 24.669 13.2611 24.6817 13.0988 24.7929C10.1585 26.7973 7.59685 29.1769 5.84666 32.3194C4.90157 34.017 4.27946 35.8211 4.16967 37.8335C7.15134 37.8335 10.0805 37.8335 13.1067 37.8335ZM40.7055 31.2655C40.9808 27.9068 41.2496 24.634 41.5249 21.2801C39.0205 21.2801 36.6435 21.2705 34.2664 21.296C34.0389 21.2991 33.7636 21.4772 33.5966 21.6536C32.6181 22.69 31.5505 23.6675 30.7342 24.8215C29.7414 26.2251 28.9697 27.7828 28.039 29.3819C32.3189 30.5073 36.4144 31.0875 40.7055 31.2655ZM46.2186 31.2385C50.4333 31.1002 54.4874 30.5105 58.5335 29.4757C58.4714 29.2738 58.4444 29.1498 58.3966 29.0354C57.2861 26.3984 55.7189 24.0745 53.6696 22.0653C53.0681 21.4772 52.4524 21.172 51.5757 21.2149C50.0706 21.2896 48.5606 21.2356 47.0523 21.2356C46.5304 21.2356 46.007 21.2356 45.4087 21.2356C45.6792 24.6022 45.9449 27.8591 46.2186 31.2385ZM69.2987 27.1915C71.7887 30.3213 73.313 33.8326 73.6423 37.8144C76.6638 37.8144 79.6088 37.8144 82.6287 37.8144C82.4919 37.0657 82.4155 36.3806 82.2373 35.7226C80.931 30.9126 77.6948 27.5905 73.733 24.847C73.5914 24.7484 73.2732 24.758 73.1157 24.8502C71.8651 25.5909 70.6352 26.365 69.2987 27.1915ZM14.6294 37.8096C18.0995 37.8096 21.4901 37.8096 24.7375 37.8096C25.1607 35.3093 25.5696 32.9011 25.9706 30.5343C23.7797 29.6649 21.5283 28.762 19.2674 27.8909C19.121 27.8353 18.8091 27.9656 18.693 28.1055C16.3891 30.9095 14.9444 34.0774 14.6294 37.8096ZM60.7514 30.528C61.1763 33.0362 61.5804 35.4142 61.9893 37.8239C65.2876 37.8239 68.6559 37.8239 72.0719 37.8239C71.7855 34.1155 70.3488 30.9492 68.0576 28.1453C67.9463 28.0086 67.5421 27.9943 67.3321 28.0737C65.9765 28.5903 64.6432 29.1705 63.2876 29.6871C62.4284 30.013 61.5438 30.2673 60.7514 30.528ZM26.2697 37.8064C31.1129 37.8064 35.6666 37.8064 40.2679 37.8064C40.3714 36.1136 40.47 34.4923 40.5591 33.0235C36.1773 32.3718 31.9069 31.7376 27.4375 31.0732C27.0652 33.2206 26.6754 35.4682 26.2697 37.8064ZM60.2693 37.8398C60.2089 35.4476 59.8429 33.2047 59.1588 31.1622C54.8406 31.7901 50.6227 32.4036 46.3379 33.0267C46.4334 34.5543 46.5352 36.1788 46.6386 37.8382C51.1986 37.8398 55.6839 37.8398 60.2693 37.8398ZM13.016 39.7393C10.0185 39.7393 7.11793 39.7393 4.22059 39.7393C4.11876 43.942 8.85061 50.8613 13.016 52.6129C13.016 48.3307 13.016 44.066 13.016 39.7393ZM73.7107 39.7457C73.7107 44.0883 73.7107 48.3514 73.7107 52.6415C78.0448 50.5815 82.7878 43.6194 82.4998 39.7457C79.5993 39.7457 76.6956 39.7457 73.7107 39.7457ZM40.2361 39.7361C35.5791 39.7361 31.0684 39.7361 26.4781 39.7361C26.572 42.0012 26.9061 44.1534 27.5855 46.0497C31.7716 45.4235 35.8114 44.8194 39.9481 44.2011C40.0388 42.7992 40.1359 41.3066 40.2361 39.7361ZM59.1667 46.0799C59.7952 44.0946 60.1977 41.9662 60.255 39.7377C55.7077 39.7377 51.2511 39.7377 46.6848 39.7377C46.7898 41.3129 46.8916 42.8278 46.9855 44.2297C51.0761 44.8512 55.0633 45.4569 59.1667 46.0799ZM28.1551 47.7203C28.887 49.6389 29.891 51.2936 31.0159 52.8959C31.5711 53.6874 32.1503 53.9036 33.1224 53.7383C37.0588 53.0723 39.8575 49.7867 39.5886 45.9528C35.7445 46.1976 31.9466 46.7046 28.1551 47.7203ZM47.1637 45.9576C47.4151 47.0098 47.6044 47.954 47.8685 48.8791C48.5256 51.1776 50.0944 52.5875 52.3251 53.3282C54.7722 54.1405 54.8995 54.1421 56.2901 52.0153C57.1604 50.6816 57.8732 49.2463 58.7117 47.7617C54.8279 46.7348 51.1127 46.1849 47.1637 45.9576ZM66.7466 26.7353C64.1786 23.6469 56.594 19.406 53.3275 19.2693C53.5582 19.6826 53.66 20.0688 53.9114 20.285C56.5494 22.5549 58.4619 25.3366 59.8429 28.5061C59.9241 28.6936 60.0291 28.8717 60.1707 29.1483C62.3568 28.3455 64.508 27.5571 66.7466 26.7353ZM26.5481 29.0879C26.6993 28.8494 26.8154 28.7111 26.8822 28.5522C28.2872 25.2428 30.2856 22.3721 33.0795 20.0704C33.2879 19.8988 33.3388 19.5364 33.4645 19.263C28.3126 20.5219 23.8608 22.814 20.0168 26.6241C22.2888 27.4792 24.4034 28.2788 26.5481 29.0879ZM61.9575 39.7314C61.5517 42.0807 61.1587 44.3505 60.7546 46.6919C64.4984 44.4094 68.2199 42.1427 71.9415 39.8744C71.9224 39.8267 71.9017 39.779 71.8826 39.7314C68.5652 39.7314 65.2462 39.7314 61.9575 39.7314ZM24.7757 39.7504C21.541 39.7504 18.2602 39.7504 14.981 39.7504C14.9667 39.7965 14.9524 39.841 14.9381 39.8871C18.6087 42.1379 22.2777 44.3887 25.9737 46.6554C25.5664 44.3124 25.1766 42.068 24.7757 39.7504ZM43.4803 13.1401C45.3276 13.1242 46.7818 11.63 46.75 9.7814C46.7198 7.97251 45.248 6.55783 43.4151 6.57372C41.5615 6.58962 40.1152 8.07424 40.147 9.92922C40.1757 11.7286 41.6585 13.1576 43.4803 13.1401ZM53.9735 17.586C54.0864 17.6734 54.123 17.7211 54.1692 17.7338C59.3895 19.3122 64.1245 21.7267 67.9669 25.6894C68.0672 25.7928 68.3281 25.8754 68.4315 25.8182C69.5994 25.1792 70.7513 24.5116 71.9574 23.8233C69.0568 21.4629 58.6401 17.8705 53.9735 17.586ZM32.7008 17.683C26.4272 18.5858 20.4448 20.3359 14.8251 23.6707C15.9961 24.3542 17.0478 24.9519 18.0804 25.5813C18.4639 25.815 18.7057 25.7721 19.0287 25.4478C22.5498 21.9016 26.8091 19.592 31.5266 18.0581C31.918 17.9309 32.311 17.8069 32.7008 17.683ZM14.4528 53.6588C19.0192 56.431 23.8083 58.1365 28.8488 59.2111C24.7788 57.3243 21.2053 54.7556 18.0645 51.4923C16.876 52.206 15.7304 52.8927 14.4528 53.6588ZM72.2613 53.6986C71.1714 53.0437 70.212 52.5001 69.2891 51.8976C68.8039 51.5813 68.5206 51.6258 68.1038 52.0598C65.3512 54.9257 62.1898 57.2337 58.5557 58.8757C58.3775 58.9567 58.2089 59.0553 58.0355 59.1459C62.9996 58.0746 67.7394 56.4485 72.2613 53.6986ZM21.8465 49.7422C24.3174 51.5336 26.817 52.8212 29.5728 53.7415C28.5163 51.8229 27.5187 50.0093 26.4813 48.1241C25.0239 48.6343 23.5124 49.1605 21.8465 49.7422ZM57.1477 53.7447C59.8509 52.791 62.3871 51.575 64.8325 49.7422C63.1667 49.1589 61.6631 48.6327 60.2566 48.1384C59.1858 50.0681 58.1834 51.8754 57.1477 53.7447Z" fill="#002961"/>
<path d="M9.38415 64.7351C10.3754 63.1106 11.2537 61.6721 12.1924 60.1335C12.9975 60.6214 13.7739 61.0935 14.6061 61.5974C12.9354 64.3505 11.2934 67.0543 9.60531 69.8344C8.93706 69.4259 8.29108 69.0746 7.6992 68.6486C7.49873 68.5039 7.37462 68.1828 7.31734 67.9206C6.88457 65.9607 6.47726 63.9944 6.0588 62.0314C6.01744 61.839 5.94743 61.6515 5.84083 61.2922C4.848 62.9151 3.94427 64.3902 3.01826 65.905C2.1909 65.4012 1.42878 64.937 0.609375 64.4395C2.28796 61.6753 3.94108 58.954 5.62444 56.1851C6.29906 56.5904 6.92753 56.929 7.50509 57.3391C7.70875 57.4837 7.85354 57.7889 7.91081 58.0448C8.34359 59.9777 8.74613 61.9185 9.15981 63.8545C9.20913 64.0819 9.27437 64.3044 9.38415 64.7351Z" fill="#EE1D24"/>
<path d="M27.5948 8.88965C26.4858 8.00428 25.4469 7.17295 24.2281 6.20016C24.6243 8.14257 24.9759 9.85926 25.3403 11.6459C24.4397 11.8319 23.598 12.0051 22.68 12.1943C22.0308 9.07721 21.3976 6.04121 20.75 2.93049C21.5519 2.762 22.2663 2.57285 22.9918 2.48224C23.2289 2.45204 23.5344 2.62848 23.7444 2.7922C24.7802 3.60286 25.7937 4.44214 26.8963 5.33545C27.4946 4.18622 28.0833 3.13236 28.594 2.04194C28.8772 1.43633 29.2447 1.0771 29.9337 1.00875C30.454 0.956292 30.9647 0.79416 31.555 0.663818C32.201 3.7348 32.8406 6.77398 33.5041 9.92443C32.5844 10.1168 31.6998 10.3027 30.761 10.4998C30.3855 8.71957 30.0276 7.02195 29.6171 5.07159C28.8899 6.44177 28.2631 7.62597 27.5948 8.88965Z" fill="#EE1D24"/>
<path d="M8.8871 7.47339C10.5673 10.1629 12.2124 12.7936 13.9181 15.5228C13.1257 16.0155 12.3779 16.4797 11.5633 16.9867C10.8855 15.9249 10.2379 14.9124 9.55694 13.8458C8.30795 14.6231 7.1051 15.3734 5.83224 16.1665C6.48617 17.2299 7.11624 18.2536 7.78449 19.3377C6.99054 19.8257 6.23478 20.2898 5.39788 20.8032C3.72407 18.1264 2.0789 15.4958 0.382812 12.7824C1.17676 12.2897 1.93093 11.8224 2.75988 11.3089C3.38199 12.2865 3.985 13.2323 4.63416 14.2527C5.87202 13.4786 7.0701 12.73 8.34773 11.932C7.73675 10.9322 7.15283 9.9769 6.53231 8.96278C7.31989 8.46526 8.06929 7.99158 8.8871 7.47339Z" fill="#EE1D24"/>
<path d="M73.3917 15.9618C72.5563 15.4992 71.7974 15.0796 70.9414 14.6043C72.4848 11.8417 74.0074 9.11409 75.5651 6.32764C78.5022 7.96009 81.3805 9.56075 84.3208 11.1964C82.7711 13.9701 81.2548 16.6818 79.6971 19.4715C78.8825 19.0185 78.1092 18.5893 77.2659 18.1204C78.4465 16.0079 79.6 13.9463 80.7934 11.8099C79.5109 11.0931 78.2731 10.4032 76.9398 9.65771C75.7576 11.7591 74.5977 13.8191 73.3917 15.9618Z" fill="#EE1D24"/>
<path d="M80.3798 63.7482C81.0258 64.7623 81.6463 65.7367 82.3257 66.8017C81.5429 67.3055 80.7776 67.7983 79.9391 68.3387C78.1905 65.6429 76.4594 62.9693 74.6758 60.2194C76.3098 59.2053 77.8595 58.1403 79.5047 57.2517C80.9892 56.4506 82.5357 56.9497 83.3869 58.2992C84.2111 59.6074 83.8993 61.2049 82.5659 62.2397C81.8834 62.7722 81.1387 63.2284 80.3798 63.7482ZM78.0886 60.2512C78.5325 60.9283 78.9494 61.5673 79.3599 62.1936C81.1196 61.1667 81.4394 60.6597 80.9192 59.8617C80.34 58.9764 79.5843 59.0638 78.0886 60.2512Z" fill="#EE1D24"/>
<path d="M37.5428 70.0567C36.5197 69.661 35.5905 69.2334 34.6184 68.9552C34.1665 68.8265 33.6128 68.9155 33.1339 69.0315C31.8149 69.351 31.0241 70.3158 30.9812 71.5446C30.9414 72.6906 31.7751 73.7985 32.9875 74.2134C34.0313 74.571 35.1498 74.49 37.04 73.8971C36.9604 74.5774 36.9222 75.2243 36.7886 75.8522C36.7504 76.035 36.464 76.2464 36.254 76.3004C34.3399 76.79 32.4545 76.6231 30.6661 75.8188C28.7075 74.9382 27.7465 72.8289 28.1682 70.5765C28.6089 68.2288 30.2477 66.7839 32.6693 66.6186C34.3558 66.5041 35.923 66.9524 37.4123 67.6915C37.5905 67.7805 37.7766 68.0794 37.7671 68.2717C37.7385 68.8996 37.6175 69.5211 37.5428 70.0567Z" fill="#EE1D24"/>
<path d="M60.4975 68.1288C59.4585 68.0238 58.5484 67.8554 57.6431 67.8792C57.3074 67.8887 56.803 68.2893 56.6964 68.6167C56.5166 69.1619 57.0687 69.3447 57.5031 69.4862C58.3082 69.7469 59.1276 69.9647 59.9215 70.254C61.005 70.6482 61.694 71.3937 61.7513 72.5969C61.8069 73.7748 61.2596 74.6236 60.2397 75.1751C58.7394 75.9858 57.1467 75.9969 55.5302 75.6488C55.3774 75.6154 55.1913 75.404 55.1499 75.2419C55.0067 74.684 54.9208 74.1102 54.7935 73.433C55.2374 73.5538 55.5938 73.7032 55.9629 73.7398C56.6391 73.8066 57.3392 73.8988 57.9979 73.7938C58.3464 73.7382 58.6312 73.2868 58.9446 73.0134C58.6693 72.732 58.4418 72.3347 58.1061 72.1932C57.4538 71.9182 56.7314 71.8165 56.0552 71.5908C55.2008 71.3062 54.4928 70.8214 54.1221 69.9504C53.5397 68.577 54.1014 67.0844 55.5063 66.4311C56.7951 65.8319 58.1618 65.7953 59.5492 66.0163C60.0074 66.0894 60.2318 66.3278 60.2795 66.7951C60.3272 67.2815 60.4354 67.7647 60.4975 68.1288Z" fill="#EE1D24"/>
<path d="M54.9684 0.654541C58.2269 1.30148 61.3804 1.92776 64.5928 2.56516C64.456 3.30111 64.3318 3.96554 64.1918 4.71103C63.0256 4.49803 61.9214 4.29775 60.7392 4.08316C60.2635 6.4611 59.8005 8.77705 59.3231 11.1677C58.4035 10.996 57.5332 10.8323 56.5913 10.6575C57.0527 8.28748 57.5029 5.96994 57.9723 3.55385C56.8299 3.31701 55.7337 3.0897 54.5547 2.84651C54.6915 2.11691 54.8204 1.42864 54.9684 0.654541Z" fill="#EE1D24"/>
</g>
<defs>
<clipPath id="clip0">
<rect width="84.0835" height="75.9208" fill="white" transform="translate(0.382812 0.655151)"/>
</clipPath>
</defs>
</svg>
