<svg width="64" height="66" viewBox="0 0 64 66" fill="none" xmlns="http://www.w3.org/2000/svg">
<path d="M0.394597 37.8794C0.437687 37.6664 0.483649 37.5005 0.50199 37.3316C0.521657 37.1503 0.534473 36.9644 0.516906 36.7839C0.458458 36.184 0.339353 35.5866 0.326426 34.9866C0.296926 33.613 0.298362 32.2378 0.325211 30.8641C0.335486 30.3385 0.450393 29.8151 0.515359 29.2904C0.527734 29.1902 0.524087 29.088 0.538009 28.9881C0.599661 28.5472 0.662196 28.1064 0.729815 27.6664C0.806935 27.1644 0.890021 26.6633 0.969903 26.1616C0.979958 26.0982 0.978742 26.0321 0.99631 25.9711C1.12978 25.5097 1.26181 25.0477 1.40357 24.5887C1.66741 23.7337 1.8959 22.8648 2.2152 22.0309C2.63318 20.9396 3.08916 19.8592 3.59607 18.8067C4.023 17.9204 4.51875 17.0636 5.0344 16.2248C5.57932 15.3384 6.16866 14.4781 6.76838 13.6274C7.09476 13.1644 7.46721 12.7308 7.84696 12.3093C8.49286 11.5924 9.15225 10.8873 9.82236 10.1931C10.3082 9.68972 10.8038 9.19323 11.3262 8.72887C11.7624 8.34116 12.243 8.00341 12.7057 7.64584C13.1814 7.27818 13.6449 6.89235 14.1395 6.55217C14.7854 6.10796 15.4394 5.6703 16.1212 5.28536C17.0507 4.76062 17.9948 4.25649 18.9605 3.80309C19.7925 3.41239 20.6579 3.09026 21.519 2.76547C22.2338 2.49585 22.9592 2.25193 23.6887 2.02506C24.1474 1.8825 24.6223 1.7921 25.0901 1.67923C25.5304 1.57299 25.9702 1.46444 26.4118 1.36374C26.6241 1.31533 26.839 1.27402 27.0548 1.2451C27.3969 1.19924 27.7419 1.17554 28.0833 1.1258C28.4875 1.06687 28.8891 0.990103 29.292 0.921644C29.3372 0.914001 29.3829 0.905471 29.4285 0.904031C30.5566 0.869027 31.6847 0.831475 32.813 0.802452C33.2454 0.791264 33.679 0.785171 34.111 0.803006C34.604 0.823388 35.097 0.861162 35.5877 0.913115C36.1452 0.972157 36.7022 1.04161 37.2553 1.13178C37.7717 1.21597 38.2832 1.33106 38.7959 1.43707C39.1418 1.50863 39.4903 1.57377 39.8295 1.67025C40.0098 1.72154 40.1793 1.82268 40.3422 1.92049C40.5257 2.03071 40.6036 2.18934 40.6032 2.4234C40.5951 6.67535 40.5972 10.9273 40.5972 15.1792C40.5972 15.2778 40.5972 15.3764 40.5972 15.533C40.2146 15.3535 39.891 15.1756 39.5489 15.0466C38.9548 14.8229 38.3545 14.6127 37.7471 14.4282C37.2108 14.2652 36.6638 14.1353 36.1172 14.0101C35.8254 13.9433 35.5245 13.9164 35.2276 13.8729C34.77 13.8057 34.3123 13.7397 33.8546 13.6734C33.791 13.6642 33.7271 13.648 33.6634 13.6481C32.8809 13.6493 32.0973 13.6294 31.3162 13.6646C30.8452 13.6859 30.3779 13.793 29.9092 13.8627C29.4675 13.9284 29.0223 13.9769 28.5856 14.0672C28.1256 14.1623 27.671 14.2885 27.2191 14.4187C26.6866 14.5721 26.1563 14.7348 25.6306 14.9104C24.6503 15.2378 23.7222 15.6852 22.8437 16.2256C22.1754 16.6366 21.5337 17.0914 20.8835 17.5317C19.6307 18.3799 18.6479 19.5234 17.6108 20.6001C17.0764 21.1549 16.6562 21.8251 16.2182 22.4664C15.9727 22.8257 15.7953 23.2319 15.59 23.6185C15.5649 23.6658 15.5491 23.7216 15.5432 23.7751C15.5059 24.1126 15.5494 24.162 15.8866 24.1621C21.4107 24.1629 26.9347 24.1664 32.4588 24.1584C33.0427 24.1576 33.6361 24.1413 34.2082 24.0379C35.2179 23.8555 36.2204 23.6262 37.1758 23.2272C38.6456 22.6133 39.9658 21.762 41.1034 20.6549C42.1688 19.618 43.0306 18.4115 43.6667 17.0646C43.9456 16.474 44.1266 15.8346 44.3241 15.2084C44.4845 14.6995 44.6316 14.1827 44.7317 13.6592C44.8191 13.2026 44.8706 12.732 44.8727 12.2673C44.8851 9.49122 44.8787 6.71489 44.8786 3.93868C44.8786 3.80032 44.8888 3.66108 44.8763 3.52383C44.8551 3.29054 44.9323 3.18309 45.1842 3.20214C45.4314 3.22087 45.6811 3.20547 45.9297 3.20547C51.463 3.20536 56.9963 3.20536 62.5295 3.20547C62.6124 3.20547 62.6953 3.20968 62.778 3.20713C62.9492 3.20181 63.0345 3.28212 63.0349 3.45438C63.0352 3.6572 63.0377 3.86014 63.0378 4.06297C63.0381 6.29506 63.0491 8.52715 63.0328 10.759C63.0257 11.7211 62.9798 12.6839 62.9174 13.6442C62.8755 14.2889 62.7857 14.9313 62.6951 15.5716C62.6061 16.2019 62.5061 16.8318 62.3791 17.4553C62.2687 17.9978 62.1209 18.533 61.9773 19.0682C61.7935 19.7525 61.6094 20.4372 61.4024 21.1147C61.262 21.5742 61.0917 22.0253 60.9172 22.4731C60.7024 23.0241 60.4801 23.5727 60.241 24.1135C60.0093 24.6375 59.7678 25.1586 59.5025 25.6663C59.1685 26.3054 58.8262 26.9417 58.4501 27.5563C58.087 28.1495 57.6859 28.7202 57.284 29.2884C56.9042 29.8255 56.517 30.3591 56.105 30.8716C55.6216 31.4728 55.1387 32.0804 54.5961 32.6259C54.2673 32.9563 54.2636 33.4518 54.6003 33.8073C55.3248 34.5724 56.0443 35.3542 56.6645 36.2037C57.4784 37.3181 58.2433 38.4758 58.938 39.6682C59.5597 40.7353 60.0944 41.8583 60.5987 42.9874C60.996 43.877 61.2986 44.8098 61.6239 45.7302C61.8171 46.2765 61.9936 46.8307 62.1395 47.3914C62.2834 47.9451 62.3818 48.5108 62.4957 49.0722C62.604 49.6062 62.7211 50.1389 62.8068 50.6766C62.8685 51.063 62.8897 51.4562 62.9202 51.8471C62.9629 52.3948 63.0288 52.943 63.0308 53.4912C63.0422 56.7653 63.0356 60.0394 63.0435 63.3134C63.044 63.5673 62.9887 63.6624 62.7094 63.6619C57.0656 63.6532 51.4219 63.6551 45.7781 63.6546C45.64 63.6546 45.5018 63.6565 45.3639 63.6507C45.1889 63.6434 45.0917 63.5526 45.0911 63.3717C45.0906 63.2518 45.0928 63.1319 45.0928 63.012C45.0926 60.3927 45.105 57.7731 45.0824 55.1538C45.077 54.5469 44.961 53.9399 44.8789 53.3353C44.8227 52.921 44.7338 52.5111 44.665 52.0984C44.5413 51.3555 44.3127 50.6416 43.9792 49.9727C43.616 49.2438 43.2404 48.5123 42.7841 47.8406C42.0122 46.7043 41.1103 45.6674 39.9571 44.8982C39.2238 44.4091 38.4697 43.9371 37.6786 43.5534C36.9566 43.2032 36.1824 42.948 35.4117 42.7156C34.8209 42.5374 34.2073 42.4597 33.5752 42.4613C27.7658 42.4763 21.9563 42.4694 16.1468 42.4697C15.5899 42.4697 15.5415 42.5119 15.7539 43.026C15.9158 43.4181 16.1431 43.7877 16.3758 44.1447C16.615 44.5119 16.8961 44.8517 17.1585 45.2038C17.3278 45.4309 17.4736 45.6806 17.6689 45.8822C18.4284 46.666 19.1994 47.4389 19.9738 48.2081C20.8115 49.0401 21.8725 49.5444 22.8579 50.1598C24.0533 50.9065 25.3591 51.4102 26.6823 51.8613C27.3171 52.0777 27.9886 52.1898 28.6475 52.3304C29.1827 52.4448 29.7238 52.5313 30.2623 52.63C30.2894 52.635 30.3165 52.642 30.3439 52.6435C31.1586 52.6867 31.974 52.7712 32.7881 52.7595C33.5171 52.7489 34.249 52.6616 34.9717 52.5548C35.7706 52.4366 36.5744 52.3073 37.3509 52.0919C38.2312 51.8478 39.0829 51.5007 39.9483 51.2023C40.5329 51.0007 40.6028 50.8025 40.5998 51.6256C40.5853 55.7204 40.5785 59.8154 40.5685 63.9104C40.5682 64.067 40.557 64.2239 40.5616 64.3803C40.575 64.839 40.5717 64.8506 40.1379 64.9499C39.6268 65.0669 39.1155 65.1843 38.6015 65.2875C38.3426 65.3395 38.0782 65.3661 37.8152 65.3943C37.3983 65.4391 36.9793 65.4658 36.5635 65.5184C36.157 65.5698 35.7534 65.6438 35.3485 65.708C35.2942 65.7167 35.24 65.7322 35.1855 65.7334C33.7255 65.7691 32.2655 65.8268 30.8055 65.8262C30.2306 65.826 29.6562 65.643 29.0804 65.6355C28.0895 65.6225 27.1839 65.2339 26.2305 65.0602C25.3847 64.9061 24.5601 64.6266 23.7341 64.3759C23.1815 64.2082 22.6432 63.9933 22.0978 63.8015C21.6756 63.6531 21.2443 63.5273 20.8314 63.3566C20.227 63.1067 19.6311 62.8351 19.0398 62.5552C18.3708 62.2384 17.6974 61.9267 17.0509 61.5675C16.3779 61.1938 15.7144 60.7954 15.0831 60.3556C14.0835 59.659 13.1096 58.9251 12.1333 58.1957C10.8533 57.2393 9.76966 56.07 8.6723 54.9204C8.12837 54.3506 7.643 53.7223 7.15663 53.1004C6.5884 52.3739 6.02082 51.644 5.50452 50.8806C5.1166 50.307 4.79674 49.6853 4.47025 49.0724C4.00156 48.1924 3.52326 47.3152 3.10695 46.41C2.72488 45.5793 2.4037 44.7193 2.08538 43.861C1.84286 43.2073 1.62763 42.5418 1.43649 41.8712C1.28954 41.3557 1.19718 40.8246 1.08426 40.2995C0.975538 39.7935 0.864167 39.2879 0.769811 38.7791C0.738322 38.6092 0.755006 38.4302 0.751028 38.2553C0.746609 38.0566 0.717661 37.8764 0.394597 37.8794ZM26.3114 35.3121C33.4549 35.3121 40.5983 35.3073 47.7419 35.3231C48.2129 35.3241 48.5671 35.1617 48.8584 34.849C49.2887 34.387 49.6746 33.8838 50.0932 33.4103C51.0668 32.3086 52.0509 31.2163 53.0246 30.1146C53.1614 29.9599 53.2784 29.7823 53.3776 29.6004C53.5257 29.329 53.3809 29.0867 53.0666 29.0548C52.9845 29.0464 52.9011 29.0511 52.8182 29.0511C50.885 29.0507 48.9519 29.0508 47.0188 29.0501C46.2143 29.0498 46.2871 29.1157 46.2868 28.3244C46.2856 25.7423 46.2857 23.16 46.2902 20.5779C46.2904 20.4204 46.2729 20.2984 46.0903 20.2847C45.7467 20.2589 45.4008 20.209 45.0593 20.2284C44.8424 20.2407 44.7277 20.3912 44.7289 20.6626C44.7422 23.4199 44.7371 26.1774 44.7365 28.9348C44.7364 29.3198 44.6761 29.3751 44.2822 29.3743C43.5918 29.373 42.9013 29.3707 42.211 29.3757C42.0758 29.3767 41.9224 29.3739 41.8092 29.4335C41.4295 29.6334 41.0654 29.8629 40.693 30.077C40.4 30.2454 40.1056 30.4115 39.8078 30.5713C39.6402 30.6612 39.4655 30.7379 39.2925 30.8175C38.9898 30.957 38.6864 31.2135 38.3825 31.2145C31.9112 31.2373 25.4397 31.2312 18.9684 31.2307C18.5173 31.2307 18.511 31.2302 18.5102 30.7815C18.5073 29.0478 18.5086 27.3141 18.5086 25.5803C18.5086 25.1482 18.2767 24.9083 17.8506 24.9077C16.1384 24.9056 14.4261 24.9046 12.7139 24.9044C12.1614 24.9044 12.1433 24.9125 11.9414 25.4434C11.7925 25.835 11.6602 26.2329 11.5229 26.6289C11.4576 26.8172 11.3189 26.8691 11.1343 26.8661C10.7661 26.8601 10.3978 26.8591 10.0297 26.8646C9.76424 26.8686 9.55089 27.0671 9.54492 27.3271C9.53542 27.7419 9.52868 28.1576 9.54592 28.5719C9.56492 29.0271 9.74612 29.1864 10.1909 29.1865C10.4579 29.1865 10.7272 29.165 10.991 29.1943C11.163 29.2135 11.3628 29.2693 11.479 29.3823C11.5359 29.4376 11.4644 29.6826 11.3873 29.7996C11.3347 29.8794 11.1721 29.9193 11.0583 29.9202C9.97207 29.9285 8.88576 29.9178 7.79956 29.9289C7.51881 29.9318 7.23674 29.9823 6.95975 30.0344C6.90572 30.0446 6.83942 30.1618 6.83523 30.2331C6.81998 30.4904 6.83036 30.7492 6.82816 31.0074C6.82473 31.4021 6.77578 31.452 6.37803 31.4523C5.42983 31.4532 4.48174 31.4488 3.53354 31.4518C3.03104 31.4533 2.81857 31.756 2.9927 32.2108C3.11369 32.527 3.23434 32.8434 3.35996 33.1578C3.57011 33.684 3.78125 34.2099 3.99747 34.7337C4.16972 35.1511 4.43522 35.3274 4.93639 35.326C12.0612 35.3046 19.1863 35.3115 26.3114 35.3121Z" fill="#4E5C9D"/>
</svg>
