<svg width="193" height="70" viewBox="0 0 193 70" fill="none" xmlns="http://www.w3.org/2000/svg">
<path d="M23.707 45.9355V34.4336L46.7589 37.5105L47.0498 43.8842C47.0498 43.8842 44.5774 46.9611 39.7779 46.8879C34.9784 46.8146 31.7788 42.9318 31.7788 42.9318C31.7788 42.9318 29.4517 46.1553 23.707 45.9355Z" fill="#00A2E6"/>
<path d="M45.4906 14.599C45.4906 21.5954 45.4906 28.5485 45.4906 35.5837C46.5628 35.7298 47.613 35.8729 48.7049 36.0217C48.7049 36.159 48.7314 36.3058 48.7006 36.439C48.5269 37.1884 48.3296 37.9323 48.1601 38.6828C48.058 39.1352 48.0039 39.5987 47.9065 40.0523C47.8137 40.4841 47.6899 40.909 47.5843 41.338C47.501 41.6765 47.4198 42.0157 47.3461 42.3565C47.2648 42.7328 47.1575 43.1084 47.1291 43.4894C47.1076 43.7792 47.0021 43.9735 46.8046 44.1726C46.1791 44.8031 45.4313 45.2544 44.6759 45.6957C44.5931 45.7441 44.4272 45.7635 44.3719 45.7143C44.3021 45.652 44.2673 45.4986 44.2852 45.3967C44.3562 44.9942 44.4557 44.5968 44.5408 44.1967C44.6509 43.6784 44.7492 43.1575 44.8678 42.6415C44.9675 42.2081 45.0936 41.7811 45.1992 41.349C45.2791 41.0218 45.3472 40.6916 45.4169 40.3618C45.4966 39.9842 45.567 39.6045 45.6518 39.2283C45.7035 38.9984 45.7597 38.7672 45.8411 38.5468C45.9547 38.2393 45.8496 38.0759 45.5156 38.0438C44.7764 37.9729 44.0236 37.9569 43.3032 37.7957C42.2689 37.5644 41.2192 37.5185 40.1765 37.3937C39.031 37.2565 37.8813 37.153 36.7374 37.0047C36.0084 36.9102 35.2861 36.7612 34.5608 36.6368C34.5131 36.6286 34.4653 36.6192 34.4171 36.6152C33.6248 36.5496 32.8317 36.4917 32.0402 36.4174C31.3573 36.3534 30.6504 36.3594 30.0016 36.1696C29.4514 36.0088 28.9036 36.0857 28.3726 35.9723C27.2293 35.728 26.0641 35.6916 24.9147 35.5252C24.4775 35.462 24.0574 35.3179 23.6032 35.3774C23.0081 35.4555 22.4098 35.5077 21.8132 35.5754C21.2205 35.6426 20.6267 35.7031 20.0365 35.789C19.3389 35.8905 18.6447 36.0158 17.9489 36.131C17.8891 36.1409 17.8299 36.1563 17.7699 36.1619C16.9425 36.2372 16.1128 36.2926 15.2881 36.391C14.5048 36.4847 13.7266 36.6228 12.9463 36.7418C12.9105 36.7472 12.8758 36.7606 12.84 36.7641C12.014 36.8448 11.1862 36.9102 10.3624 37.0089C9.60064 37.1004 8.8432 37.2274 8.08372 37.3386C8.05973 37.3421 8.03573 37.3453 8.01173 37.3477C7.10158 37.4335 6.19085 37.5134 5.28157 37.6069C4.62638 37.6743 3.97103 37.7471 3.31933 37.8417C2.86396 37.9078 2.72478 38.1814 2.85422 38.5996C2.98831 39.0328 3.09593 39.4749 3.20152 39.9165C3.33503 40.4749 3.45895 41.0358 3.57893 41.5972C3.67172 42.0314 3.7456 42.4698 3.83999 42.9035C3.937 43.3493 4.04841 43.792 4.15472 44.2358C4.16316 44.2709 4.18628 44.3026 4.19414 44.3377C4.27005 44.6759 4.35034 45.0132 4.4152 45.3536C4.43716 45.4689 4.41869 45.5918 4.41869 45.7792C4.08128 45.6148 3.76233 45.5076 3.4988 45.3209C2.97493 44.9498 2.46488 44.5543 1.98493 44.1279C1.81652 43.9783 1.7118 43.7199 1.65086 43.4913C1.5399 43.0752 1.49365 42.6422 1.40158 42.2204C1.29963 41.7531 1.17659 41.2904 1.06286 40.8256C1.05137 40.7788 1.03988 40.7317 1.03086 40.6844C0.879317 39.8964 0.733152 39.1074 0.575497 38.3207C0.457256 37.7311 0.331162 37.143 0.193723 36.5578C0.154164 36.3893 0.0635563 36.2329 0 36.0798C0.0469764 36.0409 0.0632654 36.0155 0.0821723 36.0135C0.854883 35.9286 1.6289 35.8543 2.40001 35.7579C2.63606 35.7285 2.87472 35.6618 3.09113 35.5648C3.17025 35.5294 3.22552 35.3569 3.22814 35.2454C3.24617 34.4891 3.25286 33.7321 3.25301 32.9755C3.25461 27.0301 3.2533 21.0847 3.25475 15.1392C3.2549 14.5191 3.20879 14.6002 3.76946 14.6002C17.5113 14.5987 31.2531 14.599 44.995 14.599C45.1488 14.599 45.303 14.599 45.4906 14.599ZM11.1103 21.4758C12.7947 21.4758 14.4794 21.4701 16.1637 21.4811C16.4611 21.483 16.563 21.393 16.5593 21.0855C16.5443 19.877 16.5422 18.668 16.5603 17.4597C16.5652 17.1253 16.4697 17.0188 16.1322 17.0198C12.7875 17.0306 9.44269 17.0299 6.09806 17.0205C5.7829 17.0197 5.67615 17.1114 5.68066 17.4364C5.69709 18.6326 5.69883 19.8293 5.67978 21.0255C5.67426 21.3762 5.77693 21.4866 6.12948 21.4831C7.78965 21.4666 9.44997 21.4758 11.1103 21.4758ZM24.4292 21.4758C26.1003 21.4758 27.7713 21.4691 29.4423 21.4817C29.7638 21.484 29.8912 21.4005 29.886 21.0528C29.8677 19.8575 29.8703 18.6617 29.8847 17.4664C29.8886 17.1426 29.8027 17.0185 29.4577 17.0197C26.1278 17.0311 22.7977 17.0309 19.4677 17.0198C19.1226 17.0186 19.0332 17.1465 19.0366 17.4693C19.0494 18.6525 19.0518 19.8361 19.0353 21.0192C19.0305 21.3656 19.1351 21.4862 19.4888 21.4828C21.1355 21.4672 22.7824 21.4758 24.4292 21.4758ZM24.4711 28.4344C26.1419 28.4344 27.8128 28.4288 29.4834 28.4395C29.7807 28.4414 29.8873 28.3473 29.8841 28.0418C29.8712 26.8222 29.8715 25.6023 29.8841 24.3826C29.8873 24.0809 29.7878 23.9831 29.4877 23.9838C26.1461 23.992 22.8044 23.9938 19.4628 23.9819C19.1121 23.9806 19.0332 24.1148 19.0365 24.4332C19.049 25.6162 19.0521 26.7996 19.035 27.9825C19.03 28.3352 19.148 28.444 19.4948 28.4411C21.1535 28.4265 22.8124 28.4345 24.4711 28.4344ZM37.7194 23.9889C36.0729 23.9889 34.4264 23.9958 32.7799 23.9829C32.4662 23.9804 32.3563 24.0708 32.3606 24.3967C32.3768 25.604 32.3759 26.8117 32.3612 28.019C32.3573 28.3368 32.4552 28.4413 32.7756 28.4402C36.0565 28.4306 39.3373 28.4307 42.6182 28.4401C42.9443 28.441 43.0682 28.3459 43.0638 28.0049C43.0486 26.8099 43.0487 25.6143 43.0638 24.4193C43.0681 24.0824 42.9539 23.9795 42.6227 23.9825C40.9883 23.9967 39.3539 23.9889 37.7194 23.9889ZM11.1186 30.9347C9.44808 30.9347 7.77772 30.9403 6.10722 30.9296C5.80442 30.9277 5.67513 31.0027 5.68036 31.3378C5.69811 32.4594 5.69665 33.5817 5.68109 34.7034C5.67658 35.0247 5.77912 35.1497 6.0985 35.116C6.81623 35.0401 7.53542 34.9765 8.25389 34.9074C8.28981 34.9039 8.325 34.8929 8.36093 34.887C9.09873 34.7679 9.83363 34.6241 10.5751 34.5364C11.4947 34.4277 12.4195 34.3655 13.3422 34.283C13.3662 34.2808 13.3899 34.2753 13.4139 34.2721C14.2946 34.1554 15.1737 34.024 16.0568 33.9288C16.5114 33.8797 16.5433 33.8891 16.5498 33.4165C16.5591 32.7459 16.5328 32.0742 16.5613 31.4048C16.577 31.0344 16.4633 30.9229 16.0937 30.9268C14.4354 30.9449 12.777 30.9346 11.1186 30.9347ZM37.7132 30.9349C36.0662 30.9349 34.4193 30.9356 32.7725 30.934C32.5535 30.9337 32.3606 30.9318 32.3649 31.247C32.3753 32.0398 32.3701 32.8329 32.3659 33.6259C32.3649 33.8186 32.4302 33.9063 32.6359 33.9241C33.3309 33.9839 34.024 34.0633 34.7179 34.1354C34.8863 34.1529 35.0553 34.1663 35.2229 34.1906C35.9461 34.2955 36.6669 34.4218 37.3925 34.5061C38.2597 34.6069 39.1309 34.6725 40.0002 34.7541C40.0361 34.7575 40.0712 34.7696 40.1071 34.7745C40.9511 34.8874 41.795 35.0001 42.639 35.1126C42.9543 35.1547 43.0665 35.0164 43.0627 34.6978C43.0499 33.6 43.0446 32.5016 43.0653 31.4041C43.0723 31.0284 42.9408 30.9246 42.5813 30.928C40.9586 30.9435 39.3358 30.9348 37.7132 30.9349ZM24.4351 30.9191C22.7636 30.9191 21.092 30.9258 19.4206 30.9134C19.0921 30.9109 18.9646 31.014 18.9766 31.3531C18.9968 31.9258 18.9943 32.5003 18.9773 33.0734C18.9677 33.3989 19.0654 33.5566 19.412 33.5101C19.8885 33.4463 20.3665 33.3923 20.8449 33.3443C21.6838 33.26 22.5235 33.1862 23.3624 33.1014C23.5173 33.0857 23.6677 33.0259 23.8226 33.0095C24.1309 32.9767 24.4433 32.9241 24.7497 32.9446C25.1911 32.974 25.6283 33.0641 26.0681 33.1227C26.2358 33.145 26.406 33.1468 26.5742 33.1663C27.5656 33.2804 28.5564 33.3972 29.5476 33.5123C29.7966 33.5412 29.8971 33.4281 29.8933 33.1756C29.8846 32.59 29.8923 32.0042 29.8911 31.4184C29.8901 30.9213 29.8888 30.9197 29.377 30.9194C27.7299 30.9183 26.0825 30.9189 24.4351 30.9191Z" fill="#183C67"/>
<path d="M0.351562 50.9633C0.962547 50.4402 1.52088 49.9622 2.09667 49.4692C4.14356 51.6897 6.72552 52.6554 9.64824 52.4376C12.5472 52.2215 14.959 50.9108 16.6434 48.4336C17.1918 49.0402 17.6448 49.6748 18.2263 50.1501C18.9263 50.7224 19.7117 51.2033 20.5063 51.6382C20.9534 51.8828 21.496 51.9473 21.9913 52.1064C22.9305 52.4081 23.8963 52.5381 24.8728 52.4594C25.512 52.4078 26.1474 52.2653 26.7748 52.1202C27.3025 51.9983 27.8317 51.853 28.3306 51.6455C28.7505 51.4708 29.1274 51.1911 29.5239 50.959C30.4915 50.3927 31.1918 49.5326 31.9341 48.7211C32.1049 48.5344 32.1981 48.5575 32.3617 48.724C33.0317 49.4058 33.692 50.1009 34.4052 50.7347C34.7504 51.0415 35.1865 51.2654 35.6134 51.4528C36.2815 51.7461 36.9649 52.0193 37.6648 52.2198C38.1927 52.3712 38.7573 52.4664 39.304 52.46C40.1681 52.4499 41.0464 52.4118 41.8906 52.2431C42.9635 52.0288 44.0012 51.637 44.9099 51.002C45.4683 50.6118 45.9626 50.129 46.4894 49.6922C46.5793 49.6176 46.6875 49.5658 46.8037 49.4929C47.2784 49.9356 47.7339 50.3816 48.2147 50.7981C48.3955 50.9548 48.3497 51.0755 48.223 51.1853C47.6331 51.6957 47.0653 52.2417 46.4274 52.6836C45.7799 53.1322 45.0785 53.5155 44.3644 53.8481C43.8763 54.0755 43.3294 54.1812 42.8022 54.3151C42.3088 54.4405 41.8109 54.5643 41.3074 54.6308C40.3487 54.7576 39.3849 54.8329 38.4295 54.5844C38.3596 54.5662 38.2881 54.5416 38.2172 54.5407C37.5406 54.5331 36.8992 54.3699 36.2715 54.1252C35.6781 53.894 35.0398 53.7503 34.489 53.4443C33.7502 53.0339 33.0643 52.5209 32.3822 52.0157C32.1832 51.8683 32.0966 51.8537 31.9071 52.0111C31.0558 52.7183 30.1252 53.2925 29.1 53.7207C28.4529 53.9908 27.7987 54.1983 27.1162 54.3631C25.8496 54.6691 24.5771 54.8018 23.2875 54.6679C22.575 54.5939 21.8574 54.4749 21.1698 54.2782C20.5399 54.0979 19.9319 53.8169 19.3421 53.5233C18.7141 53.2108 18.1137 52.8401 17.5121 52.4767C17.2712 52.3312 17.0664 52.1261 16.8295 51.9725C16.7578 51.9259 16.607 51.9199 16.5378 51.9655C15.7998 52.4502 15.0974 52.9968 14.3306 53.4278C13.7916 53.7306 13.1712 53.8893 12.582 54.0975C12.194 54.2347 11.803 54.376 11.4019 54.4604C10.8737 54.5716 10.3367 54.6603 9.7992 54.7001C9.25686 54.7403 8.70405 54.7561 8.16521 54.6969C7.51496 54.6254 6.87328 54.4697 6.23016 54.3385C5.907 54.2726 5.58005 54.2061 5.27071 54.0947C4.69317 53.8867 4.10997 53.6811 3.56137 53.4086C2.99329 53.1264 2.4383 52.8011 1.9252 52.4282C1.51448 52.1297 1.1759 51.7309 0.804019 51.3781C0.668181 51.2496 0.528124 51.125 0.351562 50.9633Z" fill="#183C67"/>
<path d="M9.77957 57.1108C11.897 59.3219 14.4161 60.2185 17.3784 60.0393C20.337 59.8604 22.5971 58.4819 24.3775 56.1104C24.7726 56.5556 25.117 56.9797 25.4992 57.3659C26.0674 57.9403 26.663 58.4879 27.409 58.8298C28.1135 59.1526 28.7982 59.5447 29.5326 59.77C30.5126 60.0707 31.5448 60.0915 32.57 60.0456C32.703 60.0396 32.8361 60.0258 32.9692 60.0277C33.8673 60.0399 34.7168 59.8135 35.534 59.4671C36.0917 59.2308 36.6652 59.0011 37.167 58.6692C37.7574 58.2787 38.2926 57.7974 38.8199 57.3197C38.9753 57.1788 39.0604 57.1542 39.2006 57.2759C39.6334 57.6515 40.0556 58.0399 40.4992 58.4019C40.6755 58.5458 40.6722 58.637 40.5304 58.7977C39.7805 59.6469 38.9208 60.3549 37.9046 60.8531C37.3172 61.141 36.7157 61.4012 36.1118 61.6529C35.1159 62.0683 34.06 62.1696 33.0012 62.3247C32.0507 62.4639 31.153 62.2409 30.2312 62.2294C29.7726 62.2236 29.3122 62.0072 28.8607 61.8607C28.2918 61.6759 27.7256 61.4793 27.1683 61.2616C26.4723 60.9898 25.8408 60.5968 25.2477 60.142C25.0414 59.9838 24.8573 59.7806 24.6282 59.6733C24.4873 59.6074 24.2199 59.6145 24.1128 59.7086C23.33 60.3951 22.4414 60.9101 21.5129 61.3494C21.0383 61.5738 20.5146 61.6946 20.0101 61.8519C19.6152 61.975 19.2156 62.0824 18.8179 62.1964C18.7601 62.2129 18.702 62.2364 18.6428 62.2408C17.8748 62.2969 17.1047 62.4106 16.3388 62.3864C15.6521 62.3647 14.9689 62.198 14.2865 62.0811C13.8894 62.0129 13.485 61.9524 13.1049 61.8253C12.5459 61.6383 11.9891 61.4291 11.4611 61.1684C10.3472 60.6184 9.35824 59.8825 8.46932 59.0084C8.17917 58.7231 8.15939 58.6041 8.45405 58.3296C8.88309 57.9285 9.31839 57.5339 9.77957 57.1108Z" fill="#183C67"/>
<path d="M61.1055 24.9611C61.1055 21.4972 61.1055 18.072 61.1055 14.6211C61.2401 14.6132 61.3575 14.6003 61.4747 14.6001C62.9889 14.5988 64.5032 14.5837 66.017 14.6051C66.9057 14.6177 67.7614 14.8428 68.4181 15.4674C68.9827 16.0044 69.1251 16.7503 69.0426 17.5115C68.9831 18.0613 68.7773 18.5565 68.3467 18.948C67.9883 19.2737 68.0395 19.2471 68.4597 19.5372C69.1088 19.9851 69.7128 20.5143 69.7602 21.3931C69.7887 21.9214 69.8284 22.4698 69.7215 22.9791C69.6063 23.5285 69.2599 23.999 68.7756 24.3212C68.089 24.7778 67.3366 25.0012 66.5047 24.9938C64.797 24.9787 63.089 24.9916 61.3811 24.9911C61.2988 24.9913 61.2166 24.9738 61.1055 24.9611ZM64.9961 23.1637C65.347 23.1637 65.7007 23.1911 66.0482 23.1555C66.3598 23.1236 66.68 23.0604 66.9691 22.943C67.4841 22.7341 67.8157 21.6534 67.4938 21.1987C67.2015 20.7858 66.806 20.4756 66.2618 20.4712C65.3664 20.4641 64.4706 20.4759 63.5753 20.4617C63.2969 20.4573 63.2214 20.5704 63.2261 20.8301C63.2376 21.4882 63.2383 22.1469 63.2258 22.805C63.2209 23.0704 63.3071 23.1776 63.5805 23.168C64.0516 23.1514 64.524 23.1634 64.9961 23.1637ZM64.7994 18.6639C64.7994 18.6617 64.7994 18.6595 64.7994 18.6573C65.2228 18.6573 65.6469 18.6731 66.0694 18.6534C66.6056 18.6283 67.1461 18.0166 67.1043 17.5111C67.0614 16.9903 66.5281 16.4327 66.0121 16.4196C65.1779 16.3987 64.3428 16.4128 63.5082 16.4044C63.3061 16.4024 63.227 16.484 63.229 16.6848C63.2345 17.2454 63.2357 17.8062 63.2281 18.3666C63.2251 18.5861 63.3122 18.6715 63.5293 18.6667C63.9524 18.6573 64.3761 18.6639 64.7994 18.6639Z" fill="#183C67"/>
<path d="M94.0494 17.6491C94.934 17.649 95.8187 17.6603 96.703 17.6428C97.009 17.6368 97.0927 17.7425 97.0904 18.0418C97.0779 19.6041 97.0841 21.1668 97.0849 22.7293C97.0852 23.2648 97.1425 23.3224 97.6627 23.3262C98.3671 23.3313 98.3065 23.2527 98.3081 23.9746C98.3102 24.8169 98.2997 25.6593 98.3128 26.5013C98.3179 26.8313 98.1988 26.9709 97.8651 26.9517C97.5391 26.933 97.2102 26.933 96.8842 26.9517C96.5587 26.9705 96.4532 26.8213 96.4652 26.5154C96.4784 26.1741 96.4628 25.8319 96.4689 25.4902C96.4749 25.161 96.3373 24.992 95.996 24.9929C94.4935 24.9969 92.9909 24.9967 91.4884 24.993C91.1686 24.9923 91.0229 25.1397 91.0268 25.4596C91.0316 25.8379 91.0256 26.2163 91.0254 26.5948C91.0251 26.8333 90.9198 26.9542 90.6711 26.9494C90.2835 26.9419 89.8956 26.9511 89.5079 26.9462C89.1981 26.9421 89.0429 26.7747 89.0427 26.464C89.0419 25.5484 89.0478 24.6329 89.0391 23.7174C89.0363 23.4307 89.1643 23.3318 89.4338 23.3236C90.0586 23.3045 90.178 23.2134 90.385 22.6231C90.7095 21.6971 90.8533 20.7422 90.8677 19.7595C90.8769 19.1319 90.9548 18.5055 90.9922 17.8781C91.0063 17.6421 91.1606 17.6493 91.3231 17.6493C92.2319 17.6494 93.1407 17.6493 94.0494 17.6491ZM95.0659 21.314C95.0659 20.7524 95.0627 20.1908 95.0674 19.6292C95.0694 19.3905 94.9877 19.2751 94.727 19.2825C94.1943 19.2978 93.6605 19.295 93.1275 19.2836C92.908 19.2789 92.826 19.3722 92.8091 19.5792C92.7537 20.2568 92.7204 20.9382 92.6188 21.6088C92.5577 22.0119 92.4057 22.4061 92.2563 22.7891C92.133 23.1051 92.2329 23.3227 92.5642 23.3246C93.2792 23.3287 93.9945 23.3167 94.7091 23.3303C94.9839 23.3356 95.0725 23.2207 95.0685 22.9623C95.0604 22.413 95.0661 21.8635 95.0659 21.314Z" fill="#183C67"/>
<path d="M157.174 61.6773C157.146 61.8658 157.11 62.0006 157.109 62.1359C157.104 63.0512 157.108 63.9664 157.106 64.8817C157.105 65.3548 156.977 65.4798 156.498 65.4815C156.159 65.4827 155.82 65.4808 155.48 65.4818C155.15 65.4827 154.991 65.3117 154.991 64.9854C154.99 61.8247 154.992 58.6639 154.988 55.5032C154.988 55.223 155.101 55.1046 155.38 55.1122C155.779 55.1232 156.18 55.1292 156.579 55.1103C156.929 55.0936 157.155 55.1764 157.117 55.5886C157.113 55.6393 157.154 55.6942 157.167 55.7294C157.523 55.5171 157.84 55.2457 158.206 55.1301C158.654 54.9889 159.14 54.9435 159.613 54.918C160.94 54.8463 161.797 55.5707 162.442 56.6564C162.847 57.3375 163.023 58.0976 162.983 58.8485C162.921 60.0465 162.546 61.1743 161.549 61.9464C160.817 62.5139 159.947 62.7907 159.032 62.6254C158.454 62.5211 157.847 62.3599 157.418 61.8736C157.365 61.8144 157.294 61.7725 157.174 61.6773ZM159.142 60.8521C160.104 60.891 160.916 59.7835 160.972 58.8154C160.991 58.4846 160.894 58.1107 160.739 57.8156C160.57 57.4942 160.318 57.172 160.021 56.9745C159.485 56.6183 158.857 56.6498 158.242 56.771C157.797 56.8586 157.118 57.5487 157.111 57.9438C157.101 58.4919 157.107 59.0405 157.116 59.5886C157.119 59.7193 157.12 59.8919 157.197 59.9726C157.672 60.4717 158.215 60.8544 159.142 60.8521Z" fill="#183C67"/>
<path d="M79.45 55.1146C79.4666 55.362 79.4795 55.5529 79.4948 55.7809C79.7686 55.5973 79.9999 55.4153 80.255 55.2787C80.5085 55.1431 80.778 55.0176 81.0553 54.9532C81.3103 54.894 81.5859 54.9302 81.8513 54.9099C82.9968 54.8228 83.8537 55.3382 84.5343 56.214C84.863 56.6368 85.0297 57.1258 85.1866 57.6418C85.3375 58.1378 85.3868 58.6241 85.3345 59.1105C85.2111 60.26 84.8009 61.3129 83.8512 62.012C83.1448 62.532 82.2873 62.8008 81.4051 62.6309C80.7256 62.5 80.0165 62.3261 79.5922 61.6417C79.5671 61.6566 79.5419 61.6717 79.5167 61.6867C79.5012 61.8357 79.473 61.9847 79.4724 62.1339C79.4683 63.1104 79.4607 64.087 79.4757 65.0633C79.4805 65.3794 79.3811 65.506 79.0586 65.487C78.6843 65.4649 78.3077 65.483 77.932 65.4816C77.4965 65.4797 77.447 65.434 77.4463 65.0016C77.444 63.7321 77.4454 62.4627 77.4454 61.1932C77.4454 59.3133 77.4544 57.4335 77.4376 55.5539C77.4344 55.1936 77.5466 55.0897 77.8918 55.1079C78.3976 55.1346 78.9058 55.1146 79.45 55.1146ZM79.4714 58.7498C79.4714 59.0423 79.4632 59.3352 79.4754 59.6272C79.4802 59.7428 79.4989 59.8814 79.5652 59.9671C80.0839 60.6391 81.1808 61.1117 82.0642 60.681C82.7807 60.3317 83.2901 59.5646 83.3095 58.8411C83.3167 58.5687 83.2005 58.2931 83.1403 58.019C83.0314 57.5234 82.7158 57.18 82.3025 56.9313C81.7457 56.5964 81.1299 56.6295 80.5494 56.8056C79.8037 57.0319 79.4705 57.5665 79.4705 58.3478C79.4706 58.4817 79.4706 58.6158 79.4714 58.7498Z" fill="#183C67"/>
<path d="M82.7565 42.8956C82.7267 43.1401 82.6957 43.2796 82.695 43.4194C82.6905 44.335 82.6931 45.2508 82.6924 46.1665C82.6919 46.7242 82.69 46.7258 82.155 46.7262C81.7914 46.7265 81.4275 46.7165 81.0643 46.7293C80.7966 46.7387 80.693 46.6229 80.6959 46.3605C80.7028 45.7501 80.6975 45.1395 80.6975 44.5291C80.6975 41.953 80.7025 39.3767 80.6914 36.8006C80.69 36.4772 80.7626 36.3333 81.112 36.3596C81.4977 36.3886 81.8879 36.3817 82.2747 36.3612C82.5741 36.3454 82.7447 36.4154 82.6969 36.759C82.6863 36.8358 82.7212 36.9191 82.7504 37.0875C82.9454 36.9597 83.108 36.8783 83.2402 36.7618C83.6715 36.382 84.1712 36.2004 84.7388 36.195C84.981 36.1927 85.2233 36.1883 85.4653 36.1949C86.4487 36.2214 87.1675 36.7013 87.7821 37.4575C88.6342 38.5058 88.708 39.7329 88.5285 40.9458C88.3487 42.1609 87.6378 43.1441 86.4929 43.6569C85.4635 44.118 84.4017 44.003 83.405 43.4764C83.1902 43.3628 83.0295 43.1452 82.7565 42.8956ZM82.6941 39.9756C82.6941 40.2972 82.6881 40.5534 82.6973 40.8093C82.7006 40.9016 82.7193 41.006 82.7668 41.0821C83.3396 41.9999 84.3287 42.3883 85.4817 41.9085C86.31 41.5637 86.8705 40.1873 86.5069 39.3575C86.1648 38.577 85.6567 38.0018 84.7254 37.9716C83.9712 37.9473 83.3641 38.1465 82.8673 38.8484C82.5888 39.2421 82.7619 39.6474 82.6941 39.9756Z" fill="#183C67"/>
<path d="M62.9028 39.4805C62.9028 40.2477 62.9029 41.015 62.9028 41.7822C62.9026 42.3315 62.8968 42.881 62.9045 43.4303C62.9074 43.6339 62.8302 43.716 62.6282 43.7123C62.2284 43.705 61.8277 43.6949 61.4289 43.7163C61.1355 43.732 61.0608 43.6171 61.0625 43.3358C61.0731 41.6023 61.0678 39.8688 61.0678 38.1353C61.0678 37.6469 61.0749 37.1586 61.0651 36.6704C61.0608 36.4551 61.1309 36.3595 61.3553 36.3639C61.8397 36.3735 62.3264 36.3436 62.8084 36.3797C62.9691 36.3917 63.1589 36.523 63.2662 36.6562C63.8325 37.359 64.3746 38.0818 64.9316 38.7923C65.0023 38.8824 65.1122 38.9415 65.234 39.0389C65.6677 38.4815 66.0902 37.9378 66.5135 37.3948C66.7455 37.0972 66.9737 36.7962 67.2159 36.5073C67.2718 36.4403 67.3771 36.3792 67.4609 36.3778C68.0758 36.3669 68.691 36.3719 69.3369 36.3719C69.3468 36.5264 69.3609 36.6437 69.3609 36.7609C69.3622 38.9461 69.3568 41.1314 69.3678 43.3166C69.3692 43.6124 69.2971 43.7358 68.9857 43.7167C68.5994 43.6931 68.2101 43.6991 67.8229 43.7148C67.5211 43.727 67.4145 43.5973 67.4167 43.3029C67.4247 42.2287 67.4196 41.1544 67.4193 40.0801C67.4193 40.019 67.4308 39.9551 67.4169 39.8975C67.3793 39.7429 67.3308 39.5911 67.2865 39.4382C67.1746 39.5319 67.0434 39.61 66.9538 39.722C66.5381 40.2414 66.1348 40.7708 65.7254 41.2953C65.5369 41.5368 64.8899 41.5566 64.6911 41.3149C64.2187 40.7407 63.7601 40.1548 63.2864 39.5818C63.2165 39.4971 63.0943 39.456 62.9963 39.3949C62.9651 39.4235 62.934 39.4519 62.9028 39.4805Z" fill="#183C67"/>
<path d="M109.018 58.4997C109.299 58.7325 109.601 58.9398 109.847 59.2008C110.012 59.3766 110.176 59.6178 110.206 59.8475C110.292 60.5105 110.313 61.1955 109.778 61.7092C109.545 61.9327 109.258 62.1409 108.959 62.242C108.578 62.3702 108.16 62.4297 107.756 62.4363C106.388 62.4587 105.02 62.4364 103.652 62.4508C103.319 62.4543 103.209 62.346 103.211 62.0083C103.223 59.8736 103.216 57.739 103.218 55.6041C103.218 55.151 103.252 55.1145 103.687 55.1146C105.128 55.1151 106.569 55.107 108.009 55.1259C108.821 55.1366 109.395 55.6551 109.667 56.4197C109.886 57.0377 109.717 57.5532 109.42 58.0617C109.324 58.2253 109.16 58.3482 109.018 58.4997ZM106.426 61.0326C106.431 61.058 106.436 61.0833 106.44 61.1086C106.867 61.0253 107.301 60.9656 107.72 60.8509C108.033 60.7649 108.219 60.4078 108.195 60.0663C108.173 59.763 107.907 59.4326 107.588 59.4109C106.926 59.3661 106.262 59.3587 105.598 59.353C105.514 59.3523 105.357 59.4527 105.356 59.5083C105.348 59.9809 105.369 60.4538 105.38 60.9267C105.705 60.962 106.029 60.9974 106.354 61.0322C106.378 61.0349 106.402 61.0326 106.426 61.0326ZM106.323 57.9867C106.564 57.9867 106.805 57.9945 107.046 57.985C107.412 57.9705 107.759 57.633 107.78 57.2842C107.801 56.9479 107.512 56.5811 107.143 56.542C106.713 56.4965 106.278 56.4909 105.845 56.4852C105.338 56.4784 105.335 56.4897 105.333 56.9841C105.33 57.9942 105.33 57.9942 106.323 57.9867Z" fill="#183C67"/>
<path d="M190.8 20.8808C190.1 21.7909 189.402 22.7021 188.7 23.6102C188.378 24.026 188.055 24.4407 187.718 24.8438C187.653 24.9217 187.523 24.9822 187.421 24.9853C186.937 25.0003 186.452 24.9869 185.968 24.9956C185.75 24.9994 185.671 24.915 185.672 24.6932C185.677 22.4473 185.676 20.2013 185.673 17.9554C185.673 17.7752 185.697 17.6459 185.922 17.6486C186.49 17.655 187.058 17.6508 187.701 17.6508C187.701 19.0711 187.701 20.4609 187.701 21.8505C187.742 21.8618 187.782 21.8729 187.822 21.8842C188.188 21.401 188.55 20.9138 188.923 20.4353C189.499 19.6946 190.165 19.0087 190.637 18.2061C190.974 17.6323 191.386 17.6251 191.893 17.6502C192.239 17.6672 192.695 17.5706 192.895 17.7538C193.071 17.9152 192.974 18.3941 192.975 18.7328C192.98 20.637 192.977 22.5412 192.977 24.4452C192.977 24.9934 192.976 24.9937 192.45 24.9943C192.087 24.9947 191.722 24.9764 191.36 24.9997C191.049 25.0198 190.938 24.9273 190.945 24.5941C190.965 23.5081 190.954 22.4215 190.951 21.3352C190.95 21.1872 190.926 21.0394 190.912 20.8915C190.875 20.888 190.837 20.8845 190.8 20.8808Z" fill="#183C67"/>
<path d="M101.887 21.8862C102.179 21.5145 102.475 21.146 102.762 20.7703C103.511 19.7901 104.251 18.8034 105.008 17.8299C105.084 17.7323 105.251 17.6629 105.378 17.6572C105.838 17.6367 106.299 17.6557 106.759 17.6465C107.01 17.6415 107.106 17.7549 107.105 17.9984C107.103 20.2082 107.103 22.4181 107.105 24.6281C107.106 24.8911 106.993 25.0017 106.731 24.9952C106.307 24.9847 105.882 24.9823 105.458 24.9963C105.146 25.0065 105.028 24.8804 105.032 24.5636C105.043 23.5015 105.038 22.4392 105.033 21.377C105.032 21.2194 104.995 21.062 104.975 20.9045C104.941 20.8987 104.908 20.8929 104.874 20.8871C104.57 21.2809 104.263 21.6735 103.96 22.0691C103.531 22.6301 103.105 23.1936 102.678 23.7558C102.428 24.084 102.192 24.4238 101.921 24.7338C101.816 24.8549 101.638 24.9696 101.486 24.9807C101.04 25.0133 100.59 24.9878 100.141 24.9939C99.8916 24.9974 99.7944 24.8752 99.7946 24.6354C99.7962 22.4255 99.7973 20.2157 99.793 18.0057C99.7924 17.7345 99.9114 17.6384 100.17 17.6454C100.569 17.6564 100.97 17.6614 101.369 17.6437C101.648 17.6312 101.75 17.7213 101.746 18.0156C101.731 19.1386 101.739 20.262 101.741 21.3852C101.741 21.5294 101.754 21.6736 101.762 21.8176C101.804 21.8408 101.846 21.8635 101.887 21.8862Z" fill="#183C67"/>
<path d="M32.9397 66.2375C32.2034 67.1229 31.385 67.8388 30.4148 68.372C29.9434 68.6311 29.4878 68.9288 28.9946 69.1351C28.5077 69.3389 27.9845 69.4582 27.473 69.5988C27.0265 69.7216 26.5758 69.8303 26.1237 69.9294C25.9481 69.9678 25.7633 69.9738 25.5825 69.9757C24.9284 69.9827 24.2703 70.0286 23.6214 69.9714C22.9105 69.9087 22.2066 69.756 21.5025 69.6271C21.1277 69.5584 20.7407 69.5023 20.3911 69.3604C19.7813 69.113 19.1739 68.8425 18.6071 68.5097C18.0293 68.1705 17.4896 67.7604 16.9564 67.3508C16.6426 67.1096 16.3706 66.8122 16.0863 66.5332C15.9237 66.3735 15.8998 66.2195 16.0998 66.0477C16.4916 65.7112 16.8661 65.3546 17.2505 65.0092C17.4502 64.8299 17.6179 64.8598 17.8055 65.0596C18.6663 65.9765 19.7055 66.6417 20.8601 67.1033C21.4695 67.347 22.126 67.4631 22.7699 67.6113C23.6415 67.8117 24.4984 67.7801 25.3575 67.7379C25.9037 67.7111 26.4448 67.5169 26.9814 67.3723C27.3904 67.2621 27.7965 67.1316 28.1903 66.9757C29.0725 66.6265 29.8601 66.1179 30.5626 65.4762C30.74 65.3141 30.9038 65.1276 31.1058 65.0061C31.215 64.9405 31.4425 64.925 31.5293 64.9956C32.007 65.3844 32.4578 65.8069 32.9397 66.2375Z" fill="#183C67"/>
<path d="M181.504 20.853C181.228 21.1662 180.935 21.4665 180.678 21.7956C180.306 22.273 179.967 22.7758 179.603 23.2592C179.207 23.7835 178.804 24.3017 178.391 24.8123C178.322 24.8986 178.19 24.9789 178.084 24.9832C177.612 25.0019 177.139 24.9849 176.667 24.9958C176.433 25.0012 176.347 24.9089 176.348 24.6734C176.353 22.4404 176.348 20.2075 176.359 17.9745C176.36 17.8671 176.479 17.6703 176.55 17.6674C177.14 17.6425 177.731 17.6532 178.366 17.6532C178.385 19.0741 178.356 20.4607 178.382 21.845C178.415 21.8413 178.449 21.8377 178.482 21.834C179.104 21.0349 179.73 20.239 180.347 19.4354C180.718 18.9511 181.083 18.4611 181.433 17.961C181.594 17.7321 181.779 17.6309 182.059 17.6436C182.482 17.6628 182.907 17.658 183.33 17.6458C183.57 17.639 183.644 17.7386 183.643 17.9701C183.638 20.2031 183.638 22.4361 183.643 24.669C183.644 24.8991 183.572 25.0024 183.331 24.9961C182.883 24.9843 182.434 24.9769 181.987 24.9987C181.682 25.0136 181.627 24.8753 181.63 24.6075C181.64 23.5095 181.635 22.4111 181.633 21.313C181.633 21.1745 181.615 21.0362 181.606 20.8977C181.572 20.8828 181.538 20.8678 181.504 20.853Z" fill="#183C67"/>
<path d="M121.146 43.7079C121.146 42.3123 121.146 40.9769 121.146 39.6417C121.112 39.6225 121.079 39.6033 121.045 39.5841C120.877 39.7667 120.695 39.9381 120.545 40.1337C119.867 41.013 119.196 41.898 118.526 42.7834C118.363 42.9995 118.236 43.249 118.047 43.438C117.917 43.5687 117.715 43.6832 117.536 43.6978C117.091 43.7343 116.64 43.7029 116.192 43.7126C115.975 43.7173 115.895 43.6355 115.895 43.4137C115.901 41.1676 115.901 38.9212 115.895 36.6749C115.894 36.4289 115.99 36.3574 116.218 36.3628C116.666 36.3734 117.114 36.3762 117.562 36.3618C117.814 36.3538 117.9 36.4453 117.898 36.7001C117.888 37.8232 117.893 38.9463 117.896 40.0695C117.896 40.2056 117.919 40.3416 117.931 40.4776C117.966 40.4884 118.002 40.4993 118.038 40.5101C118.398 40.0515 118.758 39.5942 119.115 39.1341C119.789 38.2663 120.458 37.3949 121.138 36.5316C121.2 36.4528 121.32 36.3782 121.415 36.3751C121.912 36.3592 122.409 36.3715 122.905 36.3642C123.107 36.3612 123.18 36.4396 123.179 36.6452C123.174 38.9037 123.179 41.1621 123.167 43.4205C123.166 43.5167 123.03 43.692 122.951 43.695C122.371 43.7188 121.791 43.7079 121.146 43.7079Z" fill="#183C67"/>
<path d="M130.837 62.4429C130.202 62.4429 129.634 62.438 129.067 62.4449C128.79 62.4483 128.838 62.2519 128.837 62.09C128.835 60.9675 128.838 59.8452 128.833 58.7227C128.833 58.5707 128.804 58.419 128.788 58.267C128.755 58.2544 128.722 58.2418 128.69 58.2291C128.406 58.5798 128.114 58.9239 127.841 59.2824C127.076 60.2859 126.321 61.2979 125.552 62.2982C125.49 62.3791 125.348 62.4333 125.241 62.4367C124.769 62.4517 124.296 62.4364 123.824 62.4467C123.611 62.4514 123.556 62.3516 123.556 62.1589C123.559 59.9141 123.56 57.6692 123.555 55.4244C123.554 55.1833 123.647 55.1033 123.878 55.1101C124.302 55.1222 124.726 55.1216 125.15 55.1108C125.448 55.1032 125.556 55.2355 125.554 55.5297C125.545 56.6154 125.548 57.7014 125.554 58.7872C125.555 58.9284 125.596 59.0694 125.635 59.3104C126.076 58.7283 126.44 58.2402 126.812 57.759C127.392 57.0099 128.024 56.2957 128.543 55.5061C128.801 55.1139 129.089 55.1073 129.45 55.112C129.789 55.1165 130.129 55.1287 130.467 55.1083C130.751 55.0913 130.847 55.1883 130.843 55.4799C130.829 56.6144 130.837 57.7491 130.837 58.8837C130.837 59.9085 130.837 60.9334 130.837 61.9582C130.837 62.102 130.837 62.2456 130.837 62.4429Z" fill="#183C67"/>
<path d="M114.824 21.0129C115.08 21.201 115.255 21.3428 115.442 21.4652C115.865 21.7409 116.079 22.1361 116.081 22.6331C116.082 23.0872 116.176 23.5593 115.896 23.9774C115.643 24.3569 115.322 24.6204 114.882 24.7912C114.14 25.0791 113.382 24.9745 112.63 24.989C111.601 25.0089 110.571 24.9909 109.542 24.9959C109.332 24.9969 109.202 24.9644 109.203 24.7012C109.21 22.4439 109.209 20.1868 109.205 17.9295C109.205 17.727 109.277 17.647 109.48 17.648C110.945 17.6546 112.412 17.6212 113.875 17.6738C114.465 17.6949 114.991 18.0029 115.372 18.4954C115.841 19.1028 115.758 20.3017 115.204 20.8239C115.125 20.8982 115.003 20.9263 114.824 21.0129ZM111.237 23.5489C111.944 23.5489 112.607 23.5429 113.269 23.5511C113.661 23.5559 113.889 23.325 114.027 23.0069C114.17 22.6784 114.042 22.3223 113.737 22.0897C113.638 22.0148 113.515 21.9289 113.401 21.9267C112.682 21.9119 111.963 21.9193 111.237 21.9193C111.237 22.482 111.237 22.9902 111.237 23.5489ZM111.224 19.0707C111.224 19.516 111.212 19.928 111.234 20.3381C111.238 20.4146 111.381 20.5455 111.46 20.5456C112.003 20.5466 112.547 20.5417 113.088 20.494C113.457 20.4615 113.666 20.1636 113.659 19.7842C113.654 19.4666 113.37 19.0904 113.065 19.0779C112.464 19.0535 111.862 19.0707 111.224 19.0707Z" fill="#183C67"/>
<path d="M88.3525 23.3935C88.3525 23.8257 88.395 24.2664 88.3398 24.6946C88.2911 25.0729 87.867 25.0858 87.6192 25.1239C86.8894 25.2358 86.1907 25.1334 85.7023 24.4525C85.6549 24.3863 85.4231 24.3945 85.312 24.4456C84.9524 24.6109 84.6261 24.8655 84.2551 24.985C83.8762 25.1069 83.4601 25.1151 83.0593 25.1637C82.292 25.2568 81.6107 25.0094 81.0424 24.5214C80.796 24.3099 80.6631 23.9586 80.4973 23.6604C80.4119 23.5069 80.3323 23.335 80.3098 23.1634C80.1838 22.2047 80.5356 21.2063 81.4884 20.7338C82.365 20.2991 83.2808 20.1416 84.2445 20.4438C84.5793 20.5487 84.9293 20.604 85.2694 20.6812C85.4423 20.1898 85.1034 19.468 84.5989 19.3108C84.225 19.1943 83.8262 19.0796 83.4425 19.0919C82.7678 19.1136 82.099 19.2412 81.4964 19.592C81.3072 19.7021 81.186 19.6289 81.1801 19.4178C81.1692 19.0277 81.1509 18.634 81.1933 18.2482C81.209 18.106 81.3609 17.9153 81.4961 17.8601C82.472 17.461 83.5023 17.3436 84.5366 17.4686C85.5762 17.5943 86.528 17.9675 87.0533 18.9758C87.2149 19.286 87.3186 19.6579 87.3353 20.0072C87.3756 20.8472 87.3641 21.6909 87.3436 22.5323C87.3299 23.0954 87.5427 23.4737 88.2073 23.3678C88.2402 23.3627 88.2763 23.3792 88.3525 23.3935ZM84.0129 23.562C84.3639 23.6291 84.7112 23.4146 85.0385 23.1663C85.4146 22.8814 85.5042 22.2488 85.1799 22.0222C84.9583 21.8673 84.6782 21.7627 84.4107 21.7186C84.092 21.6661 83.7545 21.6685 83.4335 21.7114C83.1752 21.7458 82.8933 21.8247 82.6855 21.9737C82.184 22.3334 82.2281 22.9659 82.7245 23.3401C83.0943 23.6191 83.5075 23.5757 84.0129 23.562Z" fill="#183C67"/>
<path d="M101.764 58.7311C101.593 60.2077 101.067 61.3599 99.7897 62.0819C98.9789 62.5402 98.1074 62.7493 97.2057 62.642C95.7846 62.4731 94.6106 61.8317 93.925 60.5006C93.7707 60.201 93.7354 59.8385 93.6491 59.504C93.5993 59.3101 93.5568 59.1144 93.5117 58.9193C93.5009 58.8726 93.4771 58.8215 93.4865 58.7785C93.5869 58.3227 93.6886 57.8672 93.7982 57.4135C94.0091 56.5413 94.6207 55.9555 95.3125 55.4957C95.7433 55.2094 96.2881 55.0452 96.8038 54.9554C97.321 54.8653 97.8663 54.9205 98.3981 54.9392C99.0527 54.9624 99.6073 55.2592 100.139 55.6219C100.764 56.048 101.175 56.6518 101.451 57.3258C101.639 57.7828 101.674 58.3032 101.764 58.7311ZM97.6138 60.8436C98.7028 60.9495 99.7366 59.8127 99.6982 58.7208C99.6605 57.6499 98.9074 56.6787 97.6093 56.6834C96.4254 56.6877 95.6019 57.57 95.5886 58.7409C95.5747 59.956 96.5231 60.8857 97.6138 60.8436Z" fill="#183C67"/>
<path d="M149.515 54.9117C150.173 54.8096 150.926 54.9916 151.562 55.3888C152.231 55.8061 152.851 56.3537 153.109 57.1598C153.271 57.666 153.494 58.1972 153.475 58.7091C153.421 60.1469 152.882 61.3557 151.546 62.0813C150.679 62.5518 149.754 62.7823 148.788 62.6217C147.77 62.4521 146.814 62.0768 146.16 61.2019C145.767 60.677 145.425 60.121 145.406 59.4228C145.401 59.2259 145.248 59.0269 145.263 58.8367C145.379 57.3072 145.957 56.0681 147.383 55.3107C148.032 54.966 148.697 54.9053 149.515 54.9117ZM149.39 60.8428C150.523 60.9296 151.514 59.7632 151.467 58.7099C151.42 57.6521 150.694 56.6779 149.396 56.6842C148.207 56.6899 147.358 57.5132 147.355 58.7866C147.353 59.9194 148.311 60.9049 149.39 60.8428Z" fill="#183C67"/>
<path d="M141.387 21.3484C141.227 20.4512 141.551 19.6694 142.057 19.0004C142.565 18.328 143.232 17.8392 144.095 17.611C144.697 17.4519 145.288 17.4146 145.882 17.4658C147.005 17.5625 147.934 18.0505 148.657 18.9516C149.385 19.8572 149.582 20.9023 149.417 21.9922C149.253 23.0744 148.671 23.9378 147.741 24.5674C146.716 25.2613 145.572 25.2794 144.45 25.1224C143.167 24.9432 142.207 24.1551 141.648 22.9821C141.416 22.4944 141.392 21.9056 141.273 21.3627C141.311 21.3579 141.349 21.353 141.387 21.3484ZM143.382 21.2767C143.257 22.4692 144.277 23.3948 145.355 23.3992C146.636 23.4046 147.374 22.4303 147.462 21.4061C147.552 20.3494 146.498 19.2411 145.469 19.2269C144.418 19.2125 143.25 20.1038 143.382 21.2767Z" fill="#183C67"/>
<path d="M71.7589 54.835C72.3219 54.9371 72.9142 54.9611 73.4402 55.1613C74.0817 55.4054 74.6191 55.8414 75.0595 56.4089C75.4541 56.9173 75.6631 57.5008 75.7871 58.0918C75.8924 58.5937 75.8815 59.1263 75.7093 59.6665C75.5434 60.1874 75.3751 60.6873 75.0348 61.1068C74.4669 61.8069 73.8006 62.3612 72.858 62.4691C72.4678 62.5138 72.0796 62.658 71.6939 62.646C70.2391 62.6003 69.0057 62.0625 68.2101 60.7817C67.9524 60.3669 67.7225 59.8987 67.7526 59.3638C67.7683 59.0841 67.7677 58.8017 67.7494 58.5222C67.6733 57.3685 68.2079 56.4956 69.0313 55.7853C69.8041 55.1186 70.716 54.8095 71.7514 54.9296C71.7537 54.8981 71.7563 54.8665 71.7589 54.835ZM71.7528 60.8433C72.7601 60.985 73.8774 59.7216 73.8277 58.7364C73.7727 57.6455 72.9656 56.6713 71.7389 56.678C70.589 56.6843 69.6969 57.591 69.6949 58.7589C69.6929 59.9587 70.7095 60.9172 71.7528 60.8433Z" fill="#183C67"/>
<path d="M125.383 21.3057C125.528 22.6823 124.889 23.6877 123.907 24.464C123.378 24.8823 122.714 25.1393 122.006 25.1602C121.619 25.1717 121.23 25.178 120.844 25.1608C120.114 25.1286 119.483 24.8489 118.872 24.4389C118.257 24.0253 117.81 23.4666 117.586 22.8133C117.319 22.0347 117.112 21.2149 117.448 20.3478C117.597 19.9614 117.667 19.5366 117.92 19.198C118.497 18.427 119.199 17.8615 120.166 17.5992C120.819 17.422 121.465 17.3984 122.097 17.4782C123.196 17.6166 124.118 18.1431 124.767 19.0845C125.233 19.762 125.498 20.4981 125.383 21.3057ZM121.39 23.3799C122.551 23.4549 123.411 22.4561 123.431 21.3305C123.452 20.1034 122.369 19.2691 121.467 19.231C120.221 19.1784 119.288 20.3582 119.309 21.3129C119.331 22.3459 120.137 23.4707 121.39 23.3799Z" fill="#183C67"/>
<path d="M75.0614 36.1975C75.7793 36.1052 76.4943 36.2649 77.1128 36.6315C77.5804 36.9087 77.9744 37.3382 78.3436 37.752C79.1516 38.6572 79.1888 39.7882 79.0116 40.8863C78.8642 41.8012 78.3543 42.5536 77.566 43.1313C76.5537 43.8732 75.4249 44.0496 74.2663 43.8733C73.0011 43.6808 71.9889 43.0163 71.3639 41.8148C70.9266 40.974 70.8759 40.0791 71.0246 39.2079C71.1977 38.1944 71.7917 37.377 72.663 36.8021C73.3838 36.3266 74.1783 36.1193 75.0614 36.1975ZM75.0182 42.0959C76.1374 42.2389 77.0908 41.1334 77.0828 40.0324C77.0747 38.8947 76.2089 37.9649 75.0383 37.9518C73.9338 37.9396 72.9691 38.8416 72.9677 40.0529C72.9662 41.1529 73.9747 42.2434 75.0182 42.0959Z" fill="#183C67"/>
<path d="M110.26 36.1964C110.953 36.1082 111.665 36.2602 112.296 36.6141C112.835 36.9173 113.318 37.3213 113.674 37.8729C114.186 38.6665 114.342 39.5232 114.264 40.4388C114.169 41.5633 113.683 42.447 112.758 43.1323C111.773 43.8624 110.673 44.0344 109.537 43.88C108.513 43.7409 107.626 43.2816 106.941 42.4083C106.193 41.454 106.055 40.3853 106.216 39.2799C106.369 38.2276 106.98 37.396 107.871 36.7989C108.582 36.3232 109.367 36.1303 110.26 36.1964ZM110.225 42.0964C111.326 42.2586 112.292 41.1183 112.29 40.0465C112.289 38.9027 111.383 37.9526 110.23 37.9509C109.097 37.9491 108.171 38.8914 108.161 40.0225C108.151 41.1359 109.163 42.2445 110.225 42.0964Z" fill="#183C67"/>
<path d="M138.751 56.7705C138.751 58.673 138.751 60.524 138.751 62.4369C138.097 62.4369 137.474 62.4427 136.851 62.4258C136.803 62.4245 136.723 62.2671 136.719 62.1792C136.702 61.8504 136.711 61.5205 136.711 61.1909C136.711 59.3114 136.72 57.4316 136.703 55.5522C136.7 55.1912 136.815 55.1039 137.158 55.1065C139.181 55.1213 141.204 55.1132 143.227 55.1141C143.702 55.1143 143.732 55.1425 143.732 55.6056C143.733 57.7292 143.733 59.853 143.732 61.9767C143.732 62.4302 143.717 62.4431 143.257 62.4446C142.869 62.4457 142.481 62.4463 142.094 62.4444C141.638 62.4421 141.617 62.4217 141.617 61.9714C141.616 60.3969 141.617 58.8224 141.616 57.2481C141.616 56.7723 141.614 56.7714 141.132 56.771C140.358 56.77 139.584 56.7705 138.751 56.7705Z" fill="#183C67"/>
<path d="M78.8394 17.649C78.8483 17.8333 78.8602 17.9652 78.8602 18.0971C78.8614 20.2445 78.8514 22.392 78.8701 24.5393C78.8735 24.923 78.752 25.0265 78.3942 25.0007C77.9966 24.9721 77.5948 24.9811 77.1958 24.9984C76.9262 25.0101 76.8407 24.9143 76.8426 24.6413C76.8532 23.0552 76.848 21.469 76.8474 19.8829C76.8472 19.3472 76.7902 19.2887 76.2692 19.2873C75.8332 19.2861 75.3972 19.2855 74.9612 19.2874C74.5026 19.2895 74.4277 19.3635 74.4209 19.812C74.4152 20.1778 74.3893 20.5449 74.409 20.9094C74.4561 21.7837 74.2891 22.6341 73.9908 23.4323C73.668 24.2962 73.0759 24.9248 72.0612 25.0085C71.7534 25.0338 71.4657 25.0851 71.1554 24.9995C70.9366 24.9392 70.8476 24.8451 70.8517 24.6269C70.8578 24.3099 70.8577 23.9925 70.8521 23.6753C70.8482 23.4457 70.9494 23.3538 71.1785 23.3397C71.8068 23.3015 72.0801 22.9513 72.2293 22.3496C72.5631 21.0036 72.4029 19.6413 72.4572 18.2865C72.4809 17.6943 72.6329 17.6373 73.0845 17.6418C74.8525 17.6597 76.6208 17.6492 78.389 17.6492C78.5308 17.649 78.6723 17.649 78.8394 17.649Z" fill="#183C67"/>
<path d="M99.9147 36.3699C99.9147 37.2277 99.9147 38.0244 99.9147 38.908C100.356 38.4669 100.732 38.0949 101.104 37.7194C101.503 37.3165 101.896 36.9068 102.3 36.5087C102.37 36.44 102.481 36.3771 102.574 36.3755C103.24 36.3642 103.906 36.3685 104.572 36.3718C104.627 36.3721 104.681 36.4029 104.794 36.4376C103.755 37.545 102.748 38.6181 101.746 39.6858C102.959 41.0193 104.14 42.3168 105.366 43.6651C105.199 43.6835 105.076 43.708 104.952 43.7089C104.371 43.7131 103.789 43.6985 103.208 43.7162C102.894 43.7259 102.68 43.6202 102.469 43.3764C101.963 42.7897 101.417 42.239 100.892 41.6686C100.594 41.3443 100.307 41.0101 99.9439 40.6009C99.9235 40.8249 99.9011 40.96 99.9004 41.0952C99.8969 41.8519 99.8866 42.6088 99.9048 43.365C99.9115 43.6466 99.812 43.7243 99.5492 43.7153C99.0772 43.6992 98.6043 43.7034 98.132 43.7133C97.8742 43.7187 97.7572 43.6243 97.7578 43.3519C97.7629 41.1431 97.761 38.9342 97.7603 36.7252C97.7603 36.5346 97.8048 36.3736 98.0304 36.3715C98.6338 36.3661 99.2372 36.3699 99.9147 36.3699Z" fill="#183C67"/>
<path d="M19.5841 10.1144C18.2696 10.1551 17.3977 9.50723 16.8511 8.44921C16.5704 7.90591 16.451 7.2448 16.6104 6.62443C16.7543 6.06487 16.9929 5.52216 17.4473 5.12289C17.6631 4.93329 17.6544 4.80626 17.4551 4.56669C16.8315 3.81695 16.6123 2.98222 16.921 1.99203C17.1269 1.33151 17.4934 0.848433 18.0157 0.45224C18.1803 0.327404 18.3656 0.203301 18.5605 0.150261C19.3787 -0.0728907 20.2279 -0.0843194 20.9433 0.370628C21.446 0.690337 21.8671 1.15012 22.0822 1.80844C22.2587 2.34822 22.2638 2.86647 22.2117 3.379C22.165 3.83922 21.9098 4.27204 21.5617 4.61065C21.3729 4.79439 21.3804 4.93153 21.5785 5.11454C22.3321 5.81051 22.5748 6.71117 22.4269 7.68964C22.3203 8.39411 21.9742 9.01023 21.3937 9.47148C20.8418 9.91031 20.2321 10.1484 19.5841 10.1144ZM19.5423 8.69771C20.3995 8.78459 21.1123 7.91411 21.0835 7.10312C21.0491 6.13755 20.403 5.56904 19.4898 5.55C18.76 5.53476 17.8451 6.33154 17.9594 7.29579C18.0523 8.07895 18.694 8.71543 19.5423 8.69771ZM19.5506 4.23087C20.339 4.32113 20.9246 3.60039 20.9026 2.8269C20.8739 1.81576 20.2477 1.3658 19.5127 1.37605C18.7917 1.38616 18.1314 1.85064 18.1393 2.86178C18.1455 3.68068 18.7443 4.32391 19.5506 4.23087Z" fill="#183C67"/>
<path d="M167.492 24.9944C167.492 22.4975 167.492 20.1082 167.492 17.6588C168.116 17.6588 168.728 17.6503 169.338 17.6725C169.396 17.6745 169.492 17.866 169.495 17.9718C169.511 18.5327 169.503 19.0943 169.503 19.6556C169.503 19.787 169.503 19.9185 169.503 20.0499C169.535 20.0773 169.567 20.1047 169.599 20.1321C169.728 20.0492 169.875 19.985 169.982 19.8796C170.292 19.5739 170.588 19.2537 170.886 18.9349C171.228 18.5673 171.564 18.193 171.908 17.8266C171.97 17.7608 172.055 17.673 172.131 17.672C172.912 17.6607 173.694 17.665 174.581 17.665C173.888 18.3818 173.271 19.0188 172.656 19.6583C172.32 20.0073 171.991 20.364 171.652 20.7095C171.481 20.8836 171.49 21.0145 171.66 21.1975C172.379 21.9724 173.085 22.7598 173.791 23.5465C174.184 23.984 174.569 24.429 175.018 24.9393C174.828 24.9638 174.709 24.9912 174.59 24.9924C174.105 24.9975 173.615 24.9488 173.138 25.0067C172.606 25.0713 172.254 24.8512 171.927 24.4772C171.287 23.7443 170.632 23.0238 169.979 22.3027C169.87 22.1824 169.737 22.0845 169.549 21.9182C169.529 22.1352 169.505 22.2726 169.504 22.4101C169.501 23.1544 169.493 23.899 169.508 24.643C169.513 24.9181 169.415 25.0057 169.15 24.9987C168.599 24.984 168.047 24.9944 167.492 24.9944Z" fill="#183C67"/>
<path d="M158.001 17.7499C157.879 17.9054 157.77 18.0729 157.635 18.2143C156.845 19.0364 156.053 19.857 155.252 20.6675C155.05 20.871 155.03 21.043 155.223 21.2518C155.815 21.8889 156.407 22.525 156.992 23.1686C157.506 23.7346 158.01 24.3101 158.57 24.9396C158.395 24.9623 158.274 24.9908 158.152 24.992C157.619 24.9971 157.084 24.9629 156.554 25.0043C156.118 25.0385 155.833 24.8524 155.565 24.5507C155.02 23.9387 154.462 23.3397 153.912 22.7324C153.677 22.4726 153.45 22.2056 153.161 21.876C153.13 22.1001 153.093 22.2481 153.091 22.3964C153.085 23.141 153.08 23.8858 153.093 24.6301C153.097 24.8896 153.033 25.0108 152.75 24.9989C152.302 24.9801 151.853 24.9873 151.405 24.9964C151.182 25.001 151.074 24.9355 151.074 24.687C151.08 22.4409 151.079 20.1949 151.075 17.9489C151.075 17.7301 151.155 17.643 151.374 17.6475C151.835 17.6569 152.295 17.66 152.755 17.6459C153.005 17.6383 153.099 17.723 153.093 17.9811C153.078 18.5789 153.085 19.1773 153.092 19.7754C153.093 19.9135 153.127 20.051 153.153 20.2422C153.913 19.4377 154.627 18.685 155.336 17.928C155.515 17.737 155.705 17.6324 155.984 17.6422C156.634 17.6649 157.285 17.6494 157.936 17.6494C157.957 17.6828 157.979 17.7164 158.001 17.7499Z" fill="#183C67"/>
<path d="M111.873 62.445C111.866 62.2733 111.856 62.1539 111.856 62.0345C111.855 59.862 111.862 57.6895 111.848 55.5172C111.846 55.1918 111.936 55.0885 112.255 55.1077C112.677 55.1332 113.103 55.1267 113.526 55.1094C113.791 55.0986 113.896 55.1818 113.884 55.4608C113.865 55.9115 113.896 56.3647 113.873 56.8149C113.857 57.1168 113.983 57.2003 114.253 57.1905C114.58 57.1788 114.909 57.1629 115.234 57.1937C115.758 57.2435 116.315 57.2365 116.794 57.4224C117.519 57.7045 118.144 58.1322 118.363 59.0151C118.458 59.3996 118.57 59.7808 118.497 60.144C118.334 60.9514 118.018 61.6752 117.205 62.0805C116.638 62.3635 116.057 62.4525 115.439 62.4474C114.265 62.4381 113.091 62.445 111.873 62.445ZM113.88 59.7981C113.88 60.0296 113.889 60.2616 113.877 60.4923C113.864 60.7417 113.968 60.8485 114.214 60.8443C114.637 60.8369 115.061 60.8267 115.483 60.8441C115.843 60.8589 116.355 60.4009 116.47 60.0189C116.57 59.6825 116.372 59.2936 115.992 58.9793C115.648 58.6952 115.26 58.7914 114.886 58.7867C113.879 58.7736 113.879 58.782 113.88 59.7981Z" fill="#183C67"/>
<path d="M24.4911 7.87938C24.9617 7.87938 25.3953 7.87938 25.8253 7.87938C26.0106 8.40334 26.4064 8.70049 26.9596 8.69726C27.4334 8.69448 27.8871 8.67235 28.1766 8.22913C28.5404 7.6722 28.5455 7.04319 28.4695 6.41271C28.4642 6.36831 28.2396 6.30428 28.1326 6.32626C27.3571 6.48553 26.5804 6.71601 25.7983 6.40524C25.128 6.13886 24.6624 5.63029 24.5036 4.92889C24.3765 4.36786 24.3145 3.77489 24.3363 3.20053C24.3647 2.45108 24.4226 1.66309 24.9097 1.05048C25.2887 0.57385 25.7752 0.207401 26.4241 0.0890123C26.8831 0.00520227 27.3098 -0.0123802 27.7701 0.0898914C28.4157 0.233335 28.9186 0.561982 29.2914 1.08799C29.653 1.59803 29.7647 2.17752 29.7535 2.81093C29.7251 4.42134 29.7296 6.03263 29.7478 7.64319C29.7565 8.41404 29.4027 8.98034 28.8734 9.47588C28.1821 10.1231 27.3249 10.2536 26.4728 10.0614C25.5129 9.84481 24.8286 9.20554 24.4991 8.23704C24.4837 8.19177 24.4803 8.14092 24.4793 8.09257C24.478 8.03338 24.4853 7.97374 24.4911 7.87938ZM25.6194 3.32654C25.6429 3.33211 25.6664 3.33767 25.6899 3.3431C25.6899 3.53826 25.6541 3.74207 25.6981 3.92669C25.768 4.2209 25.8348 4.54296 26.0036 4.78061C26.3325 5.24318 27.1993 5.44406 27.7105 5.17343C27.9506 5.04625 28.2086 4.79937 28.2877 4.55131C28.4276 4.11306 28.4768 3.63379 28.4916 3.16932C28.5158 2.4121 28.3237 1.80243 27.5184 1.44067C26.9645 1.19188 26.0729 1.62235 25.9082 2.04551C25.7513 2.44873 25.711 2.89782 25.6194 3.32654Z" fill="#183C67"/>
<path d="M165.621 22.9859C165.621 23.5643 165.621 24.1423 165.621 24.6912C164.801 25.1547 163.924 25.193 163.029 25.1697C162.247 25.1494 161.583 24.8943 160.942 24.4303C160.39 24.0308 159.981 23.5601 159.717 22.9497C159.335 22.068 159.287 21.1718 159.521 20.2273C159.679 19.588 159.974 19.049 160.428 18.6192C160.929 18.1442 161.517 17.8041 162.204 17.599C162.832 17.4116 163.452 17.4233 164.068 17.4761C164.532 17.5158 164.985 17.7187 165.434 17.8755C165.517 17.9044 165.602 18.0575 165.607 18.1571C165.627 18.559 165.617 18.9624 165.615 19.3652C165.614 19.6069 165.521 19.6606 165.294 19.5562C164.569 19.223 163.782 19.1473 163.03 19.3096C162.367 19.4529 161.869 19.8894 161.544 20.5688C161.087 21.5252 161.692 22.8669 162.697 23.1954C163.468 23.4475 164.218 23.4305 164.978 23.2034C165.176 23.1444 165.371 23.0713 165.621 22.9859Z" fill="#183C67"/>
<path d="M132.687 19.6706C131.572 19.093 129.736 18.9994 128.977 20.0915C128.804 20.3405 128.671 20.6616 128.645 20.9604C128.606 21.4183 128.536 21.8975 128.828 22.332C129.189 22.8706 129.659 23.2546 130.299 23.3351C130.763 23.3934 131.245 23.3868 131.71 23.3293C132.078 23.2838 132.431 23.117 132.834 22.9904C132.834 23.5238 132.876 24.0895 132.804 24.64C132.786 24.7754 132.399 24.8722 132.174 24.9673C131.553 25.2294 130.894 25.1844 130.247 25.1591C128.803 25.1025 127.706 24.4722 126.982 23.172C126.456 22.2281 126.466 21.2051 126.664 20.2479C126.899 19.1078 127.678 18.2956 128.782 17.8061C129.635 17.4279 130.51 17.3995 131.394 17.4776C131.797 17.513 132.185 17.7172 132.577 17.853C132.623 17.8689 132.682 17.9374 132.683 17.9822C132.69 18.5239 132.687 19.0657 132.687 19.6706Z" fill="#183C67"/>
<path d="M95.8503 38.369C94.9538 37.9245 94.064 37.8399 93.2177 38.0574C92.3227 38.2873 91.6627 39.0319 91.7408 40.2427C91.8101 41.3179 92.809 42.0644 93.715 42.0915C94.4003 42.112 95.0854 42.1299 95.7146 41.7677C95.7531 41.7456 95.9528 41.8779 95.9566 41.9452C95.9787 42.3465 95.9807 42.7506 95.9598 43.152C95.9368 43.5916 95.5255 43.5783 95.2527 43.6911C94.601 43.9608 93.9023 43.9603 93.2202 43.8952C91.7968 43.7595 90.673 43.0719 90.063 41.7607C89.7425 41.0714 89.6622 40.3035 89.7455 39.4843C89.8626 38.3353 90.3979 37.504 91.2598 36.8783C91.9781 36.3568 92.8281 36.1353 93.7405 36.1743C94.418 36.2031 95.0834 36.2363 95.6928 36.5721C95.7559 36.607 95.8423 36.6789 95.8436 36.7355C95.8549 37.2575 95.8503 37.7799 95.8503 38.369Z" fill="#183C67"/>
<path d="M32.7036 10.0947C33.7855 7.21965 34.8385 4.42125 35.9146 1.56174C35.0046 1.56174 34.2127 1.56174 33.3708 1.56174C33.3708 2.02006 33.3708 2.46329 33.3708 2.94637C32.9625 2.94637 32.6017 2.96278 32.2446 2.93377C32.1636 2.92717 32.033 2.76439 32.0307 2.67091C32.0129 1.92731 32.0224 1.18299 32.0196 0.438953C32.0185 0.148989 32.1952 0.108842 32.429 0.109721C33.6398 0.11397 34.8506 0.111479 36.0614 0.111479C36.4124 0.111479 36.7638 0.119391 37.1146 0.108842C37.3219 0.102541 37.4289 0.161736 37.4291 0.392653C37.4295 1.11324 37.4362 1.80907 37.0621 2.48907C36.7493 3.05758 36.6179 3.72556 36.3871 4.34227C36.2157 4.80059 36.0051 5.24396 35.8279 5.70023C35.673 6.09935 35.542 6.508 35.3974 6.91122C35.2337 7.36793 35.0709 7.82522 34.9 8.27914C34.729 8.7338 34.5373 9.18083 34.3759 9.63871C34.2748 9.92545 34.1555 10.1304 33.7982 10.1004C33.466 10.0727 33.1296 10.0947 32.7036 10.0947Z" fill="#183C67"/>
<path d="M62.5216 62.4443C62.513 62.2686 62.5002 62.1256 62.5001 61.9826C62.4986 60.396 62.4909 58.8093 62.5056 57.2227C62.5088 56.8828 62.4278 56.7394 62.0629 56.7625C61.5802 56.7931 61.0937 56.7561 60.6098 56.7751C60.3326 56.7861 60.2484 56.683 60.2634 56.4151C60.2826 56.0745 60.2753 55.7318 60.266 55.3902C60.2603 55.1849 60.3428 55.1114 60.5439 55.1117C62.5792 55.1156 64.6144 55.1165 66.6497 55.1104C66.8792 55.1096 66.9429 55.2076 66.9375 55.4179C66.9285 55.7716 66.9263 56.126 66.9381 56.4796C66.9457 56.7055 66.8527 56.7769 66.637 56.7729C66.0921 56.763 65.5468 56.7678 65.0016 56.7709C64.5654 56.7734 64.5216 56.8159 64.5211 57.2522C64.5192 58.8266 64.5205 60.4011 64.5199 61.9754C64.5198 62.4434 64.5186 62.4437 64.0389 62.4442C63.544 62.4448 63.0488 62.4443 62.5216 62.4443Z" fill="#183C67"/>
<path d="M168.067 62.4433C167.432 62.4433 166.853 62.4541 166.276 62.4301C166.2 62.427 166.074 62.2464 166.071 62.1451C166.052 61.4868 166.061 60.8277 166.06 60.169C166.06 59.1685 166.052 58.1681 166.064 57.1678C166.068 56.8671 165.961 56.7568 165.663 56.7669C165.154 56.7842 164.645 56.7565 164.137 56.7764C163.798 56.7898 163.679 56.6482 163.697 56.3227C163.713 56.0308 163.7 55.7372 163.704 55.4444C163.707 55.2227 163.815 55.1137 164.044 55.1139C166.054 55.1164 168.064 55.1168 170.075 55.1133C170.322 55.1128 170.429 55.2283 170.429 55.4673C170.428 55.7723 170.421 56.0775 170.432 56.3822C170.442 56.6645 170.32 56.7785 170.042 56.7735C169.522 56.764 169 56.7854 168.48 56.7662C168.164 56.7546 168.059 56.8671 168.062 57.1871C168.074 58.7731 168.067 60.3592 168.067 61.9453C168.067 62.0905 168.067 62.2354 168.067 62.4433Z" fill="#183C67"/>
<path d="M140.533 17.6998C140.533 18.2045 140.533 18.7121 140.533 19.2856C140.015 19.2856 139.499 19.2856 138.983 19.2856C138.156 19.2856 138.156 19.2856 138.156 20.1083C138.156 21.5978 138.148 23.0873 138.162 24.5767C138.164 24.892 138.077 25.0139 137.751 24.9992C137.233 24.9756 136.713 24.9929 136.134 24.9929C136.134 24.8161 136.134 24.6759 136.134 24.5359C136.134 22.9364 136.125 21.337 136.141 19.7379C136.144 19.3919 136.051 19.2588 135.694 19.2788C135.198 19.3065 134.7 19.2747 134.204 19.2898C133.946 19.2977 133.861 19.1978 133.872 18.9474C133.887 18.6061 133.859 18.2623 133.888 17.9231C133.897 17.8259 134.041 17.6623 134.124 17.6618C136.22 17.6497 138.317 17.6549 140.413 17.659C140.446 17.6587 140.479 17.6809 140.533 17.6998Z" fill="#183C67"/>
<path d="M88.9797 62.4205C88.279 62.4205 87.6425 62.4205 86.9786 62.4205C86.9719 62.2676 86.9612 62.1367 86.9612 62.0059C86.9602 59.8586 86.9674 57.7114 86.9532 55.5642C86.951 55.2248 87.0233 55.1002 87.3879 55.1046C89.0104 55.1244 90.6333 55.1197 92.256 55.1074C92.5525 55.1052 92.6738 55.1878 92.6484 55.4976C92.6255 55.7763 92.6248 56.0601 92.6485 56.3386C92.6764 56.6664 92.5743 56.7862 92.2292 56.7779C91.2852 56.755 90.3398 56.7855 89.3959 56.7621C89.0495 56.7534 88.9711 56.8781 88.9739 57.201C88.987 58.787 88.9799 60.3731 88.9797 61.959C88.9797 62.103 88.9797 62.2469 88.9797 62.4205Z" fill="#183C67"/>
<path d="M12.6396 1.66368C12.2308 1.95144 11.822 2.23921 11.3531 2.56932C11.3531 2.08507 11.2714 1.6206 11.3829 1.20932C11.4533 0.949973 11.8096 0.766822 12.0441 0.556565C12.131 0.478616 12.2436 0.429971 12.3315 0.352901C12.8111 -0.0686402 13.3799 0.158467 13.9125 0.13561C13.9615 0.133559 14.0276 0.24638 14.0632 0.317296C14.0883 0.36726 14.0787 0.436711 14.0787 0.49737C14.0793 3.57211 14.0777 6.64685 14.0818 9.72174C14.0821 9.98489 13.9801 10.0873 13.7168 10.0976C12.742 10.1352 12.7423 10.1418 12.7423 9.16848C12.7423 6.83806 12.7423 4.5075 12.7423 2.17709C12.7423 2.03408 12.7423 1.89093 12.7423 1.74793C12.7081 1.71965 12.6738 1.69166 12.6396 1.66368Z" fill="#183C67"/>
<path d="M121.368 58.801C121.368 59.8994 121.36 60.9979 121.373 62.0962C121.377 62.3671 121.297 62.4635 121.024 62.4504C120.601 62.43 120.176 62.4382 119.752 62.4473C119.483 62.4531 119.358 62.3605 119.359 62.0656C119.368 59.881 119.366 57.6962 119.361 55.5116C119.361 55.2303 119.478 55.11 119.752 55.1133C120.176 55.1185 120.601 55.1283 121.024 55.1094C121.299 55.0971 121.376 55.2005 121.373 55.4689C121.361 56.5796 121.368 57.6903 121.368 58.801Z" fill="#183C67"/>
<path d="M116.91 32.9311C117.333 32.9311 117.713 32.8942 118.08 32.9489C118.231 32.9716 118.403 33.166 118.481 33.3245C118.704 33.7779 119.186 34.166 119.548 34.0781C120.047 33.9569 120.577 33.726 120.576 33.057C120.576 33.034 120.591 33.0111 120.609 32.9596C121.1 32.9596 121.602 32.9596 122.146 32.9596C122.185 33.784 121.887 34.4755 121.251 34.9373C120.186 35.7101 118.977 35.6753 117.983 35.0806C117.232 34.6311 116.823 33.9099 116.91 32.9311Z" fill="#183C67"/>
<path d="M187.436 14.2613C187.581 14.2613 187.731 14.2369 187.87 14.2672C188.072 14.3112 188.249 14.3526 188.313 14.6424C188.471 15.357 189.395 15.6076 189.966 15.1142C190.1 14.9983 190.264 14.8662 190.311 14.7098C190.426 14.3287 190.668 14.2212 191.023 14.2534C191.119 14.2622 191.217 14.2548 191.313 14.2548C191.961 14.255 192.098 14.3916 191.9 15.0046C191.629 15.8401 191.092 16.4007 190.203 16.6586C189.549 16.8482 188.939 16.8252 188.331 16.6115C187.627 16.3644 187.071 15.9327 186.877 15.1503C186.848 15.0363 186.774 14.9349 186.731 14.8233C186.591 14.4528 186.717 14.2643 187.109 14.2553C187.218 14.2528 187.327 14.2549 187.436 14.2549C187.436 14.2571 187.436 14.2593 187.436 14.2613Z" fill="#183C67"/>
<path d="M125.967 51.6777C126.122 52.3591 126.565 52.7091 127.151 52.7318C127.842 52.7585 128.155 52.3031 128.266 51.6777C128.516 51.6777 128.776 51.6777 129.037 51.6777C129.289 51.6777 129.54 51.6777 129.792 51.6777C129.771 52.9758 129.017 53.935 127.959 54.0758C126.063 54.3284 124.732 53.923 124.52 51.6777C124.758 51.6777 124.993 51.6777 125.227 51.6777C125.468 51.6777 125.708 51.6777 125.967 51.6777Z" fill="#183C67"/>
<path d="M11.1103 21.4764C9.44995 21.4764 7.78963 21.4673 6.1296 21.4838C5.77706 21.4874 5.67424 21.3769 5.67991 21.0263C5.69896 19.8301 5.69721 18.6333 5.68078 17.4371C5.67627 17.1121 5.78302 17.0204 6.09819 17.0212C9.44297 17.0306 12.7877 17.0314 16.1324 17.0205C16.4698 17.0195 16.5653 17.126 16.5604 17.4604C16.5424 18.6687 16.5444 19.8777 16.5594 21.0862C16.5632 21.3936 16.4612 21.4837 16.1638 21.4818C14.4792 21.4706 12.7947 21.4764 11.1103 21.4764Z" fill="#00A2E6"/>
<path d="M24.4332 21.4768C22.7864 21.4768 21.1395 21.4682 19.4927 21.4837C19.1391 21.4871 19.0344 21.3665 19.0392 21.0201C19.0557 19.8369 19.0533 18.6535 19.0405 17.4702C19.037 17.1475 19.1263 17.0196 19.4716 17.0207C22.8016 17.0318 26.1316 17.0318 29.4616 17.0205C29.8066 17.0193 29.8925 17.1434 29.8886 17.4673C29.8743 18.6626 29.8716 19.8585 29.8899 21.0537C29.8953 21.4015 29.7677 21.485 29.4462 21.4825C27.7754 21.4701 26.1043 21.4768 24.4332 21.4768Z" fill="#00A2E6"/>
<path d="M24.475 28.4351C22.8162 28.4351 21.1575 28.427 19.4989 28.4416C19.1522 28.4447 19.0341 28.3359 19.0392 27.983C19.0562 26.8002 19.0532 25.6167 19.0407 24.4337C19.0373 24.1153 19.1162 23.9811 19.467 23.9824C22.8085 23.9944 26.1503 23.9927 29.4918 23.9843C29.792 23.9836 29.8913 24.0815 29.8883 24.3832C29.8756 25.6028 29.8754 26.8227 29.8883 28.0424C29.8915 28.348 29.7849 28.4419 29.4876 28.44C27.8165 28.4295 26.1457 28.4351 24.475 28.4351Z" fill="#00A2E6"/>
<path d="M11.1078 28.4351C9.44905 28.4351 7.79033 28.427 6.13176 28.4416C5.78504 28.4447 5.66694 28.3359 5.67203 27.983C5.68905 26.8002 5.68599 25.6167 5.67349 24.4337C5.67014 24.1153 5.74897 23.9811 6.09976 23.9824C9.44134 23.9944 12.7831 23.9927 16.1246 23.9843C16.4248 23.9836 16.5242 24.0815 16.5211 24.3832C16.5085 25.6028 16.5082 26.8227 16.5211 28.0424C16.5243 28.348 16.4177 28.4419 16.1204 28.44C14.4493 28.4295 12.7786 28.4351 11.1078 28.4351Z" fill="#E55737"/>
<path d="M37.7184 23.9899C39.3529 23.9899 40.9873 23.9977 42.6216 23.9835C42.9528 23.9805 43.0671 24.0834 43.0627 24.4202C43.0476 25.6153 43.0474 26.8109 43.0627 28.0059C43.0671 28.3467 42.9432 28.4419 42.6171 28.4411C39.3361 28.4317 36.0554 28.4315 32.7744 28.4412C32.454 28.4421 32.3563 28.3378 32.3601 28.02C32.3748 26.8126 32.3756 25.605 32.3595 24.3977C32.3551 24.0718 32.4651 23.9814 32.7788 23.9839C34.4254 23.9968 36.0719 23.9899 37.7184 23.9899Z" fill="#00A2E6"/>
<path d="M37.7184 17.0036C39.3529 17.0036 40.9873 17.0113 42.6216 16.9971C42.9528 16.9942 43.0671 17.0971 43.0627 17.4339C43.0476 18.6289 43.0474 19.8245 43.0627 21.0196C43.0671 21.3604 42.9432 21.4556 42.6171 21.4547C39.3361 21.4454 36.0554 21.4452 32.7744 21.4549C32.454 21.4558 32.3563 21.3514 32.3601 21.0336C32.3748 19.8263 32.3756 18.6187 32.3595 17.4113C32.3551 17.0855 32.4651 16.9951 32.7788 16.9976C34.4254 17.0105 36.0719 17.0036 37.7184 17.0036Z" fill="#E55737"/>
<path d="M11.1221 30.9348C12.7804 30.9348 14.439 30.9449 16.0971 30.9269C16.4666 30.9228 16.5805 31.0344 16.5647 31.4048C16.5362 32.0743 16.5625 32.7459 16.5532 33.4166C16.5466 33.8892 16.5148 33.8798 16.0602 33.9288C15.1772 34.024 14.298 34.1556 13.4173 34.2721C13.3933 34.2753 13.3696 34.2809 13.3456 34.2831C12.4229 34.3656 11.4979 34.4277 10.5785 34.5364C9.83701 34.624 9.10212 34.7679 8.36431 34.887C8.32853 34.8927 8.29334 34.9039 8.25727 34.9074C7.53881 34.9767 6.81962 35.0401 6.10188 35.116C5.78264 35.1497 5.68011 35.0249 5.68447 34.7034C5.70018 33.5817 5.70164 32.4595 5.68375 31.3379C5.67851 31.0029 5.8078 30.9277 6.11061 30.9296C7.78125 30.9403 9.45175 30.9348 11.1221 30.9348Z" fill="#00A2E6"/>
<path d="M37.7118 30.9357C39.3345 30.9357 40.9573 30.9445 42.5798 30.9288C42.9393 30.9253 43.0709 31.0292 43.0638 31.4048C43.0433 32.5024 43.0484 33.6008 43.0612 34.6986C43.0649 35.0173 42.9528 35.1555 42.6375 35.1134C41.7935 35.0009 40.9494 34.8884 40.1056 34.7753C40.0697 34.7704 40.0346 34.7583 39.9987 34.7549C39.1293 34.6733 38.2581 34.6076 37.391 34.5068C36.6654 34.4226 35.9448 34.2963 35.2213 34.1914C35.0539 34.1671 34.8848 34.1536 34.7164 34.1361C34.0225 34.0639 33.3293 33.9845 32.6344 33.9249C32.4286 33.9071 32.3633 33.8194 32.3644 33.6267C32.3686 32.8337 32.3737 32.0406 32.3633 31.2478C32.3593 30.9326 32.552 30.9345 32.771 30.9348C34.4179 30.9366 36.0649 30.9358 37.7118 30.9357Z" fill="#00A2E6"/>
<path d="M24.4357 30.9188C26.0831 30.9188 27.7304 30.9183 29.3777 30.9191C29.8894 30.9194 29.8908 30.921 29.8918 31.4182C29.893 32.004 29.8853 32.5898 29.894 33.1754C29.8978 33.4277 29.7972 33.541 29.5483 33.5121C28.5572 33.3971 27.5663 33.2802 26.575 33.166C26.4069 33.1467 26.2366 33.1449 26.0689 33.1225C25.6291 33.0639 25.1919 32.9739 24.7505 32.9443C24.444 32.9238 24.1316 32.9764 23.8233 33.0093C23.6684 33.0258 23.518 33.0854 23.3631 33.1011C22.5244 33.186 21.6845 33.2598 20.8456 33.3441C20.3673 33.3921 19.8892 33.446 19.4128 33.5099C19.0662 33.5564 18.9683 33.3986 18.978 33.0731C18.9951 32.5001 18.9975 31.9257 18.9773 31.3528C18.9654 31.0138 19.0928 30.9108 19.4213 30.9131C21.0927 30.9257 22.7642 30.919 24.4357 30.9188Z" fill="#F1B14B"/>
</svg>
