<svg width="69" height="70" viewBox="0 0 69 70" fill="none" xmlns="http://www.w3.org/2000/svg">
<path d="M0.402136 39.9194C0.44884 39.6901 0.498657 39.5115 0.518536 39.3297C0.539852 39.1346 0.553743 38.9346 0.534702 38.7402C0.471353 38.0946 0.34226 37.4516 0.328249 36.8057C0.296275 35.3272 0.297832 33.8471 0.326932 32.3685C0.338069 31.8027 0.462611 31.2393 0.533026 30.6745C0.546438 30.5668 0.542486 30.4567 0.557575 30.3492C0.624397 29.8746 0.692177 29.4002 0.765465 28.9266C0.849053 28.3863 0.939106 27.8469 1.02569 27.3069C1.03658 27.2387 1.03527 27.1675 1.05431 27.1019C1.19897 26.6052 1.34207 26.108 1.49572 25.6139C1.78169 24.6937 2.02933 23.7584 2.37542 22.8608C2.82844 21.6862 3.32266 20.5233 3.87208 19.3905C4.33481 18.4365 4.87214 17.5142 5.43102 16.6114C6.02164 15.6573 6.6604 14.7314 7.31042 13.8157C7.66417 13.3173 8.06785 12.8506 8.47944 12.3969C9.17952 11.6253 9.8942 10.8664 10.6205 10.1191C11.147 9.57735 11.6843 9.04296 12.2504 8.54314C12.7232 8.12583 13.2442 7.76229 13.7457 7.37741C14.2612 6.98168 14.7636 6.5664 15.2997 6.20024C15.9998 5.72212 16.7086 5.25103 17.4476 4.8367C18.4549 4.2719 19.4782 3.72928 20.525 3.24127C21.4267 2.82074 22.3647 2.47401 23.298 2.12442C24.0728 1.83421 24.859 1.57167 25.6497 1.32748C26.1468 1.17403 26.6616 1.07674 27.1686 0.955239C27.6458 0.840896 28.1224 0.724049 28.6011 0.615667C28.8313 0.563563 29.0642 0.51909 29.2981 0.48797C29.6688 0.438609 30.0428 0.413093 30.4128 0.359558C30.8509 0.296127 31.2862 0.213499 31.7228 0.139814C31.7718 0.131587 31.8214 0.122406 31.8708 0.120856C33.0935 0.0831792 34.3162 0.0427597 35.5391 0.011521C36.0078 -0.000521411 36.4777 -0.00707915 36.9459 0.0121171C37.4803 0.0340558 38.0146 0.0747137 38.5465 0.130633C39.1507 0.194184 39.7545 0.268942 40.354 0.365997C40.9137 0.456613 41.468 0.580494 42.0237 0.694599C42.3986 0.771622 42.7763 0.841731 43.144 0.945581C43.3394 1.00079 43.5231 1.10964 43.6997 1.21493C43.8986 1.33356 43.9831 1.5043 43.9826 1.75624C43.9738 6.33282 43.9761 10.9094 43.9761 15.486C43.9761 15.5921 43.9761 15.6982 43.9761 15.8668C43.5614 15.6735 43.2107 15.4821 42.8399 15.3433C42.196 15.1024 41.5453 14.8762 40.887 14.6776C40.3057 14.5022 39.7128 14.3624 39.1204 14.2276C38.8041 14.1557 38.478 14.1268 38.1561 14.0799C37.6603 14.0076 37.1641 13.9366 36.6681 13.8652C36.5991 13.8553 36.5299 13.8379 36.4608 13.838C35.6127 13.8393 34.7634 13.8178 33.9168 13.8557C33.4063 13.8786 32.8999 13.9939 32.3917 14.0689C31.9131 14.1396 31.4305 14.1919 30.9572 14.289C30.4586 14.3914 29.9659 14.5273 29.4761 14.6673C28.8989 14.8325 28.3242 15.0076 27.7544 15.1966C26.6919 15.5491 25.686 16.0306 24.7338 16.6123C24.0094 17.0546 23.3139 17.5442 22.6092 18.0181C21.2514 18.9311 20.1861 20.1619 19.0621 21.3207C18.4828 21.9179 18.0274 22.6393 17.5527 23.3295C17.2866 23.7163 17.0943 24.1535 16.8718 24.5697C16.8446 24.6206 16.8275 24.6805 16.821 24.7381C16.7807 25.1014 16.8278 25.1546 17.1932 25.1547C23.1806 25.1556 29.1679 25.1594 35.1552 25.1508C35.788 25.1498 36.4312 25.1323 37.0513 25.0211C38.1457 24.8247 39.2322 24.5779 40.2677 24.1484C41.8608 23.4876 43.2917 22.5713 44.5247 21.3797C45.6795 20.2637 46.6136 18.9651 47.303 17.5153C47.6052 16.8796 47.8015 16.1914 48.0155 15.5174C48.1894 14.9696 48.3488 14.4134 48.4573 13.8499C48.552 13.3584 48.6078 12.8519 48.6101 12.3518C48.6236 9.36369 48.6166 6.37539 48.6165 3.38721C48.6165 3.23829 48.6275 3.08841 48.614 2.94068C48.591 2.68958 48.6747 2.57393 48.9478 2.59443C49.2157 2.61459 49.4863 2.59801 49.7557 2.59801C55.7531 2.59789 61.7504 2.59789 67.7476 2.59801C67.8374 2.59801 67.9273 2.60254 68.0169 2.5998C68.2025 2.59408 68.295 2.68052 68.2953 2.86593C68.2957 3.08424 68.2985 3.30267 68.2986 3.52098C68.2988 5.9235 68.3108 8.32602 68.2931 10.7283C68.2854 11.7638 68.2357 12.8002 68.168 13.8338C68.1227 14.5277 68.0253 15.2192 67.9271 15.9083C67.8306 16.5867 67.7222 17.2647 67.5846 17.9358C67.465 18.5197 67.3047 19.0958 67.1491 19.6719C66.9499 20.4085 66.7503 21.1454 66.526 21.8747C66.3738 22.3692 66.1893 22.8547 66 23.3368C65.7673 23.9299 65.5263 24.5203 65.2672 25.1024C65.016 25.6665 64.7543 26.2273 64.4667 26.7738C64.1047 27.4616 63.7337 28.1466 63.3261 28.8081C62.9326 29.4466 62.4978 30.0609 62.0622 30.6724C61.6505 31.2506 61.2309 31.8249 60.7843 32.3765C60.2604 33.0237 59.737 33.6776 59.1489 34.2647C58.7925 34.6204 58.7886 35.1537 59.1534 35.5363C59.9388 36.3599 60.7186 37.2014 61.3908 38.1157C62.2729 39.3153 63.1019 40.5614 63.8549 41.8448C64.5288 42.9933 65.1082 44.2021 65.6549 45.4174C66.0855 46.3748 66.4134 47.3789 66.7661 48.3696C66.9754 48.9576 67.1668 49.5542 67.3249 50.1576C67.4809 50.7536 67.5875 51.3625 67.7109 51.9668C67.8283 52.5415 67.9552 53.1149 68.0482 53.6936C68.115 54.1095 68.138 54.5328 68.171 54.9536C68.2174 55.543 68.2888 56.1331 68.2909 56.7232C68.3032 60.2472 68.2962 63.7713 68.3047 67.2953C68.3053 67.5686 68.2453 67.6709 67.9426 67.6704C61.8255 67.661 55.7085 67.6631 49.5914 67.6626C49.4417 67.6626 49.2919 67.6646 49.1425 67.6584C48.9528 67.6505 48.8475 67.5528 48.8468 67.3581C48.8463 67.229 48.8487 67.0999 48.8487 66.9709C48.8485 64.1516 48.8619 61.332 48.8374 58.5127C48.8316 57.8595 48.7059 57.2061 48.6169 56.5553C48.5559 56.1094 48.4595 55.6682 48.385 55.224C48.2509 54.4244 48.0032 53.656 47.6417 52.936C47.248 52.1515 46.841 51.3641 46.3464 50.6411C45.5098 49.4181 44.5322 48.302 43.2823 47.474C42.4875 46.9476 41.6702 46.4396 40.8127 46.0266C40.0302 45.6497 39.191 45.375 38.3558 45.1248C37.7153 44.933 37.0504 44.8494 36.3653 44.8511C30.0687 44.8673 23.772 44.8598 17.4753 44.8601C16.8717 44.8601 16.8192 44.9056 17.0494 45.4589C17.225 45.881 17.4713 46.2787 17.7235 46.663C17.9828 47.0583 18.2874 47.424 18.5718 47.803C18.7553 48.0474 18.9134 48.3162 19.1251 48.5332C19.9483 49.3769 20.7839 50.2087 21.6232 51.0367C22.5312 51.9322 23.6812 52.475 24.7491 53.1374C26.0449 53.9412 27.4601 54.4833 28.8943 54.9688C29.5823 55.2017 30.3101 55.3223 31.0243 55.4738C31.6044 55.5968 32.1908 55.6899 32.7745 55.7962C32.8039 55.8015 32.8333 55.8092 32.863 55.8107C33.746 55.8572 34.6298 55.9482 35.5121 55.9356C36.3023 55.9242 37.0955 55.8303 37.8788 55.7152C38.7447 55.588 39.6159 55.4488 40.4576 55.2171C41.4116 54.9543 42.3348 54.5807 43.2728 54.2595C43.9064 54.0425 43.9821 53.8292 43.9789 54.7151C43.9632 59.1226 43.9558 63.5302 43.945 67.9379C43.9446 68.1065 43.9325 68.2753 43.9374 68.4437C43.952 68.9374 43.9485 68.9499 43.4783 69.0568C42.9243 69.1827 42.3701 69.309 41.813 69.4202C41.5325 69.4761 41.2459 69.5047 40.9608 69.5351C40.5089 69.5833 40.0548 69.612 39.6041 69.6686C39.1635 69.724 38.7261 69.8036 38.2873 69.8728C38.2284 69.8821 38.1697 69.8988 38.1105 69.9001C36.5281 69.9385 34.9457 70.0006 33.3633 70C32.7401 69.9998 32.1176 69.8028 31.4935 69.7947C30.4195 69.7807 29.4379 69.3625 28.4046 69.1755C27.4879 69.0097 26.5942 68.7087 25.6989 68.4389C25.0999 68.2584 24.5165 68.0271 23.9254 67.8207C23.4678 67.6609 23.0003 67.5256 22.5528 67.3418C21.8977 67.0729 21.2518 66.7805 20.6108 66.4792C19.8857 66.1382 19.156 65.8027 18.4552 65.4161C17.7258 65.0138 17.0067 64.5851 16.3224 64.1116C15.239 63.3619 14.1834 62.572 13.1252 61.7868C11.7379 60.7574 10.5634 59.4989 9.37399 58.2615C8.78445 57.6482 8.25838 56.9719 7.73123 56.3025C7.11534 55.5205 6.50017 54.7349 5.94057 53.9133C5.52012 53.2959 5.17344 52.6266 4.81957 51.9669C4.31158 51.0198 3.79317 50.0756 3.34194 49.1013C2.92784 48.2072 2.57972 47.2815 2.23471 46.3577C1.97185 45.6541 1.73857 44.9377 1.5314 44.2159C1.37213 43.6611 1.27202 43.0894 1.14963 42.5243C1.03179 41.9796 0.911084 41.4354 0.808816 40.8878C0.774686 40.7049 0.792769 40.5122 0.788458 40.324C0.783668 40.1101 0.752293 39.9162 0.402136 39.9194ZM28.4922 37.1561C36.2348 37.1561 43.9773 37.1509 51.7199 37.1679C52.2304 37.169 52.6143 36.9942 52.93 36.6576C53.3965 36.1603 53.8148 35.6187 54.2684 35.109C55.3236 33.9233 56.3903 32.7475 57.4456 31.5618C57.5939 31.3952 57.7207 31.2041 57.8283 31.0083C57.9887 30.7162 57.8318 30.4553 57.4911 30.4209C57.4022 30.412 57.3118 30.417 57.2219 30.417C55.1266 30.4165 53.0314 30.4167 50.9361 30.4159C50.0642 30.4156 50.1431 30.4865 50.1428 29.6348C50.1415 26.8556 50.1416 24.0762 50.1465 21.2969C50.1467 21.1273 50.1277 20.996 49.9299 20.9813C49.5574 20.9535 49.1825 20.8998 48.8123 20.9207C48.5773 20.9339 48.4529 21.096 48.4543 21.3881C48.4686 24.3559 48.4631 27.3239 48.4625 30.2918C48.4624 30.7063 48.397 30.7658 47.9701 30.7649C47.2218 30.7635 46.4734 30.761 45.7252 30.7664C45.5786 30.7674 45.4124 30.7645 45.2897 30.8286C44.8782 31.0438 44.4835 31.2907 44.0799 31.5212C43.7624 31.7024 43.4432 31.8813 43.1205 32.0532C42.9388 32.15 42.7495 32.2325 42.562 32.3183C42.2338 32.4684 41.905 32.7445 41.5757 32.7456C34.5617 32.7702 27.5475 32.7636 20.5335 32.763C20.0445 32.763 20.0377 32.7625 20.0369 32.2795C20.0338 30.4134 20.0352 28.5473 20.0352 26.6812C20.0352 26.2161 19.7838 25.9579 19.322 25.9573C17.4661 25.955 15.6103 25.9539 13.7545 25.9537C13.1557 25.9537 13.136 25.9624 12.9172 26.5339C12.7558 26.9554 12.6125 27.3836 12.4636 27.8099C12.3928 28.0126 12.2425 28.0684 12.0424 28.0652C11.6434 28.0587 11.2442 28.0577 10.8453 28.0636C10.5575 28.0679 10.3263 28.2816 10.3198 28.5614C10.3095 29.0078 10.3022 29.4553 10.3209 29.9012C10.3415 30.3911 10.5379 30.5626 11.02 30.5627C11.3093 30.5627 11.6013 30.5396 11.8871 30.5712C12.0736 30.5918 12.2901 30.6519 12.4161 30.7735C12.4777 30.833 12.4003 31.0967 12.3167 31.2227C12.2597 31.3085 12.0834 31.3515 11.96 31.3525C10.7828 31.3614 9.60536 31.3499 8.42807 31.3618C8.12378 31.3649 7.81805 31.4193 7.51783 31.4754C7.45927 31.4864 7.38742 31.6125 7.38287 31.6892C7.36634 31.9662 7.3776 32.2447 7.37521 32.5226C7.37149 32.9475 7.31844 33.0012 6.88733 33.0016C5.85962 33.0025 4.83202 32.9978 3.8043 33.001C3.25967 33.0027 3.02939 33.3284 3.21812 33.818C3.34925 34.1583 3.48002 34.4989 3.61617 34.8373C3.84394 35.4036 4.07279 35.9697 4.30715 36.5335C4.49384 36.9827 4.78161 37.1726 5.3248 37.171C13.047 37.148 20.7696 37.1554 28.4922 37.1561Z" fill="#4E5C9D"/>
</svg>
