<svg width="242" height="30" viewBox="0 0 242 30" fill="none" xmlns="http://www.w3.org/2000/svg">
<path d="M62.8864 7.32881C63.4723 7.32881 64.0094 7.42588 64.4976 7.62002C64.9859 7.81417 65.4253 8.05685 65.8159 8.44514C66.2065 8.83342 66.4994 9.17317 66.6947 9.65853C66.89 10.1439 66.9877 10.6778 66.9877 11.2602C66.9877 11.8426 66.89 12.3765 66.6947 12.8134C66.4994 13.2987 66.2065 13.687 65.8647 14.0268C65.4741 14.3665 65.0347 14.6577 64.5465 14.8519C64.0582 15.046 63.4723 15.1431 62.8864 15.1431H61.5682V19.8996H59.2734V7.28027L62.8864 7.32881ZM61.5682 12.6678H63.2282C63.6188 12.6678 63.9606 12.5221 64.2535 12.2795C64.5465 12.0368 64.6929 11.6485 64.6929 11.2117C64.6929 10.8234 64.5465 10.4836 64.3023 10.1924C64.0582 9.90121 63.6676 9.7556 63.2282 9.7556H61.5682V12.6678Z" fill="#262626"/>
<path d="M74.4116 6.98828C75.2904 6.98828 76.1204 7.13389 76.9016 7.47364C77.6828 7.81339 78.3664 8.25021 78.9523 8.83264C79.5381 9.41507 80.0264 10.0946 80.3682 10.8712C80.7099 11.6963 80.9052 12.5699 80.9052 13.4921C80.9052 14.4143 80.7099 15.2879 80.3682 16.0645C80.0264 16.8411 79.5381 17.5206 78.9523 18.103C78.3664 18.6854 77.6828 19.1223 76.9016 19.462C76.1204 19.8018 75.2904 19.9474 74.4116 19.9474C73.5328 19.9474 72.7027 19.7532 71.9216 19.462C71.1404 19.1223 70.4568 18.6854 69.8709 18.103C69.285 17.5206 68.7968 16.8411 68.455 16.0645C68.1133 15.2879 67.918 14.4143 67.918 13.4921C67.918 12.5699 68.1133 11.6963 68.455 10.9197C68.7968 10.1431 69.285 9.46361 69.8709 8.88118C70.4568 8.29875 71.1404 7.86193 71.9216 7.52218C72.7027 7.23096 73.5328 7.03682 74.4116 6.98828ZM74.4116 9.56068C73.8257 9.56068 73.2886 9.65775 72.8004 9.8519C72.3122 10.046 71.8727 10.3373 71.4821 10.677C71.0915 11.0168 70.7986 11.4536 70.6033 11.9389C70.408 12.4243 70.3104 12.9582 70.3104 13.5892C70.3104 14.2201 70.408 14.754 70.6033 15.2394C70.7986 15.7247 71.0915 16.1616 71.4821 16.5013C71.8727 16.8411 72.3122 17.1323 72.8004 17.3264C73.2886 17.5206 73.8745 17.6176 74.4116 17.6176C74.9975 17.6176 75.5346 17.5206 76.0228 17.3264C76.511 17.1323 76.9505 16.8411 77.3411 16.5013C77.7316 16.1616 78.0246 15.7247 78.2199 15.2394C78.4152 14.754 78.5128 14.1716 78.5128 13.5892C78.5128 12.9582 78.4152 12.4243 78.2199 11.9389C78.0246 11.4536 77.7316 11.0168 77.3411 10.677C76.9505 10.3373 76.511 10.046 76.0228 9.8519C75.5346 9.65775 74.9487 9.56068 74.4116 9.56068Z" fill="#262626"/>
<path d="M93.1593 17.9097C92.964 18.2009 92.7198 18.5407 92.4269 18.7834C92.1339 19.0261 91.7922 19.3173 91.3528 19.5114C90.9622 19.7056 90.4739 19.8997 89.9857 19.9968C89.4974 20.0938 88.9604 20.1424 88.3745 20.1424C87.5445 20.1424 86.7145 19.9968 85.9333 19.657C85.1521 19.3658 84.4685 18.929 83.8827 18.3466C83.2968 17.7641 82.8085 17.0846 82.4668 16.308C82.125 15.4829 81.9297 14.6093 81.9297 13.6386C81.9297 12.6679 82.125 11.7942 82.4668 10.9691C82.8085 10.144 83.2968 9.46449 83.8827 8.93059C84.4685 8.34816 85.1521 7.91134 85.9333 7.62012C86.7145 7.32891 87.4957 7.13477 88.3745 7.13477C88.9604 7.13477 89.4486 7.1833 89.9369 7.32891C90.4251 7.47452 90.8645 7.62012 91.3039 7.81427C91.6945 8.00841 92.0363 8.25109 92.3781 8.49377C92.671 8.73645 92.9151 9.02766 93.1104 9.31888L92.3781 11.3574C92.1828 11.1147 91.9875 10.9206 91.7434 10.6779C91.4992 10.4837 91.2063 10.2896 90.8645 10.0955C90.5227 9.94985 90.181 9.80424 89.7904 9.70717C89.3998 9.61009 89.0092 9.56156 88.5698 9.56156C87.9351 9.56156 87.398 9.65863 86.8609 9.85277C86.3239 10.0469 85.8845 10.2896 85.5427 10.6779C85.2009 11.0662 84.8591 11.4545 84.6638 11.9398C84.4685 12.4252 84.3709 13.0076 84.3709 13.6386C84.3709 14.2695 84.4685 14.8034 84.6638 15.3373C84.8591 15.8227 85.1521 16.2595 85.5427 16.5993C85.9333 16.939 86.3727 17.2302 86.9098 17.4244C87.4468 17.6185 88.0327 17.7156 88.6186 17.7156C89.058 17.7156 89.4974 17.667 89.888 17.57C90.2786 17.4729 90.6692 17.3273 91.011 17.1332C91.3528 16.939 91.6457 16.7449 91.8898 16.5507C92.134 16.3566 92.3292 16.1139 92.5245 15.8712L93.2569 17.9583L93.1593 17.9097Z" fill="#262626"/>
<path d="M103.755 7.28027V9.70707H100.044V19.8025H97.7497V9.7556H94.0391V7.32881H103.755V7.28027Z" fill="#262626"/>
<path d="M112.052 7.28027V9.7556H107.414V12.1339H111.564V14.6092H107.414V17.3272H112.052V19.8025H105.07V7.28027H112.052Z" fill="#262626"/>
<path d="M231.431 19.8508H229.136V9.80385H225.718L225.669 10.8231C225.621 12.2792 225.523 13.5896 225.328 14.706C225.132 15.8223 224.888 16.793 224.595 17.5696C224.302 18.3462 223.863 18.9286 223.424 19.3169C222.984 19.7052 222.398 19.8993 221.715 19.8993C221.519 19.8993 221.324 19.8993 221.178 19.8508C221.031 19.8022 220.885 19.7537 220.787 19.7052L220.348 17.6667C220.689 17.6667 221.031 17.5696 221.324 17.4725C221.617 17.3754 221.91 17.1813 222.105 16.8901C222.301 16.5989 222.545 16.2591 222.691 15.8223C222.838 15.3855 222.984 14.803 223.131 14.1235C223.277 13.444 223.326 12.6189 223.375 11.6482C223.424 10.6775 223.472 9.56117 223.472 8.2507V7.23145H231.382L231.431 19.8508Z" fill="#262626"/>
<path d="M237.582 19.8511H233.969V7.28027H236.263V12.0368H237.582C238.168 12.0368 238.705 12.1339 239.242 12.328C239.73 12.5221 240.169 12.7648 240.56 13.1531C240.951 13.5414 241.195 13.8812 241.39 14.3665C241.585 14.8519 241.683 15.3858 241.683 15.9197C241.683 16.5021 241.585 17.036 241.39 17.5213C241.195 18.0067 240.902 18.395 240.511 18.7347C240.121 19.0745 239.681 19.3657 239.193 19.5599C238.705 19.754 238.168 19.8025 237.582 19.8511ZM236.263 17.3757H237.924C238.363 17.3757 238.705 17.2301 238.998 16.9389C239.291 16.6477 239.388 16.3079 239.388 15.9197C239.388 15.4828 239.242 15.1431 238.949 14.8519C238.656 14.5607 238.314 14.4636 237.924 14.4636H236.263V17.3757Z" fill="#262626"/>
<path fill-rule="evenodd" clip-rule="evenodd" d="M19.6328 29.8012L36.2331 1.16504L52.8821 29.8012H19.6328Z" fill="#262626"/>
<path fill-rule="evenodd" clip-rule="evenodd" d="M33.6907 0L17.0416 28.6362L0.441406 0H33.6907Z" fill="#5497D3"/>
<path d="M117.812 7.32881C118.398 7.32881 118.935 7.42588 119.423 7.62002C119.912 7.81417 120.351 8.05685 120.742 8.44514C121.132 8.83342 121.425 9.17317 121.621 9.65853C121.816 10.1439 121.913 10.6778 121.913 11.2602C121.913 11.8426 121.816 12.3765 121.621 12.8134C121.425 13.2987 121.132 13.687 120.79 14.0268C120.4 14.3665 119.96 14.6577 119.472 14.8519C118.984 15.046 118.398 15.1431 117.812 15.1431H116.494V19.8996H114.199V7.28027L117.812 7.32881ZM116.494 12.6678H118.154C118.545 12.6678 118.886 12.5221 119.179 12.2795C119.472 12.0368 119.619 11.6485 119.619 11.2117C119.619 10.8234 119.472 10.4836 119.228 10.1924C118.984 9.90121 118.593 9.7556 118.154 9.7556H116.494V12.6678Z" fill="#262626"/>
<path d="M135.782 7.28027L137.491 19.8025H135.147L134.073 11.7456L131.144 19.8025H128.996L126.066 11.7456L124.992 19.8025H122.551L124.26 7.28027H126.652L130.021 16.2109L133.39 7.28027H135.782Z" fill="#262626"/>
<path d="M147.546 19.8511V11.3573L141.59 19.8025H139.246V7.28027H141.541V15.7741L147.497 7.28027H149.792V19.8025H147.546V19.8511Z" fill="#262626"/>
<path d="M154.678 7.28027V12.1339H160.536V7.28027H162.831V19.8025H160.536V14.6092H154.678V19.8025H152.383V7.28027H154.678Z" fill="#262626"/>
<path d="M173.911 19.8514L172.886 17.279H167.613L166.588 19.8514H164.098L169.078 7.3291H171.324L176.304 19.8514H173.911ZM171.91 14.8522L170.249 10.6295L168.541 14.8522H171.91Z" fill="#262626"/>
<path d="M187.681 19.8508H185.386V9.80385H181.968L181.92 10.8231C181.871 12.2792 181.773 13.5896 181.578 14.706C181.382 15.8223 181.138 16.793 180.845 17.5696C180.552 18.3462 180.113 18.9286 179.674 19.3169C179.185 19.7052 178.648 19.8993 177.965 19.8993C177.769 19.8993 177.574 19.8993 177.428 19.8508C177.281 19.8022 177.135 19.7537 177.037 19.7052L176.598 17.6667C176.939 17.6667 177.281 17.5696 177.574 17.4725C177.867 17.3754 178.16 17.1813 178.355 16.8901C178.551 16.5989 178.795 16.2591 178.941 15.8223C179.088 15.3855 179.234 14.803 179.381 14.1235C179.527 13.444 179.576 12.6189 179.625 11.6482C179.674 10.6775 179.722 9.56117 179.722 8.2507V7.23145H187.632L187.681 19.8508Z" fill="#262626"/>
<path d="M191.59 7.28027L194.129 12.9104L196.374 7.28027H198.864L193.836 19.8025H191.346L192.957 15.7741L189.148 7.28027H191.59Z" fill="#262626"/>
<path d="M206.626 7.28027V9.7556H202.623V19.8025H200.328V7.28027H206.626Z" fill="#262626"/>
<path d="M213.755 6.98828C214.634 6.98828 215.464 7.13389 216.245 7.47364C217.027 7.81339 217.71 8.25021 218.296 8.83264C218.882 9.41507 219.37 10.0946 219.712 10.8712C220.054 11.6963 220.249 12.5699 220.249 13.4921C220.249 14.4143 220.054 15.2879 219.712 16.0645C219.37 16.8411 218.882 17.5206 218.296 18.103C217.71 18.6854 217.027 19.1223 216.245 19.462C215.464 19.8018 214.634 19.9474 213.755 19.9474C212.877 19.9474 212.046 19.7532 211.265 19.462C210.484 19.1223 209.801 18.6854 209.215 18.103C208.629 17.5206 208.141 16.8411 207.799 16.0645C207.457 15.2879 207.262 14.4143 207.262 13.4921C207.262 12.5699 207.457 11.6963 207.799 10.9197C208.141 10.1431 208.629 9.46361 209.215 8.88118C209.801 8.29875 210.484 7.86193 211.265 7.52218C212.046 7.23096 212.877 7.03682 213.755 6.98828ZM213.755 9.56068C213.169 9.56068 212.632 9.65775 212.144 9.8519C211.656 10.046 211.216 10.3373 210.826 10.677C210.435 11.0168 210.142 11.4536 209.947 11.9389C209.752 12.4243 209.654 12.9582 209.654 13.5892C209.654 14.2201 209.752 14.754 209.947 15.2394C210.142 15.7247 210.435 16.1616 210.826 16.5013C211.216 16.8411 211.656 17.1323 212.144 17.3264C212.632 17.5206 213.218 17.6176 213.755 17.6176C214.341 17.6176 214.878 17.5206 215.367 17.3264C215.855 17.1323 216.294 16.8411 216.685 16.5013C217.075 16.1616 217.368 15.7247 217.564 15.2394C217.759 14.754 217.857 14.1716 217.857 13.5892C217.857 12.9582 217.759 12.4243 217.564 11.9389C217.368 11.4536 217.075 11.0168 216.685 10.677C216.294 10.3373 215.855 10.046 215.367 9.8519C214.878 9.65775 214.292 9.56068 213.755 9.56068Z" fill="#262626"/>
</svg>
