<svg width="69" height="69" viewBox="0 0 69 69" fill="none" xmlns="http://www.w3.org/2000/svg">
<path d="M47.328 3.435C69.7477 11.6137 75.6006 43.2705 57.9458 59.3216C36.6724 80.0367 0.137168 64.4481 0.171264 34.8603C-0.461314 11.3021 26.0509 -6.41775 47.328 3.435ZM55.0185 55.6502C61.491 49.309 64.954 39.8225 63.4668 30.8361C61.1146 34.4009 56.4842 36.7493 51.5133 36.7493C46.5424 36.7493 36.8177 36.7112 36.8177 36.7112L36.5997 58.6643L35.448 58.6258L35.8653 14.3735C35.8653 14.3735 38.2767 14.3757 51.3298 14.3757C65.4062 14.3757 65.8854 33.4168 51.324 33.4168C38.8375 33.4168 36.9007 33.3747 36.9007 33.3747L36.8796 33.9805C36.8796 33.9805 38.5472 34.1117 51.324 34.1117C66.5009 34.1117 66.5157 13.4955 51.1468 13.4955C35.7778 13.4955 34.8442 13.6321 34.8442 13.6321C34.8442 13.6321 35.0887 42.3741 34.4368 56.4583C28.1743 42.9141 21.6143 29.389 15.503 15.8085C15.0893 14.9108 13.4738 12.6641 13.9471 11.8841C16.4927 9.69293 19.3003 7.93335 22.3698 6.58837C31.0909 2.86236 41.5917 3.50619 49.7537 8.34884C51.5599 9.26758 52.905 11.0867 55.0302 11.157C44.672 1.56259 28.1357 1.03517 16.6214 8.66539C-13.8307 30.9847 11.1252 77.2899 46.5334 63.9283C60.2173 58.0626 68.8231 42.2953 64.9567 27.655C63.989 29.2713 65.2008 31.3626 65.081 33.1598C65.3183 37.3989 64.6974 41.7191 63.0841 45.6627C57.7821 60.3052 40.4064 68.8896 25.5121 64.098C5.95958 58.808 -3.12846 33.0631 9.42754 16.9882C10.3724 15.444 11.8152 14.0216 13.1225 12.6909C20.2514 28.0208 27.3999 43.291 34.5064 58.6375C33.5005 58.6012 32.1663 58.9132 31.2775 58.4933C29.8962 55.5432 28.5444 52.5788 27.1142 49.6488C23.5435 41.8023 19.6372 34.0342 16.1553 26.1788C14.45 22.9981 13.0947 19.6052 11.4428 16.386C-10.8688 45.6506 28.133 80.6434 55.0266 55.6426C55.0261 55.6426 55.0185 55.6502 55.0185 55.6502ZM15.4765 12.2674C20.9862 23.8819 26.3295 35.7092 31.9061 47.3372C31.937 47.33 31.968 47.3233 31.9985 47.3161C31.9994 35.3058 32.0003 23.2959 32.0003 11.2855C31.9303 10.8073 32.2564 10.9497 32.5974 10.9273C38.8406 10.8987 45.0816 10.9833 51.3231 10.8951C41.1987 3.071 26.1904 3.86348 16.2365 11.5967C16.2437 11.5989 16.2509 11.6007 16.2576 11.6029C15.9956 11.8259 15.7331 12.0493 15.4765 12.2674ZM36.9842 15.6692L36.8913 32.0374C36.8913 32.0374 39.5881 32.0279 52.3298 32.0279C63.6346 32.0279 63.7005 15.6464 51.5559 15.6464C41.7002 15.6464 36.9842 15.6692 36.9842 15.6692Z" fill="#158AB8"/>
</svg>
