<svg width="97" height="51" viewBox="0 0 97 51" fill="none" xmlns="http://www.w3.org/2000/svg">
<g clip-path="url(#clip0)">
<path d="M92.9475 34.7732L82.9114 30.3391L77.3037 25.3493L83.6903 23.6925L86.3248 17.4295C82.9672 16.6373 79.6485 16.1416 76.0777 16.2412H75.5508L75.9499 27.0118L80.3419 30.4172V39.0499C82.9285 40.8588 85.1901 43.0866 87.0319 45.64L87.3615 46.0983C88.1689 44.5172 89.1941 43.0554 90.4077 41.7548L90.93 41.1957L92.9475 34.7732Z" fill="#4E5C9D"/>
<path d="M61.1367 10.0957H69.5534L73.3465 11.7321L75.5568 15.4159H75.6092C79.4594 15.3819 83.3028 15.9071 87.039 16.8113L90.0042 12.8831L87.1165 5.67515L84.9713 4.61133L84.8903 4.62038C77.3781 5.4853 69.9783 7.13197 62.8132 9.5332L61.1367 10.0957Z" fill="#4E5C9D"/>
<path d="M91.0763 9.52119L87.6949 1.82547L84.8083 1.25282V3.51627C77.3337 4.76116 67.9705 6.7711 60.6304 9.5144L59.4648 6.37726L62.1256 5.08144L69.095 5.38814L70.3985 2.72972L75.4063 1.88658C81.6687 0.831774 87.9962 0.201454 94.3449 0V0L97.0045 1.10456L95.75 6.04906L91.0763 9.52119Z" fill="#4E5C9D"/>
<path d="M83.1211 42.3291C84.5182 43.5354 85.77 44.898 86.8515 46.3897L87.1458 46.796L85.134 51.0004L83.1211 49.5823V42.3291Z" fill="#4E5C9D"/>
<path d="M60.3984 15.7077V13.6299H65.9696L65.737 15.4157L60.3984 15.7077Z" fill="#4E5C9D"/>
<path d="M60.3984 16.566L65.6788 16.2412L65.8156 29.72L60.3984 27.3921V16.566Z" fill="#4E5C9D"/>
<path d="M66.5469 30.1553L73.5094 34.0133V30.1553H66.5469Z" fill="#4E5C9D"/>
<path d="M60.3984 28.1201C64.11 29.7466 67.7357 31.5597 71.2614 33.5524L73.1067 34.5947H60.3984V28.1201Z" fill="#4E5C9D"/>
<path d="M47.5391 23.6924L52.646 25.2972C52.646 25.2972 52.8297 34.5773 52.646 34.5909C52.4624 34.6045 47.5391 34.5909 47.5391 34.5909V23.6924Z" fill="#4E5C9D"/>
<path d="M47.5391 22.7674V18.6649L54.8528 17.2661L58.0416 16.8066V18.4216L52.727 18.4827V24.3824L47.5391 22.7674Z" fill="#4E5C9D"/>
<path d="M42.5273 18.3005V13.6299H51.1116L43.4044 18.3005H42.5273Z" fill="#4E5C9D"/>
<path d="M44.8594 18.3004L52.3397 13.6309H58.042V15.9656C54.471 16.3448 50.9367 17.009 47.4733 17.9518L47.3114 17.9959L44.8594 18.3004Z" fill="#4E5C9D"/>
<path d="M30.2812 14.2077L35.329 17.5089L35.5023 17.5327C36.6472 17.6855 37.7332 18.1282 38.6557 18.8183L39.8794 14.185C36.8595 13.2797 33.2818 13.2004 30.2927 14.2043L30.2812 14.2077Z" fill="#4E5C9D"/>
<path d="M29.3601 14.5225L34.5219 17.6811L32.5728 18.0217L27.8125 16.2721L29.3601 14.5225Z" fill="#4E5C9D"/>
<path d="M27.3554 16.8066L27.0669 17.3295C26.6888 18.0149 26.4719 18.7764 26.4324 19.5568C26.3929 20.3372 26.5318 21.1164 26.8388 21.836V21.836L33.5618 21.1468L32.9585 20.7371C32.5728 20.4763 32.2858 20.0953 32.1431 19.6543C32.0003 19.2133 32.01 18.7377 32.1705 18.3028V18.3028L27.3554 16.8066Z" fill="#4E5C9D"/>
<path d="M27.2855 22.6708L34.5229 21.7314L35.3577 21.9578C37.2895 22.4805 38.9743 23.6612 40.1169 25.293V25.293C41.1102 26.7925 41.4204 31.0987 37.6466 33.5738C34.7821 34.9985 31.4854 35.3133 28.3997 34.4565L26.4609 33.9167L27.3642 29.1454L30.2895 30.1141C31.8226 30.6214 33.4862 30.5813 34.9928 30.0009C35.9051 29.2959 35.7169 27.5621 34.6734 27.0675L34.0234 26.9091C31.3724 26.2615 29.0063 24.7744 27.2832 22.673L27.2855 22.6708Z" fill="#4E5C9D"/>
<path d="M34.3438 41.5607L38.1198 38.2119H42.8858L46.7976 43.9531L44.5475 47.3008L39.4861 45.069H34.8809L34.3438 41.5607Z" fill="#4E5C9D"/>
<path d="M10.0422 46.7912L13.0142 46.0986L15.4252 36.4247L19.2811 32.836L20.3258 27.2577L23.0629 28.257V23.1914L22.1277 23.6294C16.215 26.3946 10.8863 30.2506 6.42578 34.9919V34.9919L10.0422 46.7912Z" fill="#4E5C9D"/>
<path d="M5.38414 34.5979L5.8905 34.0716C10.4391 29.3623 15.8532 25.5593 21.8411 22.8676L23.0591 22.3198L23.3807 15.8271L22.0999 15.654C15.8958 14.8165 9.58561 15.3925 3.55825 17.0754L1.16327 18.8217L0.889563 21.2798L3.46131 21.7324L8.36531 20.0032L12.9591 22.6061L11.7046 24.6432L5.62477 22.7668L0.883861 25.4241L0 31.1699L2.49192 34.0151L5.38414 34.5979Z" fill="#4E5C9D"/>
<path d="M6.42656 13.6297L3.85938 15.9645C9.64146 14.4231 15.6723 14.0235 21.6096 14.7886L23.7035 15.058L25.7118 12.3418L23.229 11.3312C18.6338 9.46012 13.8301 8.13987 8.91962 7.39844V7.39844L5.86431 11.1512L7.47123 12.4312L10.0532 10.4224L12.2258 10.4654L12.1756 10.5141C10.5939 12.0701 8.60076 13.1502 6.42656 13.6297V13.6297Z" fill="#4E5C9D"/>
<path d="M9.75781 6.604L12.3718 7.12572C14.9513 7.64101 17.4945 8.32147 19.9855 9.16283V9.16283C21.7137 9.74529 23.4122 10.4043 25.0811 11.1399L26.3219 11.6866L30.2793 9.79885L53.9132 9.95843L55.5247 7.7244L31.8178 4.05762L25.4312 4.52615L23.3784 6.65492L14.2193 6.81223L12.3512 5.91704" fill="#4E5C9D"/>
</g>
<defs>
<clipPath id="clip0">
<rect width="97" height="51" fill="white"/>
</clipPath>
</defs>
</svg>
