<svg width="550" height="288" viewBox="0 0 550 288" fill="none" xmlns="http://www.w3.org/2000/svg">
<g clip-path="url(#clip0)">
<path d="M527.031 196.367L470.126 171.328L438.33 143.15L474.542 133.794L489.48 98.4266C470.443 93.9529 451.625 91.1537 431.378 91.7161H428.391L430.654 152.538L455.557 171.769V220.519C470.223 230.733 483.046 243.313 493.489 257.733L495.358 260.321C499.936 251.393 505.75 243.137 512.63 235.793L515.592 232.636L527.031 196.367Z" fill="#4E5C9D"/>
<path d="M346.641 57.0055H394.364L415.872 66.2468L428.404 87.0492H428.701C450.532 86.8574 472.325 89.8228 493.509 94.9292L510.322 72.7463L493.949 32.0426L481.785 26.0352L481.326 26.0863C438.731 30.9706 396.773 40.2694 356.146 53.8292L346.641 57.0055Z" fill="#4E5C9D"/>
<path d="M516.408 53.7667L497.235 10.3085L480.868 7.07474V19.8566C438.486 26.8866 385.396 38.2368 343.777 53.7284L337.168 36.0128L352.254 28.6952L391.772 30.4271L399.163 15.4149L427.558 10.6537C463.066 4.69708 498.943 1.13762 534.941 0L550.021 6.23753L542.908 34.1594L516.408 53.7667Z" fill="#4E5C9D"/>
<path d="M471.305 239.032C479.227 245.844 486.324 253.539 492.457 261.963L494.125 264.257L482.718 287.999L471.305 279.992V239.032Z" fill="#4E5C9D"/>
<path d="M342.449 88.7005V76.9668H374.038L372.719 87.0517L342.449 88.7005Z" fill="#4E5C9D"/>
<path d="M342.449 93.552L372.389 91.7178L373.165 167.834L342.449 154.687V93.552Z" fill="#4E5C9D"/>
<path d="M377.328 170.291L416.806 192.078V170.291H377.328Z" fill="#4E5C9D"/>
<path d="M342.449 158.794C363.494 167.979 384.052 178.218 404.043 189.47L414.506 195.356H342.449V158.794Z" fill="#4E5C9D"/>
<path d="M269.559 133.793L298.516 142.855C298.516 142.855 299.557 195.261 298.516 195.337C297.475 195.414 269.559 195.337 269.559 195.337V133.793Z" fill="#4E5C9D"/>
<path d="M269.559 128.567V105.4L311.029 97.501L329.109 94.9062V104.026L298.975 104.371V137.687L269.559 128.567Z" fill="#4E5C9D"/>
<path d="M241.145 103.342V76.9668H289.818L246.117 103.342H241.145Z" fill="#4E5C9D"/>
<path d="M254.363 103.341L296.777 76.9717H329.11V90.1561C308.862 92.2975 288.822 96.0483 269.185 101.372L268.266 101.621L254.363 103.341Z" fill="#4E5C9D"/>
<path d="M171.684 80.2377L200.305 98.8799L201.288 99.0141C207.779 99.8771 213.937 102.377 219.168 106.274L226.106 80.1098C208.983 74.9971 188.697 74.5498 171.748 80.2185L171.684 80.2377Z" fill="#4E5C9D"/>
<path d="M166.474 82.0078L195.742 99.8448L184.691 101.768L157.699 91.8881L166.474 82.0078Z" fill="#4E5C9D"/>
<path d="M155.091 94.9062L153.455 97.8588C151.312 101.73 150.082 106.03 149.858 110.437C149.634 114.844 150.421 119.244 152.162 123.307L190.283 119.415L186.862 117.102C184.675 115.629 183.047 113.477 182.238 110.987C181.429 108.497 181.483 105.811 182.393 103.355L155.091 94.9062Z" fill="#4E5C9D"/>
<path d="M154.718 128.024L195.755 122.72L200.489 123.998C211.442 126.95 220.995 133.617 227.473 142.832C233.106 151.3 234.865 175.617 213.467 189.594C197.225 197.64 178.532 199.417 161.036 194.579L150.043 191.531L155.164 164.587L171.751 170.057C180.444 172.922 189.877 172.696 198.419 169.418C203.592 165.437 202.526 155.646 196.609 152.853L192.923 151.958C177.892 148.301 164.475 139.904 154.705 128.037L154.718 128.024Z" fill="#4E5C9D"/>
<path d="M194.707 234.694L216.118 215.783H243.142L265.322 248.204L252.563 267.109L223.865 254.506H197.753L194.707 234.694Z" fill="#4E5C9D"/>
<path d="M56.9586 264.233L73.8104 260.321L87.4807 205.692L109.344 185.426L115.268 153.925L130.787 159.569V130.963L125.485 133.436C91.9591 149.051 61.745 170.827 36.4531 197.601L56.9586 264.233Z" fill="#4E5C9D"/>
<path d="M30.5286 195.375L33.3998 192.403C59.191 165.809 89.8892 144.334 123.841 129.133L130.747 126.04L132.571 89.3757L125.309 88.3978C90.1309 83.6686 54.3514 86.9215 20.1757 96.4248L6.59588 106.286L5.04391 120.167L19.626 122.723L47.4322 112.958L73.4795 127.657L66.3663 139.161L31.8931 128.565L5.01158 143.571L0 176.017L14.1294 192.084L30.5286 195.375Z" fill="#4E5C9D"/>
<path d="M36.439 76.9735L21.8828 90.158C54.6678 81.4535 88.8635 79.1974 122.528 83.5178L134.401 85.0388L145.788 69.7007L131.711 63.9936C105.656 53.4276 78.4178 45.972 50.5749 41.7852L33.251 62.9774L42.3624 70.2055L57.0027 58.8617L69.3215 59.1045L69.0369 59.3793C60.0681 68.1661 48.7669 74.2657 36.439 76.9735Z" fill="#4E5C9D"/>
<path d="M55.3203 37.2907L70.1417 40.2369C84.768 43.1468 99.1884 46.9894 113.312 51.7405C123.111 55.0297 132.742 58.7514 142.205 62.9055L149.241 65.9923L171.68 55.3322L305.686 56.2333L314.823 43.6177L180.403 22.9111L144.19 25.557L132.55 37.5783L80.6175 38.4666L70.0253 33.4114" fill="#4E5C9D"/>
</g>
<defs>
<clipPath id="clip0">
<rect width="550" height="288" fill="white"/>
</clipPath>
</defs>
</svg>
